<?xml version="1.0" encoding="utf-8"?>
<!-- Generator: Adobe Illustrator 16.0.0, SVG Export Plug-In . SVG Version: 6.00 Build 0)  -->
<!DOCTYPE svg PUBLIC "-//W3C//DTD SVG 1.1//EN" "http://www.w3.org/Graphics/SVG/1.1/DTD/svg11.dtd">
<svg version="1.1" id="Layer_1" xmlns="http://www.w3.org/2000/svg" xmlns:xlink="http://www.w3.org/1999/xlink" x="0px" y="0px"
	 width="220.062px" height="220.062px" viewBox="0 0 220.062 220.062" enable-background="new 0 0 220.062 220.062"
	 xml:space="preserve">
<g>
	<defs>
		<rect id="SVGID_1_" width="220.062" height="220.062"/>
	</defs>
	<clipPath id="SVGID_2_">
		<use xlink:href="#SVGID_1_"  overflow="visible"/>
	</clipPath>
	<path clip-path="url(#SVGID_2_)" fill="#FEBD4D" d="M197.083,104.268l-0.609-1.123l18.874-18.875
		c3.039-3.039,4.715-7.083,4.715-11.381c0-8.875-7.224-16.099-16.1-16.099c-1.805,0-3.54,0.358-5.197,0.922V10.648
		C198.765,4.776,193.989,0,188.117,0H77.479c-2.843,0-5.518,1.107-7.531,3.119L38.613,34.454c-2.013,2.008-3.12,4.684-3.12,7.531
		v7.887C15.623,51.672,0,68.404,0,88.734v113.581c0,9.786,7.96,17.747,17.747,17.747h42.592c9.786,0,17.747-7.961,17.747-17.747
		v-3.55h139.068l-7.753-46.512C209.339,135.533,205.09,118.946,197.083,104.268 M202.229,149.936l-34.602,9.438l-8.345-6.677
		c-4.23-3.39-6.659-8.438-6.659-13.859v-32.356c3.914,0,7.099,3.184,7.099,7.099v24.846h7.099v-5.63l24.397-24.399
		C198.044,121.175,201.811,135.458,202.229,149.936 M152.624,99.383c-3.915,0-7.099,3.184-7.099,7.099v3.549
		c0,1.955-1.595,3.55-3.55,3.55s-3.549-1.595-3.549-3.55v-3.549c0-7.829,6.368-14.198,14.197-14.198h9.179l-7.291,7.291
		C153.887,99.489,153.27,99.383,152.624,99.383 M113.753,159.979l4.673-11.687l10.133,10.133l-11.688,4.675
		c-1.502,0.61-3.29-0.599-3.29-2.231C113.581,160.558,113.638,160.26,113.753,159.979 M134.876,154.703l-12.728-12.728
		l21.462-21.463c0.664-0.104,1.299-0.271,1.914-0.489v18.812c0,1.611,0.184,3.187,0.482,4.735L134.876,154.703z M131.981,113.581
		H92.284V99.383h40.286c-0.787,2.226-1.243,4.607-1.243,7.099v3.549C131.327,111.281,131.583,112.466,131.981,113.581
		 M92.284,120.679h41.123l-14.197,14.197H92.284V120.679z M92.284,141.975h21.023l-5.679,14.197H92.284V141.975z M92.284,163.271
		h14.547c1.069,4.072,4.751,7.1,9.155,7.1c1.218,0,2.407-0.227,3.528-0.678l8.264-3.309v11.085H92.284V163.271z M134.876,163.544
		l1.994-0.798l11.819-11.819c0.128,0.231,0.245,0.465,0.384,0.69v25.852h-14.197V163.544z M156.172,159.297l7.099,5.677v12.495
		h-7.099V159.297z M212.962,72.889c0,2.403-0.938,4.666-2.637,6.364l-43.505,43.505v-9.178c0-4.444-2.094-8.37-5.304-10.975
		l36.081-36.081c1.698-1.698,3.961-2.637,6.364-2.637C208.923,63.889,212.962,67.928,212.962,72.889 M70.988,12.118v19.827
		c0,1.955-1.594,3.549-3.55,3.549H47.611L70.988,12.118z M39.043,56.79c17.613,0,31.945,14.332,31.945,31.944
		c0,17.613-14.332,31.945-31.945,31.945c-17.612,0-31.944-14.332-31.944-31.945C7.099,71.122,21.431,56.79,39.043,56.79
		 M21.296,123.468c5.331,2.733,11.355,4.31,17.747,4.31c6.392,0,12.416-1.576,17.747-4.31v18.507H21.296V123.468z M60.339,212.962
		H17.747c-5.872,0-10.648-4.776-10.648-10.647v-91.203c2.02,2.877,4.398,5.481,7.099,7.719v23.145c0,3.915,3.184,7.099,7.099,7.099
		H56.79c3.915,0,7.099-3.184,7.099-7.099v-23.145c2.701-2.237,5.079-4.842,7.099-7.719v91.203
		C70.988,208.186,66.211,212.962,60.339,212.962 M78.086,191.667V88.734c0-20.33-15.624-37.063-35.494-38.862v-7.279h24.845
		c5.872,0,10.648-4.777,10.648-10.648V7.099h110.03c1.955,0,3.55,1.594,3.55,3.549v51.771l-22.766,22.766h-16.277
		c-6.285,0-11.926,2.754-15.831,7.099H85.185v92.284h78.086v7.099H78.086z M170.371,191.667v-25.683l32.638-8.903l5.763,34.586
		H170.371z"/>
	<path clip-path="url(#SVGID_2_)" fill="#FEBD4D" d="M35.494,105.966v7.614h7.099v-7.614c4.1-1.299,7.099-5.093,7.099-9.615
		c0-3.857-2.145-7.333-5.602-9.061l-6.921-3.457c-1.033-0.518-1.675-1.56-1.675-2.715c0-1.673,1.359-3.032,3.032-3.032h1.036
		c1.673,0,3.032,1.359,3.032,3.032v4.067h7.099v-4.067c0-4.522-2.999-8.317-7.099-9.615v-7.614h-7.099v7.614
		c-4.1,1.298-7.099,5.093-7.099,9.615c0,3.857,2.145,7.333,5.602,9.06l6.92,3.458c1.033,0.518,1.676,1.56,1.676,2.715
		c0,1.673-1.359,3.032-3.032,3.032h-1.036c-1.673,0-3.032-1.359-3.032-3.032v-4.067h-7.099v4.067
		C28.395,100.874,31.394,104.667,35.494,105.966"/>
	<rect x="85.185" y="32.593" clip-path="url(#SVGID_2_)" fill="#FEBD4D" width="99.383" height="7.099"/>
	<rect x="85.185" y="55.988" clip-path="url(#SVGID_2_)" fill="#FEBD4D" width="56.79" height="7.099"/>
</g>
</svg>
