<?xml version="1.0" encoding="utf-8"?>
<!-- Generator: Adobe Illustrator 16.0.0, SVG Export Plug-In . SVG Version: 6.00 Build 0)  -->
<!DOCTYPE svg PUBLIC "-//W3C//DTD SVG 1.1//EN" "http://www.w3.org/Graphics/SVG/1.1/DTD/svg11.dtd">
<svg version="1.1" id="Layer_1" xmlns="http://www.w3.org/2000/svg" xmlns:xlink="http://www.w3.org/1999/xlink" x="0px" y="0px"
	 width="162.868px" height="182.949px" viewBox="0 0 162.868 182.949" enable-background="new 0 0 162.868 182.949"
	 xml:space="preserve">
<g>
	<defs>
		<rect id="SVGID_1_" width="162.868" height="182.949"/>
	</defs>
	<clipPath id="SVGID_2_">
		<use xlink:href="#SVGID_1_"  overflow="visible"/>
	</clipPath>
	<path clip-path="url(#SVGID_2_)" fill="#FCBC4D" d="M31.417,159.146c-1.481,0-2.68,1.2-2.68,2.68v18.443
		c0,1.479,1.198,2.68,2.68,2.68c1.479,0,2.68-1.201,2.68-2.68v-18.443C34.097,160.346,32.896,159.146,31.417,159.146"/>
	<path clip-path="url(#SVGID_2_)" fill="#FCBC4D" d="M155.195,140.124h-8.583c-2.951-6.064-7.907-10.866-14.151-13.632
		l-34.945-14.979c-0.007-0.004-0.014-0.006-0.021-0.008l-0.188-0.079c0.004-0.206,0.017-0.408,0.017-0.611V96.715
		c7.167-6.287,11.7-15.507,11.7-25.765v-2.531h3.52c4.113,0,7.459-3.346,7.459-7.459v-9.449c0-3.43-2.33-6.318-5.486-7.186v-5.471
		C114.516,17.43,97.086,0,75.66,0h-1.8C52.434,0,35.003,17.43,35.003,38.855v5.471c-3.158,0.867-5.487,3.756-5.487,7.186v9.449
		c0,4.115,3.345,7.459,7.458,7.459h3.508v2.531c0,10.266,4.538,19.491,11.714,25.777v14.086c0,0.247,0.004,0.495,0.011,0.74
		l-34.688,15.083C6.877,131.115,0,141.469,0,153.015v27.251c0,1.48,1.199,2.681,2.68,2.681c1.479,0,2.68-1.2,2.68-2.681v-27.251
		c0-9.383,5.589-17.799,14.267-21.45l22.422-9.748l2.829,4.833c0.748,1.277,2.389,1.706,3.668,0.959
		c1.276-0.749,1.707-2.391,0.958-3.667l-2.503-4.276l5.784-2.516l1.105,0.85c0.007,0.008,0.017,0.013,0.024,0.02l16.655,12.833
		l-11.164,10.003l-5.118-8.744c-0.749-1.277-2.39-1.707-3.668-0.959c-1.276,0.748-1.707,2.39-0.958,3.666l6.776,11.575
		c0.408,0.694,1.104,1.171,1.898,1.296c0.14,0.021,0.277,0.032,0.415,0.032c0.655,0,1.293-0.24,1.789-0.686l10.079-9.029
		l-8.069,41.753c-0.281,1.453,0.668,2.86,2.121,3.141c1.454,0.281,2.858-0.67,3.14-2.123l6.949-35.955l6.949,35.955
		c0.248,1.282,1.37,2.172,2.628,2.172c0.168,0,0.339-0.017,0.512-0.049c1.452-0.28,2.402-1.688,2.122-3.141l-8.07-41.753
		l10.08,9.029c0.495,0.445,1.133,0.686,1.788,0.686c0.138,0,0.275-0.012,0.415-0.032c0.795-0.125,1.491-0.602,1.898-1.296
		l14.482-24.74l22.755,9.752c4.22,1.868,7.724,4.9,10.162,8.719h-29.04c-4.229,0-7.673,3.441-7.673,7.674v27.479
		c0,4.229,3.443,7.673,7.673,7.673h43.755c4.232,0,7.673-3.443,7.673-7.673v-27.479
		C162.868,143.565,159.427,140.124,155.195,140.124 M114.641,60.96c0,1.158-0.941,2.099-2.1,2.099h-3.512V49.413h3.512
		c1.158,0,2.1,0.941,2.1,2.099V60.96z M36.974,63.06c-1.156,0-2.099-0.941-2.099-2.099v-9.449c0-1.158,0.943-2.099,2.099-2.099
		h3.508V63.06H36.974z M45.841,70.951l0.006-24.218c0-0.019-0.002-0.036-0.002-0.053c0.06-1.748,0.52-4.959,2.833-7.708
		c2.329-2.766,5.291-3.62,6.265-3.901c3.857-1.116,6.289-0.002,9.653,1.538c3.261,1.492,6.953,3.186,12.408,2.914
		c4.154-0.205,7.178-1.481,9.59-2.702c1.321-0.668,1.848-2.282,1.18-3.601c-0.668-1.322-2.281-1.848-3.602-1.18
		c-2.317,1.172-4.466,1.984-7.433,2.131c-4.146,0.204-6.948-1.078-9.912-2.435c-3.564-1.632-7.601-3.482-13.372-1.814
		c-3.649,1.053-6.636,2.937-8.877,5.598c-2.425,2.881-3.436,6.061-3.843,8.531h-0.372v-5.196c0-18.469,15.026-33.496,33.497-33.496
		h1.8c18.471,0,33.497,15.026,33.497,33.496v5.196h-0.24c-0.22-1.906-0.782-4.129-2.026-6.372
		c-2.143-3.853-5.934-6.902-10.146-8.159c-1.416-0.422-2.91,0.384-3.332,1.802c-0.425,1.418,0.383,2.911,1.801,3.335
		c1.087,0.324,4.802,1.688,6.99,5.626c1.323,2.38,1.525,4.765,1.463,6.344c-0.002,0.035-0.002,0.071-0.002,0.106v24.218
		c0,15.942-12.97,28.909-28.912,28.909C58.812,99.86,45.841,86.893,45.841,70.951 M57.923,114.34
		c-0.097-0.468-0.182-0.94-0.24-1.423c-0.085-0.682-0.128-1.391-0.128-2.104v-10.23c5.056,2.947,10.934,4.637,17.198,4.637
		c6.27,0,12.151-1.693,17.211-4.646v10.241c0,0.67-0.039,1.348-0.118,2.02c-0.059,0.506-0.143,1.008-0.245,1.5l-16.843,12.979
		L57.923,114.34z M90.112,140.855l-11.164-10.003l17.901-13.794l4.481,1.92l1.27,0.544L90.112,140.855z M157.508,175.276
		c0,1.274-1.037,2.313-2.313,2.313H111.44c-1.274,0-2.313-1.039-2.313-2.313v-27.479c0-1.276,1.039-2.313,2.313-2.313h33.441h0.006
		h0.007h10.301c1.275,0,2.313,1.037,2.313,2.313V175.276z"/>
	<path clip-path="url(#SVGID_2_)" fill="#FCBC4D" d="M152.48,157.417c0-4.023-3.392-7.295-7.558-7.295h-4.72h-0.002h-0.004
		c-1.479,0-2.68,1.198-2.68,2.68v17.758c0,1.48,1.2,2.68,2.68,2.68c1.481,0,2.68-1.199,2.68-2.68v-3.807l4.911,5.579
		c0.529,0.601,1.271,0.907,2.012,0.907c0.63,0,1.263-0.219,1.771-0.667c1.111-0.978,1.22-2.671,0.242-3.782l-4.062-4.613
		C150.52,163.092,152.48,160.472,152.48,157.417 M144.922,155.482c1.19,0,2.197,0.886,2.197,1.935c0,1.048-1.007,1.936-2.197,1.936
		c-0.484,0-1.247,0.002-2.021,0.006c-0.004-0.746-0.006-1.478-0.006-1.941c0-0.398-0.002-1.152-0.004-1.935H144.922z"/>
	<path clip-path="url(#SVGID_2_)" fill="#FCBC4D" d="M129.401,150.122c-1.479,0-2.68,1.198-2.68,2.68v5.895h-6.931v-5.895
		c0-1.481-1.2-2.68-2.68-2.68s-2.681,1.198-2.681,2.68v17.758c0,1.48,1.201,2.68,2.681,2.68s2.68-1.199,2.68-2.68v-6.504h6.931
		v6.504c0,1.48,1.2,2.68,2.68,2.68s2.681-1.199,2.681-2.68v-17.758C132.082,151.32,130.88,150.122,129.401,150.122"/>
</g>
</svg>
