<?xml version="1.0" encoding="utf-8"?>
<!-- Generator: Adobe Illustrator 16.0.0, SVG Export Plug-In . SVG Version: 6.00 Build 0)  -->
<!DOCTYPE svg PUBLIC "-//W3C//DTD SVG 1.1//EN" "http://www.w3.org/Graphics/SVG/1.1/DTD/svg11.dtd">
<svg version="1.1" id="Layer_1" xmlns="http://www.w3.org/2000/svg" xmlns:xlink="http://www.w3.org/1999/xlink" x="0px" y="0px"
	 width="155.602px" height="155.602px" viewBox="0 0 155.602 155.602" enable-background="new 0 0 155.602 155.602"
	 xml:space="preserve">
<g>
	<defs>
		<rect id="SVGID_1_" width="155.602" height="155.602"/>
	</defs>
	<clipPath id="SVGID_2_">
		<use xlink:href="#SVGID_1_"  overflow="visible"/>
	</clipPath>
	<path clip-path="url(#SVGID_2_)" fill="#FEBD4D" d="M146.524,137.447c-2.062,0-3.941,0.717-5.467,1.879l-29.996-30.449
		c6.75-7.681,10.979-17.592,11.447-28.483h12.477c0.636,4.388,4.385,7.78,8.945,7.78c5.005,0,9.077-4.072,9.077-9.077
		c0-5.004-4.072-9.078-9.077-9.078c-3.606,0-6.703,2.133-8.166,5.188h-13.315c-0.73-10.651-5.066-20.302-11.811-27.771
		l30.143-31.391c1.57,1.296,3.555,2.107,5.743,2.107c5.004,0,9.077-4.072,9.077-9.076c0-5.005-4.073-9.077-9.077-9.077
		c-5.005,0-9.077,4.072-9.077,9.077c0,0.885,0.168,1.723,0.405,2.532l-30.897,32.174c-7.216-6.394-16.41-10.582-26.562-11.471
		V17.244c3.057-1.463,5.188-4.559,5.188-8.167C85.581,4.072,81.508,0,76.504,0s-9.077,4.072-9.077,9.077
		c0,4.56,3.394,8.31,7.78,8.945v14.141c-10.995,0.264-21.042,4.361-28.861,11.03L17.003,13.409c0.71-1.294,1.15-2.755,1.15-4.332
		C18.153,4.072,14.081,0,9.077,0C4.072,0,0,4.072,0,9.077c0,5.004,4.072,9.076,9.077,9.076c1.537,0,2.966-0.42,4.236-1.099
		l29.292,29.731c-7.083,7.553-11.65,17.46-12.403,28.422H17.243c-1.463-3.055-4.559-5.187-8.166-5.187
		C4.072,70.021,0,74.093,0,79.098c0,5.004,4.072,9.076,9.077,9.076c4.56,0,8.31-3.393,8.945-7.78h12.121
		c0.501,11.617,5.273,22.13,12.824,29.997c-0.004,0.013-0.004,0.024-0.007,0.036l-28.044,29.206
		c-1.583-1.343-3.605-2.186-5.838-2.186c-5.005,0-9.077,4.072-9.077,9.077c0,5.004,4.072,9.077,9.077,9.077
		c5.003,0,9.076-4.073,9.076-9.077c0-0.835-0.15-1.629-0.362-2.397l28.966-30.167c7.757,6.459,17.653,10.399,28.452,10.657v12.961
		c-4.388,0.637-7.78,4.387-7.78,8.946c0,5.004,4.072,9.077,9.076,9.077c5.005,0,9.077-4.073,9.077-9.077
		c0-3.607-2.131-6.704-5.187-8.166v-13.891c10.371-0.908,19.744-5.263,27.027-11.896l30.557,31.016
		c-0.32,0.926-0.531,1.904-0.531,2.937c0,5.004,4.072,9.077,9.077,9.077c5.004,0,9.077-4.073,9.077-9.077
		C155.602,141.52,151.528,137.447,146.524,137.447 M80.394,101.053c3.211,0.317,6.339,1.039,9.353,2.08
		c-2.44,7.426-5.839,12.607-9.353,14.707V101.053z M80.394,95.847V80.394h12.922c-0.135,6.569-0.907,12.564-2.146,17.751
		C87.697,96.968,84.093,96.171,80.394,95.847 M80.394,75.207V60.933c3.7-0.324,7.305-1.119,10.776-2.294
		c1.163,4.874,1.918,10.462,2.118,16.568H80.394z M80.394,55.73V38.94c3.514,2.1,6.913,7.282,9.354,14.708
		C86.734,54.689,83.605,55.413,80.394,55.73 M88.043,39.017c5.287,1.576,10.135,4.174,14.299,7.589
		c-2.419,1.984-5.019,3.688-7.781,5.057C92.836,46.527,90.62,42.227,88.043,39.017 M75.207,38.172v17.711
		c-3.832-0.103-7.577-0.709-11.153-1.824C66.882,45.229,71.062,39.469,75.207,38.172 M59.2,52.167
		c-3.171-1.456-6.172-3.294-8.911-5.545c4.585-3.765,10.012-6.516,15.933-8.021C63.416,41.952,61.019,46.585,59.2,52.167
		 M75.207,61.07v14.137H60.648c0.196-5.933,0.918-11.364,2.025-16.138C66.695,60.305,70.905,60.967,75.207,61.07 M75.207,80.394
		v15.317c-4.305,0.102-8.518,0.756-12.535,1.991c-1.18-5.086-1.919-10.921-2.051-17.309H75.207z M75.207,100.898v17.711
		c-4.146-1.299-8.328-7.061-11.157-15.896C67.625,101.599,71.373,101.001,75.207,100.898 M66.222,118.18
		c-5.927-1.506-11.358-4.26-15.946-8.03c2.741-2.255,5.75-4.083,8.923-5.541C61.018,110.193,63.416,114.828,66.222,118.18
		 M94.562,105.112c2.764,1.37,5.36,3.082,7.777,5.065c-4.164,3.412-9.012,6.011-14.298,7.585
		C90.62,114.554,92.838,110.25,94.562,105.112 M106.135,106.6c-3.1-2.618-6.486-4.801-10.097-6.504
		c1.465-5.874,2.324-12.558,2.464-19.702h18.822C116.831,90.522,112.681,99.688,106.135,106.6 M143.931,75.207
		c2.146,0,3.891,1.745,3.891,3.891c0,2.145-1.745,3.89-3.891,3.89c-2.145,0-3.89-1.745-3.89-3.89
		C140.041,76.952,141.786,75.207,143.931,75.207 M98.474,75.207c-0.208-6.702-1.053-12.974-2.437-18.525
		c3.611-1.702,6.998-3.882,10.098-6.5c6.291,6.644,10.382,15.363,11.128,25.025H98.474z M146.524,5.186
		c2.146,0,3.89,1.746,3.89,3.891c0,2.145-1.744,3.89-3.89,3.89s-3.891-1.745-3.891-3.89C142.634,6.932,144.379,5.186,146.524,5.186
		 M72.614,9.077c0-2.146,1.744-3.891,3.89-3.891c2.146,0,3.89,1.746,3.89,3.891c0,2.145-1.744,3.89-3.89,3.89
		C74.358,12.967,72.614,11.222,72.614,9.077 M5.186,9.077c0-2.146,1.745-3.891,3.891-3.891c2.144,0,3.889,1.746,3.889,3.891
		c0,2.145-1.745,3.89-3.889,3.89C6.931,12.967,5.186,11.222,5.186,9.077 M46.508,50.192c3.434,2.904,7.224,5.261,11.271,7.033
		c-1.309,5.417-2.113,11.493-2.315,17.982H35.39C36.135,65.55,40.223,56.834,46.508,50.192 M9.077,82.987
		c-2.146,0-3.891-1.745-3.891-3.89c0-2.146,1.745-3.891,3.891-3.891c2.144,0,3.889,1.745,3.889,3.891
		C12.966,81.242,11.221,82.987,9.077,82.987 M55.437,80.394c0.135,6.929,0.954,13.411,2.34,19.154
		c-4.048,1.771-7.841,4.125-11.276,7.032c-6.536-6.909-10.68-16.066-11.171-26.187H55.437z M9.077,150.414
		c-2.146,0-3.891-1.743-3.891-3.89c0-2.146,1.745-3.891,3.891-3.891c1.414,0,2.644,0.769,3.324,1.901
		c0.001,0.001,0.001,0.003,0.001,0.004c0.35,0.583,0.564,1.257,0.564,1.985C12.966,148.671,11.221,150.414,9.077,150.414
		 M76.504,150.414c-2.146,0-3.89-1.743-3.89-3.89c0-2.146,1.744-3.891,3.89-3.891c2.146,0,3.89,1.745,3.89,3.891
		C80.394,148.671,78.649,150.414,76.504,150.414 M146.524,150.414c-2.146,0-3.891-1.743-3.891-3.89c0-2.146,1.745-3.891,3.891-3.891
		s3.89,1.745,3.89,3.891C150.414,148.671,148.67,150.414,146.524,150.414"/>
</g>
</svg>
