<?xml version="1.0" encoding="utf-8"?>
<!-- Generator: Adobe Illustrator 16.0.0, SVG Export Plug-In . SVG Version: 6.00 Build 0)  -->
<!DOCTYPE svg PUBLIC "-//W3C//DTD SVG 1.1//EN" "http://www.w3.org/Graphics/SVG/1.1/DTD/svg11.dtd">
<svg version="1.1" id="Layer_1" xmlns="http://www.w3.org/2000/svg" xmlns:xlink="http://www.w3.org/1999/xlink" x="0px" y="0px"
	 width="384.001px" height="383.846px" viewBox="0 0 384.001 383.846" enable-background="new 0 0 384.001 383.846"
	 xml:space="preserve">
<g>
	<defs>
		<rect id="SVGID_1_" width="384.001" height="383.846"/>
	</defs>
	<clipPath id="SVGID_2_">
		<use xlink:href="#SVGID_1_"  overflow="visible"/>
	</clipPath>
	<path clip-path="url(#SVGID_2_)" fill="#FDBD4D" d="M296.892,108.061c0,3.105,2.516,5.621,5.621,5.621h29.711
		c7.27,0,7.27-11.242,0-11.242h-29.711C299.407,102.44,296.892,104.955,296.892,108.061"/>
	<path clip-path="url(#SVGID_2_)" fill="#FDBD4D" d="M292.981,89.881c1.277,0,2.559-0.43,3.609-1.312l22.766-19.102
		c5.566-4.672-1.66-13.281-7.227-8.613l-22.762,19.101C285.61,83.108,287.95,89.881,292.981,89.881"/>
	<path clip-path="url(#SVGID_2_)" fill="#FDBD4D" d="M298.13,128.112c-5.567-4.672-12.793,3.941-7.227,8.613l22.762,19.101
		c5.465,4.586,12.856-3.886,7.227-8.613L298.13,128.112z"/>
	<path clip-path="url(#SVGID_2_)" fill="#FDBD4D" d="M382.396,198.178c3.448-3.449,0.968-9.543-3.915-9.594l-21.84-0.234
		l-0.238-21.844c-0.051-4.879-6.141-7.363-9.594-3.914l-28.41,28.41c-0.859,0.86-1.645,1.77-2.355,2.719
		c-13.813-8.305-29.309-13.18-45.371-14.305V18.322c0-15.496-18.738-24.043-30.477-13.964
		c-27.43,23.554-57.226,33.589-77.395,37.859c-21.989,4.652-37.668,3.672-37.817,3.664c-0.004,0-0.007,0-0.015-0.004
		c-0.039,0-0.082-0.004-0.125-0.004c-0.004,0-0.012,0-0.016-0.004c-0.043,0-0.09,0-0.133-0.004h-0.007
		c-0.008-0.003-62.055,0.004-62.09,0c-10.801,0-21.465,2.817-30.84,8.141c-6.317,3.59-0.766,13.367,5.554,9.773
		c7.684-4.363,16.426-6.671,25.286-6.671h56.375V159.69H62.599c-39.141,0.339-64.336-43.555-44.297-77.137
		c3.672-6.274-6.031-11.949-9.703-5.676c-25.266,43.324,8.429,97.055,58.343,94.051l-15.836,84.058
		c-1.652,8.754,3.141,17.543,11.395,20.896l41.84,17.004c12.137,4.93,25.875-4.313,25.875-17.418v-61.695
		c19.847-2.344,35.629-18.149,37.937-38.008c13.332,3.226,28.619,8.512,44.153,17.14c-89.371,52.36-53.848,189.806,51.18,190.938
		c78.577,0.707,128.84-87.98,87.781-154.898C351.724,229.252,381.177,199.233,382.396,198.178 M345.31,179.994l0.148,13.977
		c0.031,3.055,2.504,5.526,5.559,5.558l13.977,0.153l-18.957,18.957c-5.246,5.246-14.426,5.258-19.688,0
		c-5.367-5.371-5.367-14.32,0-19.688L345.31,179.994z M115.638,281.74c-2.121,1.426-4.696,1.692-7.063,0.731l-41.844-17.004
		c-3.316-1.349-5.242-4.879-4.578-8.398l16.231-86.137h40.59v104.539C118.974,278.026,117.759,280.311,115.638,281.74
		 M130.216,202.424v-31.603c5.5,0.051,15,0.516,26.875,2.625C155.849,188.178,144.618,200.108,130.216,202.424 M130.216,159.553
		V57.221c6.887-0.059,19.195-0.715,34.5-3.918c21.562-4.516,53.438-15.195,82.806-40.418c4.597-3.945,11.909-0.649,11.909,5.437
		v160.922c-12.371,0.485-24.184,3.176-35.059,7.688C184.278,162.365,144.946,159.623,130.216,159.553 M354.579,281.506
		c-5.004,120.852-177.207,120.819-182.191,0c-0.625-70.578,79.554-115.211,139.093-77.398c-1.156,6.128-0.023,12.609,3.395,18.054
		l-9.383,9.384c-41.602-35.563-107.547-5.285-107.313,49.961c-0.43,49.453,54.719,81.616,97.484,56.793
		c6.316-3.595,0.758-13.367-5.559-9.773c-35.402,20.543-81.043-6.086-80.684-47.02c-0.211-45.271,53.488-70.523,88.09-41.98
		l-18.422,18.421c-18.422-12.449-44.012,1.165-43.875,23.56c0,15.586,12.681,28.266,28.266,28.266
		c22.395,0.132,36.008-25.453,23.559-43.875l18.422-18.422c14.185,16.672,16.185,43.761,3.922,62.543
		c-3.848,6.168,5.691,12.117,9.535,5.949c15.059-23.035,12.293-56.359-5.477-76.474l9.383-9.379
		c5.34,3.349,11.867,4.56,18.059,3.396C349.856,247.916,354.579,264.424,354.579,281.506 M280.509,281.506
		c-0.938,22.586-33.121,22.578-34.051,0c-0.219-12.32,13.473-20.871,24.414-15.341l-11.363,11.363
		c-5.141,5.142,2.809,13.09,7.949,7.95l11.363-11.364C279.903,276.354,280.509,278.862,280.509,281.506"/>
</g>
</svg>
