<?xml version="1.0" encoding="utf-8"?>
<!-- Generator: Adobe Illustrator 16.0.0, SVG Export Plug-In . SVG Version: 6.00 Build 0)  -->
<!DOCTYPE svg PUBLIC "-//W3C//DTD SVG 1.1//EN" "http://www.w3.org/Graphics/SVG/1.1/DTD/svg11.dtd">
<svg version="1.1" id="Layer_1" xmlns="http://www.w3.org/2000/svg" xmlns:xlink="http://www.w3.org/1999/xlink" x="0px" y="0px"
	 width="185.02px" height="185.01px" viewBox="0 0 185.02 185.01" enable-background="new 0 0 185.02 185.01" xml:space="preserve">
<g>
	<defs>
		<rect id="SVGID_1_" width="185.019" height="185.01"/>
	</defs>
	<clipPath id="SVGID_2_">
		<use xlink:href="#SVGID_1_"  overflow="visible"/>
	</clipPath>
	<path clip-path="url(#SVGID_2_)" fill="#FEBD4D" d="M18.511,24.232l6.115,11.005c2.719,4.896,7.878,7.932,13.479,7.932h35.91v3.651
		c-4.248,1.501-6.795,5.844-6.034,10.285c0.763,4.44,4.613,7.687,9.118,7.687c4.505,0,8.355-3.246,9.118-7.687
		c0.761-4.44-1.787-8.783-6.035-10.285v-3.651h35.911c5.6,0,10.759-3.035,13.478-7.932l6.115-11.005v31.271h6.167V9.25
		c0-5.109-4.142-9.25-9.251-9.25H21.594c-5.109,0-9.25,4.142-9.25,9.25v83.254h6.167V24.232z M77.097,58.586
		c-1.247,0-2.371-0.751-2.849-1.903c-0.478-1.152-0.213-2.479,0.669-3.36c0.881-0.881,2.208-1.146,3.36-0.668
		s1.903,1.602,1.903,2.849C80.181,57.205,78.799,58.586,77.097,58.586 M21.594,6.167H132.6c1.702,0,3.084,1.381,3.084,3.083v2.284
		l-11.506,20.709c-1.631,2.937-4.727,4.758-8.087,4.758H80.181v-3.651c4.248-1.501,6.796-5.844,6.035-10.285
		c-0.763-4.44-4.613-7.687-9.118-7.687c-4.505,0-8.355,3.246-9.118,7.687c-0.761,4.44,1.787,8.783,6.034,10.285v3.651h-35.91
		c-3.361,0-6.457-1.821-8.088-4.758L18.511,11.535V9.25C18.511,7.548,19.892,6.167,21.594,6.167 M74.014,24.668
		c0-1.247,0.751-2.371,1.903-2.849s2.479-0.213,3.36,0.668s1.146,2.208,0.668,3.36c-0.478,1.152-1.602,1.903-2.849,1.903
		C75.395,27.751,74.014,26.37,74.014,24.668"/>
	<path clip-path="url(#SVGID_2_)" fill="#FEBD4D" d="M184.116,87.241l-24.668-24.668c-0.578-0.578-1.362-0.903-2.18-0.903h-55.503
		c-5.108,0-9.25,4.142-9.25,9.25v3.083h6.167V70.92c0-1.702,1.381-3.083,3.083-3.083h52.42v15.417c0,5.109,4.142,9.25,9.25,9.25
		h15.418v83.254c0,1.702-1.382,3.084-3.084,3.084h-64.753v6.167h64.753c5.109,0,9.251-4.142,9.251-9.251V89.421
		C185.02,88.604,184.694,87.819,184.116,87.241 M160.352,83.254V72.197l14.141,14.141h-11.058
		C161.733,86.338,160.352,84.957,160.352,83.254"/>
	<rect x="111.015" y="74.004" clip-path="url(#SVGID_2_)" fill="#FEBD4D" width="6.167" height="6.167"/>
	<rect x="123.349" y="74.004" clip-path="url(#SVGID_2_)" fill="#FEBD4D" width="12.334" height="6.167"/>
	<rect x="111.015" y="86.338" clip-path="url(#SVGID_2_)" fill="#FEBD4D" width="24.668" height="6.167"/>
	<rect x="148.017" y="111.006" clip-path="url(#SVGID_2_)" fill="#FEBD4D" width="18.501" height="6.167"/>
	<rect x="148.017" y="123.34" clip-path="url(#SVGID_2_)" fill="#FEBD4D" width="18.501" height="6.167"/>
	<rect x="148.017" y="135.674" clip-path="url(#SVGID_2_)" fill="#FEBD4D" width="18.501" height="6.167"/>
	<rect x="148.017" y="148.008" clip-path="url(#SVGID_2_)" fill="#FEBD4D" width="18.501" height="6.167"/>
	<rect x="148.017" y="160.342" clip-path="url(#SVGID_2_)" fill="#FEBD4D" width="18.501" height="6.167"/>
	<path clip-path="url(#SVGID_2_)" fill="#FEBD4D" d="M139.267,161.177l2.584-28.306c0.026-0.297,0.01-0.594-0.051-0.885
		l-4.189-20.904c-1.441-7.211-7.771-12.404-15.125-12.41h-1.881c-4.323-0.074-8.147,2.799-9.28,6.972
		c-0.692,2.763-0.078,5.689,1.667,7.938c1.746,2.251,4.428,3.576,7.274,3.592v20.601c-2.938-1.36-6.131-2.077-9.367-2.1
		c-3.711,0.034-7.343,1.076-10.507,3.016c-2.688-1.601-5.697-2.592-8.811-2.905c-0.715-0.074-1.432-0.11-2.15-0.11h-6.167v-3.337
		c5.711-3.313,9.861-8.774,11.523-15.164h0.811c5.109,0,9.251-4.142,9.251-9.25c0-5.109-4.142-9.251-9.251-9.251v-6.167
		c0-13.623-11.045-24.668-24.668-24.668c-13.623,0-24.668,11.045-24.668,24.668v6.167c-5.109,0-9.25,4.142-9.25,9.251
		c0,5.108,4.142,9.25,9.25,9.25h0.811c1.662,6.39,5.812,11.851,11.523,15.164v3.337h-6.167c-3.858-0.006-7.646,1.036-10.96,3.014
		c-3.168-1.938-6.801-2.979-10.513-3.014c-3.238-0.006-6.437,0.711-9.361,2.1v-20.601c4.2-0.072,7.846-2.911,8.941-6.966
		c0.695-2.763,0.081-5.691-1.664-7.941c-1.744-2.253-4.429-3.578-7.277-3.594h-2.22c-7.346,0.014-13.665,5.201-15.109,12.404
		l-4.193,20.897c-0.066,0.294-0.086,0.597-0.063,0.897l2.572,28.306c0.414,4.782,4.431,8.443,9.229,8.416h25.202v12.334
		c0,1.701,1.381,3.083,3.083,3.083h61.67c1.702,0,3.084-1.382,3.084-3.083v-12.334h25.202
		C134.844,169.614,138.854,165.953,139.267,161.177 M118.074,110.063c-0.774-0.753-1.073-1.871-0.782-2.911
		c0.459-1.427,1.814-2.373,3.313-2.313h1.881c4.409,0.012,8.201,3.126,9.066,7.45l0.978,4.884h-6.097v-3.084
		c0-1.701-1.381-3.083-3.083-3.083h-3.084C119.437,111.008,118.642,110.667,118.074,110.063 M86.729,141.841l-2.158,5.406
		l-5.282-1.759l-1.132-2.269l2.75-1.379H86.729z M73.345,147.392l-2.415,2.423l-2.415-2.415l1.234-2.465h2.354L73.345,147.392z
		 M69.318,156.723c0.959,0.702,2.265,0.702,3.224,0l3.953,22.12H65.379L69.318,156.723z M98.682,107.923
		c0,1.701-1.382,3.083-3.084,3.083v-6.167C97.3,104.839,98.682,106.221,98.682,107.923 M70.93,74.004
		c10.214,0.01,18.491,8.287,18.501,18.501v2.991c-2.405-0.416-4.34-2.21-4.935-4.579l-1.331-5.326
		c-0.387-1.498-1.827-2.476-3.362-2.287c-1.534,0.188-2.692,1.485-2.707,3.033c0,5.109-4.142,9.251-9.25,9.251H52.429v-3.084
		C52.439,82.291,60.716,74.014,70.93,74.004 M43.179,107.923c0-1.702,1.381-3.084,3.083-3.084v6.167
		C44.56,111.006,43.179,109.624,43.179,107.923 M52.429,111.006v-9.251h15.417c4.73-0.002,9.197-2.174,12.117-5.892
		c2.049,3.337,5.565,5.501,9.467,5.824v9.318c0,10.218-8.283,18.501-18.501,18.501C60.712,129.507,52.429,121.224,52.429,111.006
		 M70.93,135.674c2.082-0.008,4.154-0.279,6.167-0.811v1.989l-3.81,1.904h-4.713l-3.811-1.904v-1.989
		C66.777,135.395,68.849,135.666,70.93,135.674 M60.953,141.841l2.756,1.379l-1.132,2.269l-5.281,1.759l-2.164-5.406H60.953z
		 M19.375,104.839h2.22c0.829-0.002,1.624,0.339,2.192,0.943c0.774,0.753,1.074,1.871,0.783,2.911
		c-0.459,1.427-1.814,2.373-3.314,2.313h-2.745c-1.702,0-3.083,1.382-3.083,3.083v3.084H9.331l0.981-4.891
		C11.174,107.958,14.966,104.843,19.375,104.839 M40.095,163.425H11.81c-1.6,0.007-2.939-1.212-3.083-2.806l-2.534-27.862
		l1.901-9.417h7.333v20.165c0,1.219,0.717,2.32,1.827,2.816c1.112,0.496,2.411,0.291,3.316-0.521
		c2.809-2.54,6.46-3.951,10.246-3.959h0.097c3.146,0.042,6.191,1.103,8.686,3.02c1.092,0.814,2.591,0.814,3.684,0
		c1.622-1.185,3.459-2.042,5.409-2.52l3.96,9.885c0.606,1.514,2.289,2.293,3.834,1.776l7.444-2.467l0.044,0.044l-4.876,27.264
		h-15.92v-12.334C43.179,164.807,41.797,163.425,40.095,163.425 M101.765,163.425c-1.702,0-3.083,1.382-3.083,3.084v12.334h-15.92
		l-4.876-27.264l0.044-0.044l7.444,2.467c1.546,0.517,3.229-0.263,3.834-1.776l3.974-9.917c1.945,0.494,3.778,1.359,5.392,2.552
		c1.096,0.82,2.604,0.82,3.699,0c2.492-1.915,5.533-2.974,8.672-3.02c3.813,0.034,7.484,1.439,10.345,3.959
		c0.906,0.813,2.204,1.018,3.316,0.521c1.11-0.496,1.827-1.598,1.827-2.816V123.34h7.334l1.889,9.417l-2.533,27.862
		c-0.146,1.594-1.483,2.813-3.084,2.806H101.765z"/>
	<rect x="58.596" y="104.839" clip-path="url(#SVGID_2_)" fill="#FEBD4D" width="6.167" height="6.167"/>
	<rect x="77.097" y="104.839" clip-path="url(#SVGID_2_)" fill="#FEBD4D" width="6.167" height="6.167"/>
</g>
</svg>
