<?xml version="1.0" encoding="utf-8"?>
<!-- Generator: Adobe Illustrator 16.0.0, SVG Export Plug-In . SVG Version: 6.00 Build 0)  -->
<!DOCTYPE svg PUBLIC "-//W3C//DTD SVG 1.1//EN" "http://www.w3.org/Graphics/SVG/1.1/DTD/svg11.dtd">
<svg version="1.1" id="Capa_1" xmlns="http://www.w3.org/2000/svg" xmlns:xlink="http://www.w3.org/1999/xlink" x="0px" y="0px"
	 width="300px" height="300px" viewBox="0 0 300 300" enable-background="new 0 0 300 300" xml:space="preserve">
<g>
	<g>
		<polygon fill="#FFFFFF" points="236.538,128.365 63.462,128.365 53.077,174.52 246.923,174.52 		"/>
	</g>
</g>
<g>
	<g>
		<path fill="#FFFFFF" d="M274.038,38.942H25.962C11.646,38.942,0,50.589,0,64.904v83.654c0,14.315,11.646,25.962,25.962,25.962
			h9.375l12.759-56.708c0.888-3.949,4.395-6.754,8.443-6.754h186.923c4.048,0,7.554,2.805,8.442,6.754l12.76,56.708h9.375
			c14.314,0,25.961-11.646,25.961-25.962V64.904C300,50.589,288.354,38.942,274.038,38.942z M196.154,99.519h-11.539
			c-4.779,0-8.653-3.875-8.653-8.654c0-4.779,3.874-8.653,8.653-8.653h11.539c4.779,0,8.653,3.875,8.653,8.653
			C204.808,95.645,200.934,99.519,196.154,99.519z M236.538,99.519H225c-4.779,0-8.654-3.875-8.654-8.654
			c0-4.779,3.875-8.653,8.654-8.653h11.538c4.78,0,8.653,3.875,8.653,8.653C245.191,95.645,241.318,99.519,236.538,99.519z"/>
	</g>
</g>
<g>
	<g>
		<path fill="#FFFFFF" d="M155.77,213.94c0-2.41,0.449-3.159,1.65-5.161c1.641-2.733,4.118-6.863,4.118-14.067
			c0-4.78-3.874-8.653-8.653-8.653s-8.654,3.874-8.654,8.653c0,2.409-0.45,3.159-1.651,5.161c-1.64,2.732-4.118,6.863-4.118,14.067
			s2.478,11.335,4.117,14.068c1.202,2.003,1.652,2.753,1.652,5.163s-0.45,3.161-1.652,5.164c-1.64,2.732-4.117,6.863-4.117,14.068
			c0,4.779,3.875,8.653,8.653,8.653c4.779,0,8.654-3.875,8.654-8.653c0-2.412,0.449-3.162,1.651-5.164
			c1.64-2.732,4.117-6.863,4.117-14.068s-2.478-11.335-4.117-14.068C156.219,217.102,155.77,216.352,155.77,213.94z"/>
	</g>
</g>
<g>
	<g>
		<path fill="#FFFFFF" d="M109.615,213.94c0-2.41,0.45-3.159,1.651-5.161c1.64-2.733,4.118-6.863,4.118-14.067
			c0-4.78-3.875-8.653-8.654-8.653s-8.654,3.874-8.654,8.653c0,2.409-0.449,3.159-1.651,5.161c-1.64,2.732-4.118,6.863-4.118,14.067
			s2.478,11.335,4.117,14.068c1.202,2.003,1.652,2.753,1.652,5.163s-0.449,3.161-1.652,5.164c-1.639,2.732-4.117,6.863-4.117,14.068
			c0,4.779,3.875,8.653,8.654,8.653c4.779,0,8.653-3.875,8.653-8.653c0-2.412,0.45-3.162,1.652-5.164
			c1.64-2.732,4.118-6.863,4.118-14.068s-2.478-11.335-4.118-14.068C110.065,217.102,109.615,216.352,109.615,213.94z"/>
	</g>
</g>
<g>
	<g>
		<path fill="#FFFFFF" d="M201.923,213.94c0-2.41,0.449-3.159,1.651-5.161c1.64-2.733,4.117-6.863,4.117-14.067
			c0-4.78-3.874-8.653-8.653-8.653c-4.778,0-8.653,3.874-8.653,8.653c0,2.409-0.449,3.159-1.651,5.161
			c-1.64,2.732-4.118,6.863-4.118,14.067s2.479,11.335,4.117,14.068c1.202,2.003,1.652,2.753,1.652,5.163s-0.449,3.161-1.652,5.164
			c-1.639,2.732-4.117,6.863-4.117,14.068c0,4.779,3.875,8.653,8.654,8.653c4.778,0,8.653-3.875,8.653-8.653
			c0-2.412,0.449-3.162,1.651-5.164c1.64-2.732,4.117-6.863,4.117-14.068s-2.478-11.335-4.117-14.068
			C202.373,217.102,201.923,216.352,201.923,213.94z"/>
	</g>
</g>
</svg>
