<?xml version="1.0" encoding="utf-8"?>
<!-- Generator: Adobe Illustrator 16.0.0, SVG Export Plug-In . SVG Version: 6.00 Build 0)  -->
<!DOCTYPE svg PUBLIC "-//W3C//DTD SVG 1.1//EN" "http://www.w3.org/Graphics/SVG/1.1/DTD/svg11.dtd">
<svg version="1.1" id="Layer_1" xmlns="http://www.w3.org/2000/svg" xmlns:xlink="http://www.w3.org/1999/xlink" x="0px" y="0px"
	 width="206.48px" height="206.48px" viewBox="0 0 206.48 206.48" enable-background="new 0 0 206.48 206.48" xml:space="preserve">
<g>
	<defs>
		<rect id="SVGID_1_" width="206.48" height="206.48"/>
	</defs>
	<clipPath id="SVGID_2_">
		<use xlink:href="#SVGID_1_"  overflow="visible"/>
	</clipPath>
	<path clip-path="url(#SVGID_2_)" fill="#FFFFFF" d="M103.24,117.786c-0.342-0.002-27.018-0.258-53.17-4.768
		C27.229,109.079,0,101.107,0,85.501c0-8.51,10.195-16.487,28.707-22.461c0.136-0.044,0.26-0.064,0.383-0.064
		c0.527,0,1.012,0.357,1.177,0.868c0.137,0.423,0.012,0.771-0.074,0.941c-0.087,0.169-0.296,0.474-0.723,0.612
		C12.319,70.933,2.483,78.261,2.483,85.501c0,9.315,12.099,16.917,35.959,22.593c18.973,4.514,43.196,7.209,64.798,7.209
		c19.577,0,44.15-2.645,62.604-6.734c25.316-5.613,38.153-13.374,38.153-23.067c0-9.636-16.138-16.512-25.757-19.753
		c-0.424-0.143-0.63-0.452-0.715-0.623c-0.085-0.173-0.207-0.523-0.064-0.945c0.17-0.503,0.649-0.853,1.169-0.853
		c0.126,0,0.252,0.021,0.373,0.063c17.729,5.965,27.478,13.814,27.478,22.11c0,15.606-27.229,23.578-50.07,27.518
		C130.258,117.528,103.582,117.784,103.24,117.786"/>
	<path clip-path="url(#SVGID_2_)" fill="#FFFFFF" d="M103.24,206.48c-26.358,0-52.476-3.269-71.654-8.966
		C11.217,191.462,0,183.181,0,174.195V85.501c0-0.685,0.558-1.242,1.242-1.242c0.684,0,1.241,0.557,1.241,1.242v88.694
		c0,10.141,17.766,17.208,28.356,20.52c19.147,5.985,44.86,9.281,72.401,9.281s53.254-3.296,72.401-9.281
		c10.59-3.312,28.355-10.379,28.355-20.52V85.501c0-0.685,0.557-1.242,1.241-1.242s1.242,0.557,1.242,1.242v88.694
		c0,8.985-11.218,17.267-31.586,23.319C155.716,203.212,129.599,206.48,103.24,206.48"/>
	<path clip-path="url(#SVGID_2_)" fill="#FFFFFF" d="M28.827,196.634c-0.237,0-0.583-0.063-0.882-0.365
		c-0.48-0.486-0.476-1.276,0.012-1.762l30.853-30.595c1.658-1.654,3.808-2.562,6.062-2.562c2.26,0,4.417,0.91,6.074,2.563
		l17.694,16.896c1.223,1.211,2.725,1.903,4.129,1.903c0.13,0,0.259-0.006,0.388-0.019c1.554-0.071,3.01-0.762,4.222-2.006
		l26.128-27.119c1.802-1.791,4.065-2.776,6.378-2.776c2.088,0,4.023,0.786,5.598,2.271l0.081,0.075l43.877,38.654
		c0.342,0.298,0.411,0.66,0.424,0.85c0.012,0.192-0.012,0.565-0.308,0.899c-0.327,0.372-0.728,0.427-0.938,0.427
		c-0.209,0-0.517-0.053-0.797-0.303l-43.986-38.755c-1.171-1.064-2.559-1.627-4.016-1.627c-1.614,0-3.216,0.705-4.507,1.986
		l-26.144,27.139c-1.72,1.757-3.93,2.744-6.207,2.764c0,0-0.219,0.005-0.3,0.005c-2.195,0-3.961-0.794-5.726-2.574l-17.703-16.902
		c-1.237-1.23-2.787-1.906-4.369-1.906c-1.563,0-3.086,0.657-4.289,1.853l-30.867,30.615
		C29.401,196.571,29.061,196.634,28.827,196.634"/>
	<path clip-path="url(#SVGID_2_)" fill="#FFFFFF" d="M89.936,153.264c-5.576,0-10.111-4.536-10.111-10.111
		c0-5.576,4.536-10.111,10.111-10.111s10.111,4.535,10.111,10.111C100.047,148.728,95.512,153.264,89.936,153.264 M89.936,135.525
		c-4.206,0-7.628,3.421-7.628,7.627c0,4.205,3.422,7.628,7.628,7.628s7.627-3.423,7.627-7.628
		C97.563,138.946,94.142,135.525,89.936,135.525"/>
	<path clip-path="url(#SVGID_2_)" fill="#FFFFFF" d="M169.761,110.246c-0.685,0-1.242-0.558-1.242-1.242V89.403
		c0-0.685,0.558-1.242,1.242-1.242s1.242,0.557,1.242,1.242v19.601C171.003,109.688,170.445,110.246,169.761,110.246"/>
	<path clip-path="url(#SVGID_2_)" fill="#FFFFFF" d="M36.72,110.246c-0.685,0-1.242-0.558-1.242-1.242V91.976
		c0-0.685,0.558-1.242,1.242-1.242s1.242,0.557,1.242,1.242v17.028C37.961,109.688,37.404,110.246,36.72,110.246"/>
	<path clip-path="url(#SVGID_2_)" fill="#FFFFFF" d="M94.371,73.439c-3.13,0-5.676-2.547-5.676-5.677V32.285
		c0-3.13,2.546-5.676,5.676-5.676h17.739c0.686,0,1.242,0.556,1.242,1.241s-0.557,1.242-1.242,1.242H91.178v19.69h16.497
		c3.13,0,5.677,2.546,5.677,5.676v13.304c0,3.13-2.547,5.677-5.677,5.677H94.371z M91.178,70.955h19.69v-19.69h-19.69V70.955z"/>
	<path clip-path="url(#SVGID_2_)" fill="#FFFFFF" d="M134.283,73.438c-3.13,0-5.677-2.546-5.677-5.677V32.285
		c0-3.13,2.547-5.677,5.677-5.677h13.304c3.131,0,5.677,2.546,5.677,5.677v35.477c0,3.131-2.546,5.677-5.677,5.677H134.283z
		 M129.842,70.955l7.634,0.015v-0.015h13.304V29.091H131.09v35.478h-1.241L129.842,70.955z"/>
	<path clip-path="url(#SVGID_2_)" fill="#FFFFFF" d="M54.458,73.439c-0.685,0-1.242-0.557-1.242-1.242s0.557-1.242,1.242-1.242
		h16.497v-19.69H54.458c-0.685,0-1.242-0.557-1.242-1.242c0-0.685,0.557-1.242,1.242-1.242h13.304c3.13,0,5.676,2.546,5.676,5.676
		v13.304c0,3.13-2.546,5.677-5.676,5.677H54.458z"/>
	<path clip-path="url(#SVGID_2_)" fill="#FFFFFF" d="M54.458,51.265c-0.685,0-1.242-0.557-1.242-1.242
		c0-0.685,0.557-1.242,1.242-1.242h16.497v-19.69H54.458c-0.685,0-1.242-0.557-1.242-1.242s0.557-1.241,1.242-1.241h13.304
		c3.13,0,5.676,2.546,5.676,5.676v13.304c0,3.13-2.546,5.676-5.676,5.676H54.458z"/>
	<path clip-path="url(#SVGID_2_)" fill="#FFFFFF" d="M178.63,20.222c-5.575,0-10.111-4.536-10.111-10.111S173.055,0,178.63,0
		c5.576,0,10.111,4.536,10.111,10.111S184.206,20.222,178.63,20.222 M178.63,2.483c-4.205,0-7.627,3.421-7.627,7.627
		s3.422,7.628,7.627,7.628c4.206,0,7.628-3.422,7.628-7.628S182.836,2.483,178.63,2.483"/>
</g>
</svg>
