<?xml version="1.0" encoding="utf-8"?>
<!-- Generator: Adobe Illustrator 16.0.0, SVG Export Plug-In . SVG Version: 6.00 Build 0)  -->
<!DOCTYPE svg PUBLIC "-//W3C//DTD SVG 1.1//EN" "http://www.w3.org/Graphics/SVG/1.1/DTD/svg11.dtd">
<svg version="1.1" id="Layer_1" xmlns="http://www.w3.org/2000/svg" xmlns:xlink="http://www.w3.org/1999/xlink" x="0px" y="0px"
	 width="404.847px" height="511.004px" viewBox="0 0 404.847 511.004" enable-background="new 0 0 404.847 511.004"
	 xml:space="preserve">
<g>
	<defs>
		<rect id="SVGID_1_" width="404.847" height="511.004"/>
	</defs>
	<clipPath id="SVGID_2_">
		<use xlink:href="#SVGID_1_"  overflow="visible"/>
	</clipPath>
	<path clip-path="url(#SVGID_2_)" fill="#FFFFFF" d="M275.371,3.953C273.027,1.484,269.816,0,266.488,0H67.144
		C30.363,0,0,30.242,0,67.023v376.954c0,36.785,30.363,67.027,67.144,67.027h270.559c36.781,0,67.144-30.242,67.144-67.027V144.66
		c0-3.207-1.479-6.293-3.578-8.64L275.371,3.953z M278.949,43.574l84.304,88.496h-54.8c-16.293,0-29.504-13.082-29.504-29.375
		V43.574z M337.703,486.315H67.144c-23.078,0-42.457-19.128-42.457-42.339V67.023c0-23.078,19.254-42.335,42.457-42.335h187.121
		v78.007c0,29.993,24.195,54.063,54.188,54.063h71.711v287.219C380.164,467.188,360.906,486.315,337.703,486.315"/>
	<path clip-path="url(#SVGID_2_)" fill="#FFFFFF" d="M304.007,401.152H100.839c-6.785,0-12.339,5.551-12.339,12.344
		c0,6.785,5.554,12.34,12.339,12.34h203.293c6.785,0,12.344-5.555,12.344-12.34C316.476,406.703,310.917,401.152,304.007,401.152"/>
	<path clip-path="url(#SVGID_2_)" fill="#FFFFFF" d="M193.414,356.84c2.347,2.469,5.554,3.949,9.011,3.949s6.664-1.48,9.008-3.949
		l72.332-77.637c4.692-4.941,4.32-12.84-0.616-17.406c-4.938-4.688-12.837-4.32-17.402,0.617l-50.981,54.68V182.309
		c0-6.789-5.555-12.344-12.34-12.344c-6.789,0-12.343,5.555-12.343,12.344v134.785l-50.856-54.68
		c-4.687-4.935-12.469-5.305-17.402-0.617c-4.938,4.691-5.305,12.469-0.617,17.406L193.414,356.84z"/>
</g>
</svg>
