<?xml version="1.0" encoding="utf-8"?>
<!-- Generator: Adobe Illustrator 16.0.0, SVG Export Plug-In . SVG Version: 6.00 Build 0)  -->
<!DOCTYPE svg PUBLIC "-//W3C//DTD SVG 1.1//EN" "http://www.w3.org/Graphics/SVG/1.1/DTD/svg11.dtd">
<svg version="1.1" id="Layer_1" xmlns="http://www.w3.org/2000/svg" xmlns:xlink="http://www.w3.org/1999/xlink" x="0px" y="0px"
	 width="407.857px" height="140.462px" viewBox="0 0 407.857 140.462" enable-background="new 0 0 407.857 140.462"
	 xml:space="preserve">
<g>
	<polygon fill="#1E386A" points="116.681,36.376 122.275,36.376 122.275,66.082 118.8,66.082 118.8,66.124 103.206,46.081 
		103.206,66.082 97.612,66.082 97.612,36.418 102.146,36.418 116.681,54.81 	"/>
	<polygon fill="#1E386A" points="155.451,66.082 133.246,66.082 133.246,36.418 155.451,36.418 155.451,41.842 138.797,41.842 
		138.797,48.666 154.858,48.666 154.858,53.877 138.797,53.877 138.797,60.572 155.451,60.572 	"/>
	<polygon fill="#1E386A" points="185.916,66.124 185.916,54.132 171.338,54.132 171.338,66.124 165.745,66.124 165.745,36.461 
		171.338,36.461 171.338,48.962 185.916,48.962 185.916,36.461 191.467,36.461 191.467,66.124 	"/>
	<g>
		<defs>
			<rect id="SVGID_1_" width="407.857" height="140.462"/>
		</defs>
		<clipPath id="SVGID_2_">
			<use xlink:href="#SVGID_1_"  overflow="visible"/>
		</clipPath>
		<path clip-path="url(#SVGID_2_)" fill="#1E386A" d="M228.966,66.082h-6.653l-8.645-9.916h-5.382v9.916h-5.594V36.377
			c4.704,0,9.408,0.042,14.112,0.042c6.991,0.042,10.678,4.704,10.678,9.831c0,4.068-1.865,8.178-7.501,9.323l8.984,10.127V66.082z
			 M208.286,41.631v9.492h8.519c3.559,0,5.084-2.373,5.084-4.746s-1.567-4.746-5.084-4.746H208.286z"/>
		<path clip-path="url(#SVGID_2_)" fill="#1E386A" d="M264.09,36.461v16.993c0,8.771-5.382,13.263-12.84,13.263
			c-7.119,0-13.178-4.322-13.178-13.263V36.461h5.551v16.993c0,5.339,3.05,8.178,7.669,8.178s7.246-3.093,7.246-8.178V36.461H264.09
			z"/>
		<path clip-path="url(#SVGID_2_)" fill="#1E386A" d="M127.07,85.625c0,2.792-1.344,5.48-4.705,6.98
			c4.24,1.293,5.791,5.792,5.791,8.067c0,8.066-6.05,10.652-13.548,10.652H97.439V75.127h17.169
			C121.744,75.127,127.07,78.334,127.07,85.625 M104.162,89.658h10.446c4.292,0,5.688-1.811,5.688-3.879
			c0-1.654-1.344-4.446-5.688-4.446h-10.446V89.658z M104.162,104.965h10.446c2.792,0,6.774-0.932,6.774-4.344
			c0-3.259-3.982-4.965-6.774-4.965h-10.446V104.965z"/>
		<rect x="134.835" y="91.572" clip-path="url(#SVGID_2_)" fill="#2AA2DC" width="13.21" height="5.792"/>
		<path clip-path="url(#SVGID_2_)" fill="#1E386A" d="M178.983,83.866c-1.241-2.069-4.654-4.033-8.584-4.033
			c-5.068,0-7.498,2.12-7.498,4.81c0,3.153,3.723,4.033,8.067,4.55c7.55,0.931,14.583,2.896,14.583,11.532
			c0,8.066-7.137,11.531-15.204,11.531c-7.395,0-13.083-2.274-15.772-8.895l5.689-2.947c1.602,3.982,5.791,5.74,10.187,5.74
			c4.292,0,8.325-1.5,8.325-5.43c0-3.413-3.568-4.81-8.377-5.326c-7.395-0.879-14.221-2.844-14.221-10.963
			c0-7.447,7.343-10.498,14.014-10.549c5.637,0,11.48,1.603,14.221,7.188L178.983,83.866z"/>
		<path clip-path="url(#SVGID_2_)" fill="#1E386A" d="M396.268,83.866c-1.241-2.069-4.654-4.033-8.584-4.033
			c-5.068,0-7.498,2.12-7.498,4.81c0,3.153,3.723,4.033,8.067,4.55c7.55,0.931,14.583,2.896,14.583,11.532
			c0,8.066-7.138,11.531-15.204,11.531c-7.396,0-13.083-2.274-15.772-8.895l5.689-2.947c1.602,3.982,5.791,5.74,10.187,5.74
			c4.292,0,8.325-1.5,8.325-5.43c0-3.413-3.568-4.81-8.377-5.326c-7.396-0.879-14.221-2.844-14.221-10.963
			c0-7.447,7.343-10.498,14.014-10.549c5.637,0,11.479,1.603,14.221,7.188L396.268,83.866z"/>
		<polygon clip-path="url(#SVGID_2_)" fill="#1E386A" points="251.217,111.377 251.217,96.743 233.429,96.743 233.429,111.377 
			226.603,111.377 226.603,75.179 233.429,75.179 233.429,90.434 251.217,90.434 251.217,75.179 257.99,75.179 257.99,111.377 		"/>
		<polygon clip-path="url(#SVGID_2_)" fill="#1E386A" points="352.405,75.127 352.405,105.017 368.805,105.017 368.805,111.325 
			345.579,111.325 345.579,75.127 		"/>
		<path clip-path="url(#SVGID_2_)" fill="#1E386A" d="M281.047,81.921c6.263,0,11.357,5.095,11.357,11.357
			c0,6.262-5.095,11.357-11.357,11.357c-6.262,0-11.356-5.096-11.356-11.357C269.69,87.016,274.785,81.921,281.047,81.921
			 M281.047,74.739c-10.238,0-18.539,8.3-18.539,18.539c0,10.238,8.301,18.538,18.539,18.538c10.239,0,18.539-8.3,18.539-18.538
			C299.586,83.039,291.286,74.739,281.047,74.739"/>
		<path clip-path="url(#SVGID_2_)" fill="#1E386A" d="M215.572,100.725c-2.084,2.391-5.142,3.91-8.555,3.91
			c-6.262,0-11.357-5.095-11.357-11.356c0-6.263,5.095-11.357,11.357-11.357c3.842,0,7.238,1.922,9.295,4.851l6.223-3.631
			c-3.31-5.059-9.021-8.401-15.518-8.401c-10.238,0-18.538,8.3-18.538,18.539c0,10.238,8.3,18.538,18.538,18.538
			c5.8,0,10.975-2.664,14.375-6.834L215.572,100.725z"/>
		<path clip-path="url(#SVGID_2_)" fill="#1E386A" d="M322.015,81.921c6.263,0,11.357,5.095,11.357,11.357
			c0,6.262-5.095,11.357-11.357,11.357c-6.262,0-11.356-5.096-11.356-11.357C310.658,87.016,315.753,81.921,322.015,81.921
			 M322.015,74.739c-10.239,0-18.539,8.3-18.539,18.539c0,10.238,8.3,18.538,18.539,18.538s18.539-8.3,18.539-18.538
			C340.554,83.039,332.254,74.739,322.015,74.739"/>
		<polygon clip-path="url(#SVGID_2_)" fill="#179848" points="36.617,65.539 70.071,56.695 36.617,0 3.567,56.695 		"/>
		<path clip-path="url(#SVGID_2_)" fill="#2AA2DC" d="M36.618,72.904L0,62.557v67.88l4.149-0.029c16.736,0,30.166,8.521,30.301,8.61
			l2.168,1.445l1.948-1.401c11.459-8.248,27.089-8.666,30.105-8.666c0.489,0,0.772,0.009,0.804,0.01l3.921,0.158V63.5L36.618,72.904
			z M7.537,72.537l25.13,7.152v49.985c-5.494-2.652-14.467-6.08-25.13-6.704V72.537z M65.859,122.93
			c-5.596,0.268-17.244,2.229-25.678,7.164l0.022-50.357l25.656-6.539V122.93z"/>
		<g clip-path="url(#SVGID_2_)">
			<text transform="matrix(1 0 0 1 97.6128 132.2119)"><tspan x="0" y="0" fill="#657382" font-family="'NexaBold'" font-size="10.877" letter-spacing="5">NE</tspan><tspan x="22.537" y="0" fill="#657382" font-family="'NexaBold'" font-size="10.877" letter-spacing="5">H</tspan><tspan x="34.632" y="0" fill="#657382" font-family="'NexaBold'" font-size="10.877" letter-spacing="5">R</tspan><tspan x="45.727" y="0" fill="#657382" font-family="'NexaBold'" font-size="10.877" letter-spacing="5">U </tspan><tspan x="65.098" y="0" fill="#657382" font-family="'NexaBold'" font-size="10.877" letter-spacing="4">G</tspan><tspan x="77.03" y="0" fill="#657382" font-family="'NexaBold'" font-size="10.877" letter-spacing="5">ROUP O</tspan><tspan x="143.085" y="0" fill="#657382" font-family="'NexaBold'" font-size="10.877" letter-spacing="5">F</tspan><tspan x="153.386" y="0" fill="#657382" font-family="'NexaBold'" font-size="10.877" letter-spacing="5"> </tspan><tspan x="160.707" y="0" fill="#657382" font-family="'NexaBold'" font-size="10.877" letter-spacing="5">I</tspan><tspan x="168.309" y="0" fill="#657382" font-family="'NexaBold'" font-size="10.877" letter-spacing="5">N</tspan><tspan x="180.6" y="0" fill="#657382" font-family="'NexaBold'" font-size="10.877" letter-spacing="5">ST</tspan><tspan x="201.397" y="0" fill="#657382" font-family="'NexaBold'" font-size="10.877" letter-spacing="5">I</tspan><tspan x="209.348" y="0" fill="#657382" font-family="'NexaBold'" font-size="10.877" letter-spacing="5">T</tspan><tspan x="219.997" y="0" fill="#657382" font-family="'NexaBold'" font-size="10.877" letter-spacing="5">UT</tspan><tspan x="242.468" y="0" fill="#657382" font-family="'NexaBold'" font-size="10.877" letter-spacing="5">I</tspan><tspan x="250.299" y="0" fill="#657382" font-family="'NexaBold'" font-size="10.877" letter-spacing="5">O</tspan><tspan x="262.808" y="0" fill="#657382" font-family="'NexaBold'" font-size="10.877" letter-spacing="5">N</tspan><tspan x="275.088" y="0" fill="#657382" font-family="'NexaBold'" font-size="10.877">S</tspan></text>
		</g>
	</g>
</g>
</svg>
