<?xml version="1.0" encoding="utf-8"?>
<!-- Generator: Adobe Illustrator 16.0.0, SVG Export Plug-In . SVG Version: 6.00 Build 0)  -->
<!DOCTYPE svg PUBLIC "-//W3C//DTD SVG 1.1//EN" "http://www.w3.org/Graphics/SVG/1.1/DTD/svg11.dtd">
<svg version="1.1" id="Layer_1" xmlns="http://www.w3.org/2000/svg" xmlns:xlink="http://www.w3.org/1999/xlink" x="0px" y="0px"
	 width="215.978px" height="74.381px" viewBox="0 0 215.978 74.381" enable-background="new 0 0 215.978 74.381"
	 xml:space="preserve">
<g>
	<polygon fill="#FFFFFF" points="61.788,19.263 64.75,19.263 64.75,34.994 62.91,34.994 62.91,35.016 54.652,24.402 54.652,34.994 
		51.69,34.994 51.69,19.286 54.09,19.286 61.788,29.024 	"/>
	<polygon fill="#FFFFFF" points="82.318,34.994 70.559,34.994 70.559,19.286 82.318,19.286 82.318,22.158 73.499,22.158 
		73.499,25.771 82.003,25.771 82.003,28.531 73.499,28.531 73.499,32.076 82.318,32.076 	"/>
	<polygon fill="#FFFFFF" points="98.45,35.016 98.45,28.666 90.731,28.666 90.731,35.016 87.769,35.016 87.769,19.308 
		90.731,19.308 90.731,25.928 98.45,25.928 98.45,19.308 101.39,19.308 101.39,35.016 	"/>
	<g>
		<defs>
			<rect id="SVGID_1_" y="0" width="215.978" height="74.381"/>
		</defs>
		<clipPath id="SVGID_2_">
			<use xlink:href="#SVGID_1_"  overflow="visible"/>
		</clipPath>
		<path clip-path="url(#SVGID_2_)" fill="#FFFFFF" d="M121.247,34.994h-3.523l-4.578-5.251h-2.85v5.251h-2.962v-15.73
			c2.491,0,4.982,0.022,7.473,0.022c3.702,0.022,5.654,2.491,5.654,5.206c0,2.154-0.987,4.33-3.972,4.937l4.758,5.363V34.994z
			 M110.296,22.045v5.026h4.511c1.885,0,2.692-1.256,2.692-2.513s-0.83-2.514-2.692-2.514H110.296z"/>
		<path clip-path="url(#SVGID_2_)" fill="#FFFFFF" d="M139.847,19.308v8.999c0,4.645-2.85,7.022-6.8,7.022
			c-3.771,0-6.978-2.288-6.978-7.022v-8.999h2.939v8.999c0,2.826,1.615,4.33,4.061,4.33c2.446,0,3.838-1.638,3.838-4.33v-8.999
			H139.847z"/>
		<path clip-path="url(#SVGID_2_)" fill="#FFFFFF" d="M67.289,45.342c0,1.479-0.712,2.902-2.491,3.696
			c2.245,0.685,3.066,3.067,3.066,4.272c0,4.271-3.204,5.641-7.174,5.641h-9.091V39.783h9.091
			C64.468,39.783,67.289,41.481,67.289,45.342 M55.158,47.478h5.532c2.273,0,3.012-0.959,3.012-2.054
			c0-0.876-0.712-2.354-3.012-2.354h-5.532V47.478z M55.158,55.583h5.532c1.479,0,3.587-0.493,3.587-2.3
			c0-1.726-2.109-2.63-3.587-2.63h-5.532V55.583z"/>
		<rect x="71.401" y="48.492" clip-path="url(#SVGID_2_)" fill="#FFFFFF" width="6.995" height="3.067"/>
		<path clip-path="url(#SVGID_2_)" fill="#FFFFFF" d="M94.778,44.412c-0.656-1.097-2.464-2.136-4.545-2.136
			c-2.684,0-3.971,1.122-3.971,2.546c0,1.671,1.972,2.136,4.271,2.41c3.998,0.492,7.723,1.532,7.723,6.106
			c0,4.271-3.779,6.105-8.051,6.105c-3.916,0-6.928-1.203-8.352-4.71l3.013-1.561c0.848,2.109,3.066,3.04,5.394,3.04
			c2.273,0,4.408-0.794,4.408-2.875c0-1.808-1.889-2.547-4.436-2.82c-3.916-0.466-7.531-1.506-7.531-5.806
			c0-3.943,3.889-5.56,7.421-5.586c2.984,0,6.078,0.849,7.53,3.806L94.778,44.412z"/>
		<path clip-path="url(#SVGID_2_)" fill="#FFFFFF" d="M209.839,44.412c-0.656-1.097-2.463-2.136-4.545-2.136
			c-2.684,0-3.971,1.122-3.971,2.546c0,1.671,1.972,2.136,4.273,2.41c3.996,0.492,7.721,1.532,7.721,6.106
			c0,4.271-3.779,6.105-8.051,6.105c-3.916,0-6.928-1.203-8.352-4.71l3.012-1.561c0.849,2.109,3.067,3.04,5.395,3.04
			c2.273,0,4.408-0.794,4.408-2.875c0-1.808-1.889-2.547-4.436-2.82c-3.916-0.466-7.53-1.506-7.53-5.806
			c0-3.943,3.889-5.56,7.421-5.586c2.984,0,6.08,0.849,7.531,3.806L209.839,44.412z"/>
		<polygon clip-path="url(#SVGID_2_)" fill="#FFFFFF" points="133.029,58.979 133.029,51.23 123.61,51.23 123.61,58.979 
			119.995,58.979 119.995,39.811 123.61,39.811 123.61,47.888 133.029,47.888 133.029,39.811 136.616,39.811 136.616,58.979 		"/>
		<polygon clip-path="url(#SVGID_2_)" fill="#FFFFFF" points="186.613,39.783 186.613,55.612 195.297,55.612 195.297,58.952 
			182.999,58.952 182.999,39.783 		"/>
		<path clip-path="url(#SVGID_2_)" fill="#FFFFFF" d="M148.825,43.381c3.317,0,6.015,2.697,6.015,6.014s-2.697,6.015-6.015,6.015
			c-3.315,0-6.013-2.698-6.013-6.015S145.51,43.381,148.825,43.381 M148.825,39.579c-5.422,0-9.816,4.395-9.816,9.816
			s4.395,9.816,9.816,9.816c5.423,0,9.818-4.395,9.818-9.816S154.248,39.579,148.825,39.579"/>
		<path clip-path="url(#SVGID_2_)" fill="#FFFFFF" d="M114.154,53.338c-1.104,1.266-2.722,2.07-4.53,2.07
			c-3.316,0-6.014-2.697-6.014-6.014s2.697-6.014,6.014-6.014c2.035,0,3.833,1.018,4.922,2.568l3.295-1.923
			c-1.752-2.679-4.777-4.448-8.217-4.448c-5.421,0-9.816,4.395-9.816,9.816s4.396,9.816,9.816,9.816c3.072,0,5.812-1.41,7.612-3.619
			L114.154,53.338z"/>
		<path clip-path="url(#SVGID_2_)" fill="#FFFFFF" d="M170.521,43.381c3.315,0,6.014,2.697,6.014,6.014s-2.698,6.015-6.014,6.015
			c-3.316,0-6.015-2.698-6.015-6.015S167.204,43.381,170.521,43.381 M170.521,39.579c-5.423,0-9.817,4.395-9.817,9.816
			s4.395,9.816,9.817,9.816c5.422,0,9.816-4.395,9.816-9.816S175.942,39.579,170.521,39.579"/>
		<polygon clip-path="url(#SVGID_2_)" fill="#FFFFFF" points="19.39,34.706 37.105,30.023 19.39,0 1.889,30.023 		"/>
		<path clip-path="url(#SVGID_2_)" fill="#FFFFFF" d="M19.391,38.606L0,33.126v35.946l2.197-0.016
			c8.862,0,15.974,4.512,16.045,4.559l1.148,0.766l1.032-0.742c6.068-4.367,14.345-4.589,15.942-4.589
			c0.259,0,0.409,0.005,0.425,0.006l2.077,0.083V33.626L19.391,38.606z M3.991,38.412l13.308,3.787v26.47
			c-2.909-1.404-7.661-3.219-13.308-3.55V38.412z M34.875,65.096c-2.963,0.142-9.131,1.181-13.598,3.794l0.012-26.666l13.586-3.463
			V65.096z"/>
		<g clip-path="url(#SVGID_2_)">
			<text transform="matrix(1 0 0 1 51.6899 70.0122)"><tspan x="0" y="0" fill="#FFFFFF" font-family="'NexaBold'" font-size="5.7598" letter-spacing="2">NE</tspan><tspan x="11.934" y="0" fill="#FFFFFF" font-family="'NexaBold'" font-size="5.7598" letter-spacing="2">H</tspan><tspan x="18.339" y="0" fill="#FFFFFF" font-family="'NexaBold'" font-size="5.7598" letter-spacing="2">R</tspan><tspan x="24.214" y="0" fill="#FFFFFF" font-family="'NexaBold'" font-size="5.7598" letter-spacing="2">U </tspan><tspan x="34.472" y="0" fill="#FFFFFF" font-family="'NexaBold'" font-size="5.7598" letter-spacing="2">G</tspan><tspan x="40.791" y="0" fill="#FFFFFF" font-family="'NexaBold'" font-size="5.7598" letter-spacing="2">ROUP O</tspan><tspan x="75.77" y="0" fill="#FFFFFF" font-family="'NexaBold'" font-size="5.7598" letter-spacing="2">F</tspan><tspan x="81.225" y="0" fill="#FFFFFF" font-family="'NexaBold'" font-size="5.7598" letter-spacing="2"> I</tspan><tspan x="89.127" y="0" fill="#FFFFFF" font-family="'NexaBold'" font-size="5.7598" letter-spacing="2">N</tspan><tspan x="95.635" y="0" fill="#FFFFFF" font-family="'NexaBold'" font-size="5.7598" letter-spacing="2">ST</tspan><tspan x="106.648" y="0" fill="#FFFFFF" font-family="'NexaBold'" font-size="5.7598" letter-spacing="2">I</tspan><tspan x="110.858" y="0" fill="#FFFFFF" font-family="'NexaBold'" font-size="5.7598" letter-spacing="2">T</tspan><tspan x="116.497" y="0" fill="#FFFFFF" font-family="'NexaBold'" font-size="5.7598" letter-spacing="2">UT</tspan><tspan x="128.397" y="0" fill="#FFFFFF" font-family="'NexaBold'" font-size="5.7598" letter-spacing="2">I</tspan><tspan x="132.543" y="0" fill="#FFFFFF" font-family="'NexaBold'" font-size="5.7598" letter-spacing="2">O</tspan><tspan x="139.168" y="0" fill="#FFFFFF" font-family="'NexaBold'" font-size="5.7598" letter-spacing="2">N</tspan><tspan x="145.67" y="0" fill="#FFFFFF" font-family="'NexaBold'" font-size="5.7598">S</tspan></text>
		</g>
	</g>
</g>
</svg>
