<?xml version="1.0" encoding="utf-8"?>
<!-- Generator: Adobe Illustrator 24.3.0, SVG Export Plug-In . SVG Version: 6.00 Build 0)  -->
<svg version="1.1" id="Layer_1" xmlns="http://www.w3.org/2000/svg" xmlns:xlink="http://www.w3.org/1999/xlink" x="0px" y="0px"
	 viewBox="0 0 407.86 140.46" style="enable-background:new 0 0 407.86 140.46;" xml:space="preserve">
<style type="text/css">
	.st0{fill:#1E386A;}
	.st1{fill:#28A1DB;}
	.st2{fill:#159748;}
	.st3{font-family:'MyriadPro-Regular';}
	.st4{font-size:12.2324px;}
	.st5{letter-spacing:0.99;}
</style>
<path class="st0" d="M122.97,27.29h5.34v28.38h-3.32v0.04l-14.9-19.15v19.11h-5.34V27.33h4.33l13.88,17.57V27.29z"/>
<path class="st0" d="M160,55.66h-21.21c0-9.43,0-18.9,0-28.34H160v5.18H144.1v6.52h15.34V44H144.1v6.4H160V55.66z"/>
<path class="st0" d="M189.11,55.7V44.25h-13.92V55.7h-5.34V27.37h5.34v11.94h13.92V27.37h5.3V55.7H189.11z"/>
<path class="st0" d="M230.23,55.66h-6.36l-8.26-9.47h-5.14v9.47h-5.34V27.29c4.49,0,8.99,0.04,13.48,0.04
	c6.68,0.04,10.2,4.49,10.2,9.39c0,3.89-1.78,7.81-7.17,8.91l8.58,9.67V55.66z M210.48,32.3v9.07h8.14c3.4,0,4.86-2.27,4.86-4.53
	c0-2.27-1.5-4.53-4.86-4.53H210.48z"/>
<path class="st0" d="M263.78,27.37V43.6c0,8.38-5.14,12.67-12.27,12.67c-6.8,0-12.59-4.13-12.59-12.67V27.37h5.3V43.6
	c0,5.1,2.91,7.81,7.33,7.81c4.41,0,6.92-2.95,6.92-7.81V27.37H263.78z"/>
<path class="st0" d="M132.89,74.33c0,2.67-1.28,5.24-4.5,6.67c4.05,1.24,5.53,5.53,5.53,7.71c0,7.71-5.78,10.18-12.94,10.18
	c-5.48,0-10.92,0-16.4,0V64.3c5.43,0,10.92,0,16.4,0C127.8,64.3,132.89,67.36,132.89,74.33z M111.01,78.18h9.98
	c4.1,0,5.43-1.73,5.43-3.71c0-1.58-1.28-4.25-5.43-4.25h-9.98V78.18z M111.01,92.8h9.98c2.67,0,6.47-0.89,6.47-4.15
	c0-3.11-3.8-4.74-6.47-4.74h-9.98V92.8z"/>
<path class="st1" d="M140.31,80.01h12.62v5.53h-12.62V80.01z"/>
<path class="st0" d="M182.48,72.65c-1.19-1.98-4.45-3.85-8.2-3.85c-4.84,0-7.16,2.03-7.16,4.59c0,3.01,3.56,3.85,7.71,4.35
	c7.21,0.89,13.93,2.77,13.93,11.02c0,7.71-6.82,11.02-14.52,11.02c-7.06,0-12.5-2.17-15.07-8.5l5.43-2.82
	c1.53,3.8,5.53,5.48,9.73,5.48c4.1,0,7.95-1.43,7.95-5.19c0-3.26-3.41-4.59-8-5.09c-7.06-0.84-13.58-2.72-13.58-10.47
	c0-7.11,7.01-10.03,13.39-10.08c5.38,0,10.97,1.53,13.58,6.87L182.48,72.65z"/>
<path class="st0" d="M390.05,72.65c-1.19-1.98-4.45-3.85-8.2-3.85c-4.84,0-7.16,2.03-7.16,4.59c0,3.01,3.56,3.85,7.71,4.35
	c7.21,0.89,13.93,2.77,13.93,11.02c0,7.71-6.82,11.02-14.52,11.02c-7.06,0-12.5-2.17-15.07-8.5l5.43-2.82
	c1.53,3.8,5.53,5.48,9.73,5.48c4.1,0,7.95-1.43,7.95-5.19c0-3.26-3.41-4.59-8-5.09c-7.06-0.84-13.58-2.72-13.58-10.47
	c0-7.11,7.01-10.03,13.39-10.08c5.38,0,10.97,1.53,13.58,6.87L390.05,72.65z"/>
<path class="st0" d="M251.48,98.93V84.95h-16.99v13.98h-6.52V64.35h6.52v14.57h16.99V64.35h6.47v34.58H251.48z"/>
<path class="st0" d="M348.15,64.3v28.55h15.67v6.03h-22.19V64.3H348.15z"/>
<path class="st0" d="M279.98,70.79c5.98,0,10.85,4.87,10.85,10.85s-4.87,10.85-10.85,10.85c-5.98,0-10.85-4.87-10.85-10.85
	S274,70.79,279.98,70.79 M279.98,63.93c-9.78,0-17.71,7.93-17.71,17.71s7.93,17.71,17.71,17.71c9.78,0,17.71-7.93,17.71-17.71
	S289.76,63.93,279.98,63.93L279.98,63.93z"/>
<path class="st0" d="M217.44,88.75c-1.99,2.28-4.91,3.74-8.17,3.74c-5.98,0-10.85-4.87-10.85-10.85c0-5.98,4.87-10.85,10.85-10.85
	c3.67,0,6.91,1.84,8.88,4.63l5.95-3.47c-3.16-4.83-8.62-8.02-14.82-8.02c-9.78,0-17.71,7.93-17.71,17.71
	c0,9.78,7.93,17.71,17.71,17.71c5.54,0,10.48-2.55,13.73-6.53L217.44,88.75z"/>
<path class="st0" d="M319.11,70.79c5.98,0,10.85,4.87,10.85,10.85s-4.87,10.85-10.85,10.85c-5.98,0-10.85-4.87-10.85-10.85
	S313.13,70.79,319.11,70.79 M319.11,63.93c-9.78,0-17.71,7.93-17.71,17.71s7.93,17.71,17.71,17.71c9.78,0,17.71-7.93,17.71-17.71
	S328.9,63.93,319.11,63.93L319.11,63.93z"/>
<polygon class="st2" points="50.52,65.75 82.48,57.3 50.52,3.14 18.95,57.3 "/>
<path class="st1" d="M50.52,72.78L15.54,62.9v64.84l3.96-0.03c15.99,0,28.82,8.14,28.95,8.22l2.07,1.38l1.86-1.34
	c10.95-7.88,25.88-8.28,28.76-8.28c0.47,0,0.74,0.01,0.77,0.01l3.74,0.15V63.8L50.52,72.78z M22.74,72.43l24.01,6.83v47.75
	c-5.25-2.53-13.82-5.81-24.01-6.4V72.43z M78.45,120.57c-5.35,0.26-16.47,2.13-24.53,6.84l0.02-48.1l24.51-6.25V120.57z"/>
<g>
	<path d="M110.04,111.55h1.37v7.29h-0.85v0.01l-3.82-4.92v4.91h-1.37v-7.27h1.11l3.56,4.51V111.55z"/>
	<path d="M122.89,118.83h-5.45c0-2.42,0-4.85,0-7.27h5.45v1.33h-4.08v1.67h3.94v1.28h-3.94v1.64h4.08V118.83z"/>
	<path d="M133.69,118.84v-2.94h-3.58v2.94h-1.37v-7.27h1.37v3.07h3.58v-3.07h1.36v7.27H133.69z"/>
	<path d="M147.58,118.83h-1.63l-2.12-2.43h-1.32v2.43h-1.37v-7.29c1.15,0,2.31,0.01,3.46,0.01c1.71,0.01,2.62,1.15,2.62,2.41
		c0,1-0.46,2.01-1.84,2.29l2.2,2.48V118.83z M142.51,112.84v2.33h2.09c0.87,0,1.25-0.58,1.25-1.16c0-0.58-0.38-1.16-1.25-1.16
		H142.51z"/>
	<path d="M159.53,111.57v4.17c0,2.15-1.32,3.25-3.15,3.25c-1.75,0-3.23-1.06-3.23-3.25v-4.17h1.36v4.17c0,1.31,0.75,2.01,1.88,2.01
		c1.13,0,1.78-0.76,1.78-2.01v-4.17H159.53z"/>
	<path d="M177.95,113.34c-0.49-0.47-1.22-0.73-1.85-0.73c-1.56,0-2.5,1.18-2.5,2.68c0,1.19,0.7,2.43,2.5,2.43
		c0.57,0,1.07-0.13,1.64-0.58v-1.29h-1.86v-1.23H179v3.07c-0.72,0.82-1.62,1.31-2.9,1.31c-2.73,0-3.85-1.8-3.85-3.71
		c0-2.05,1.28-3.94,3.85-3.94c0.98,0,1.95,0.37,2.7,1.11L177.95,113.34z"/>
	<path d="M191.26,118.83h-1.63l-2.12-2.43h-1.32v2.43h-1.37v-7.29c1.15,0,2.31,0.01,3.46,0.01c1.71,0.01,2.62,1.15,2.62,2.41
		c0,1-0.46,2.01-1.84,2.29l2.2,2.48V118.83z M186.19,112.84v2.33h2.09c0.87,0,1.25-0.58,1.25-1.16c0-0.58-0.38-1.16-1.25-1.16
		H186.19z"/>
	<path d="M203.76,115.24c-0.02,1.88-1.17,3.76-3.73,3.76c-2.56,0-3.74-1.84-3.74-3.75c0-1.91,1.23-3.83,3.74-3.83
		C202.54,111.41,203.79,113.34,203.76,115.24z M197.64,115.27c0.03,1.19,0.68,2.47,2.39,2.47c1.72,0,2.36-1.29,2.38-2.48
		c0.02-1.23-0.67-2.6-2.38-2.6C198.32,112.66,197.61,114.04,197.64,115.27z"/>
	<path d="M215.94,111.57v4.17c0,2.15-1.32,3.25-3.15,3.25c-1.75,0-3.23-1.06-3.23-3.25v-4.17h1.36v4.17c0,1.31,0.75,2.01,1.88,2.01
		c1.13,0,1.78-0.76,1.78-2.01v-4.17H215.94z"/>
	<path d="M225.5,116.69h-2.06v2.14h-1.37v-7.27c1.14,0,2.29-0.01,3.43-0.01C229.05,111.55,229.06,116.69,225.5,116.69z
		 M223.44,115.43h2.06c1.76,0,1.75-2.58,0-2.58h-2.06V115.43z"/>
	<path d="M247.92,115.24c-0.02,1.88-1.17,3.76-3.73,3.76c-2.56,0-3.74-1.84-3.74-3.75c0-1.91,1.23-3.83,3.74-3.83
		C246.7,111.41,247.94,113.34,247.92,115.24z M241.8,115.27c0.03,1.19,0.68,2.47,2.39,2.47s2.36-1.29,2.38-2.48
		c0.02-1.23-0.67-2.6-2.38-2.6S241.77,114.04,241.8,115.27z"/>
	<path d="M253.72,118.83v-7.26h5.23v1.32h-3.86v1.98h3.65v1.27h-3.65v2.69H253.72z"/>
	<path d="M271.58,118.83v-7.27h1.36v7.27H271.58z"/>
	<path d="M283.8,111.55h1.37v7.29h-0.85v0.01l-3.82-4.92v4.91h-1.37v-7.27h1.11l3.57,4.51V111.55z"/>
	<path d="M295.82,113.31c-0.25-0.42-0.94-0.81-1.73-0.81c-1.02,0-1.51,0.43-1.51,0.97c0,0.63,0.75,0.81,1.62,0.92
		c1.52,0.19,2.93,0.58,2.93,2.32c0,1.62-1.43,2.32-3.06,2.32c-1.49,0-2.63-0.46-3.17-1.79l1.14-0.59c0.32,0.8,1.16,1.15,2.05,1.15
		c0.86,0,1.67-0.3,1.67-1.09c0-0.69-0.72-0.97-1.68-1.07c-1.49-0.18-2.86-0.57-2.86-2.2c0-1.5,1.48-2.11,2.82-2.12
		c1.13,0,2.31,0.32,2.86,1.45L295.82,113.31z"/>
	<path d="M304.87,112.8h-2.31v-1.25c2.1,0,3.88,0,5.99,0v1.25h-2.31v6.03h-1.37V112.8z"/>
	<path d="M314.18,118.83v-7.27h1.36v7.27H314.18z"/>
	<path d="M323.83,112.8h-2.31v-1.25c2.1,0,3.88,0,5.99,0v1.25h-2.31v6.03h-1.37V112.8z"/>
	<path d="M339.73,111.57v4.17c0,2.15-1.32,3.25-3.15,3.25c-1.75,0-3.23-1.06-3.23-3.25v-4.17h1.36v4.17c0,1.31,0.75,2.01,1.88,2.01
		c1.13,0,1.78-0.76,1.78-2.01v-4.17H339.73z"/>
	<path d="M347.74,112.8h-2.31v-1.25c2.1,0,3.88,0,5.99,0v1.25h-2.31v6.03h-1.37V112.8z"/>
	<path d="M357.05,118.83v-7.27h1.36v7.27H357.05z"/>
	<path d="M371.86,115.24c-0.02,1.88-1.17,3.76-3.73,3.76c-2.56,0-3.74-1.84-3.74-3.75c0-1.91,1.23-3.83,3.74-3.83
		C370.63,111.41,371.88,113.34,371.86,115.24z M365.74,115.27c0.03,1.19,0.68,2.47,2.39,2.47s2.36-1.29,2.38-2.48
		c0.02-1.23-0.67-2.6-2.38-2.6S365.71,114.04,365.74,115.27z"/>
	<path d="M382.44,111.55h1.37v7.29h-0.85v0.01l-3.82-4.92v4.91h-1.37v-7.27h1.11l3.57,4.51V111.55z"/>
	<path d="M394.46,113.31c-0.25-0.42-0.94-0.81-1.73-0.81c-1.02,0-1.51,0.43-1.51,0.97c0,0.63,0.75,0.81,1.62,0.92
		c1.52,0.19,2.93,0.58,2.93,2.32c0,1.62-1.43,2.32-3.06,2.32c-1.49,0-2.63-0.46-3.17-1.79l1.14-0.59c0.32,0.8,1.16,1.15,2.05,1.15
		c0.86,0,1.67-0.3,1.67-1.09c0-0.69-0.72-0.97-1.68-1.07c-1.49-0.18-2.86-0.57-2.86-2.2c0-1.5,1.48-2.11,2.82-2.12
		c1.13,0,2.31,0.32,2.86,1.45L394.46,113.31z"/>
</g>
<text transform="matrix(1.0141 0 0 1 105.3669 135.4729)" class="st3 st4 st5">NAAC ACCREDITED I  ISO 9001:2015 CERTIFIED</text>
<rect x="105.37" y="122.74" width="289.25" height="1.11"/>
</svg>
