<?xml version="1.0" encoding="utf-8"?>
<!-- Generator: Adobe Illustrator 24.3.0, SVG Export Plug-In . SVG Version: 6.00 Build 0)  -->
<svg version="1.1" id="Layer_1" xmlns="http://www.w3.org/2000/svg" xmlns:xlink="http://www.w3.org/1999/xlink" x="0px" y="0px"
	 viewBox="0 0 407.86 140.46" style="enable-background:new 0 0 407.86 140.46;" xml:space="preserve">
<style type="text/css">
	.st0{fill:#1E386A;}
	.st1{fill:#28A1DB;}
	.st2{fill:#159748;}
	.st3{fill:#657381;}
	.st4{font-family:'MyriadPro-Regular';}
	.st5{font-size:12.0985px;}
	.st6{letter-spacing:0.99;}
</style>
<path class="st0" d="M121.99,26.86h5.28v28.07h-3.28v0.04l-14.73-18.94v18.9h-5.28V26.9h4.28l13.73,17.38V26.86z"/>
<path class="st0" d="M158.62,54.92h-20.98c0-9.33,0-18.7,0-28.03h20.98v5.12h-15.73v6.45h15.17v4.92h-15.17v6.33h15.73V54.92z"/>
<path class="st0" d="M187.4,54.96V43.63h-13.77v11.33h-5.28V26.94h5.28v11.81h13.77V26.94h5.24v28.03H187.4z"/>
<path class="st0" d="M228.08,54.92h-6.29l-8.17-9.37h-5.08v9.37h-5.28V26.86c4.44,0,8.89,0.04,13.33,0.04
	c6.61,0.04,10.09,4.44,10.09,9.29c0,3.84-1.76,7.73-7.09,8.81l8.49,9.57V54.92z M208.54,31.82v8.97h8.05c3.36,0,4.8-2.24,4.8-4.48
	c0-2.24-1.48-4.48-4.8-4.48H208.54z"/>
<path class="st0" d="M261.26,26.94v16.05c0,8.29-5.08,12.53-12.13,12.53c-6.73,0-12.45-4.08-12.45-12.53V26.94h5.24v16.05
	c0,5.04,2.88,7.73,7.25,7.73c4.36,0,6.85-2.92,6.85-7.73V26.94H261.26z"/>
<path class="st0" d="M131.8,73.39c0,2.64-1.27,5.18-4.45,6.6c4.01,1.22,5.47,5.47,5.47,7.62c0,7.62-5.72,10.06-12.8,10.06
	c-5.42,0-10.8,0-16.22,0v-34.2c5.37,0,10.8,0,16.22,0C126.77,63.47,131.8,66.5,131.8,73.39z M110.16,77.2h9.87
	c4.06,0,5.37-1.71,5.37-3.66c0-1.56-1.27-4.2-5.37-4.2h-9.87V77.2z M110.16,91.66h9.87c2.64,0,6.4-0.88,6.4-4.1
	c0-3.08-3.76-4.69-6.4-4.69h-9.87V91.66z"/>
<path class="st1" d="M139.14,79.01h12.48v5.47h-12.48V79.01z"/>
<path class="st0" d="M180.85,71.73c-1.17-1.95-4.4-3.81-8.11-3.81c-4.79,0-7.08,2-7.08,4.54c0,2.98,3.52,3.81,7.62,4.3
	c7.13,0.88,13.78,2.74,13.78,10.9c0,7.62-6.74,10.89-14.36,10.89c-6.99,0-12.36-2.15-14.9-8.4l5.37-2.78
	c1.51,3.76,5.47,5.42,9.62,5.42c4.06,0,7.87-1.42,7.87-5.13c0-3.22-3.37-4.54-7.91-5.03c-6.99-0.83-13.44-2.69-13.44-10.36
	c0-7.04,6.94-9.92,13.24-9.97c5.33,0,10.85,1.51,13.44,6.79L180.85,71.73z"/>
<path class="st0" d="M386.14,71.73c-1.17-1.95-4.4-3.81-8.11-3.81c-4.79,0-7.08,2-7.08,4.54c0,2.98,3.52,3.81,7.62,4.3
	c7.13,0.88,13.78,2.74,13.78,10.9c0,7.62-6.74,10.89-14.36,10.89c-6.99,0-12.36-2.15-14.9-8.4l5.37-2.78
	c1.51,3.76,5.47,5.42,9.62,5.42c4.06,0,7.87-1.42,7.87-5.13c0-3.22-3.37-4.54-7.91-5.03c-6.99-0.83-13.44-2.69-13.44-10.36
	c0-7.04,6.94-9.92,13.24-9.97c5.33,0,10.85,1.51,13.44,6.79L386.14,71.73z"/>
<path class="st0" d="M249.1,97.72V83.89h-16.81v13.83h-6.45v-34.2h6.45v14.41h16.81V63.52h6.4v34.2H249.1z"/>
<path class="st0" d="M344.7,63.47v28.24h15.49v5.96h-21.94v-34.2H344.7z"/>
<path class="st0" d="M277.28,69.89c5.92,0,10.73,4.81,10.73,10.73c0,5.92-4.81,10.73-10.73,10.73s-10.73-4.81-10.73-10.73
	C266.55,74.7,271.36,69.89,277.28,69.89 M277.28,63.1c-9.67,0-17.52,7.84-17.52,17.52s7.84,17.52,17.52,17.52
	s17.52-7.84,17.52-17.52S286.95,63.1,277.28,63.1L277.28,63.1z"/>
<path class="st0" d="M215.42,87.65c-1.97,2.26-4.86,3.69-8.08,3.69c-5.92,0-10.73-4.81-10.73-10.73c0-5.92,4.81-10.73,10.73-10.73
	c3.63,0,6.84,1.82,8.78,4.58l5.88-3.43c-3.13-4.78-8.52-7.94-14.66-7.94c-9.67,0-17.52,7.84-17.52,17.52
	c0,9.67,7.84,17.52,17.52,17.52c5.48,0,10.37-2.52,13.58-6.46L215.42,87.65z"/>
<path class="st0" d="M315.99,69.89c5.92,0,10.73,4.81,10.73,10.73c0,5.92-4.81,10.73-10.73,10.73s-10.73-4.81-10.73-10.73
	C305.26,74.7,310.07,69.89,315.99,69.89 M315.99,63.1c-9.67,0-17.52,7.84-17.52,17.52s7.84,17.52,17.52,17.52
	s17.52-7.84,17.52-17.52S325.66,63.1,315.99,63.1L315.99,63.1z"/>
<polygon class="st2" points="50.33,64.9 81.94,56.54 50.33,2.98 19.11,56.54 "/>
<path class="st1" d="M50.33,71.86l-34.6-9.78v64.13l3.92-0.03c15.81,0,28.5,8.05,28.63,8.13l2.05,1.36l1.84-1.32
	c10.83-7.79,25.59-8.19,28.44-8.19c0.46,0,0.73,0.01,0.76,0.01l3.7,0.15V62.97L50.33,71.86z M22.86,71.51l23.74,6.76v47.23
	c-5.19-2.51-13.67-5.74-23.74-6.33V71.51z M77.96,119.12c-5.29,0.25-16.29,2.11-24.26,6.77l0.02-47.58l24.24-6.18V119.12z"/>
<g>
	<path class="st3" d="M109.21,110.2h1.36v7.21h-0.84v0.01l-3.78-4.86v4.85h-1.36v-7.19h1.1l3.53,4.46V110.2z"/>
	<path class="st3" d="M121.91,117.4h-5.39c0-2.4,0-4.8,0-7.19h5.39v1.32h-4.04v1.65h3.9v1.26h-3.9v1.62h4.04V117.4z"/>
	<path class="st3" d="M132.6,117.41v-2.91h-3.54v2.91h-1.36v-7.19h1.36v3.03h3.54v-3.03h1.35v7.19H132.6z"/>
	<path class="st3" d="M146.33,117.4h-1.61l-2.1-2.41h-1.31v2.41h-1.36v-7.21c1.14,0,2.28,0.01,3.42,0.01
		c1.7,0.01,2.59,1.14,2.59,2.38c0,0.99-0.45,1.98-1.82,2.26l2.18,2.46V117.4z M141.32,111.47v2.3h2.07c0.86,0,1.23-0.58,1.23-1.15
		c0-0.58-0.38-1.15-1.23-1.15H141.32z"/>
	<path class="st3" d="M158.15,110.22v4.12c0,2.13-1.31,3.22-3.11,3.22c-1.73,0-3.2-1.05-3.2-3.22v-4.12h1.35v4.12
		c0,1.3,0.74,1.98,1.86,1.98c1.12,0,1.76-0.75,1.76-1.98v-4.12H158.15z"/>
	<path class="st3" d="M176.37,111.97c-0.48-0.46-1.2-0.72-1.83-0.72c-1.54,0-2.48,1.17-2.48,2.65c0,1.18,0.69,2.41,2.48,2.41
		c0.57,0,1.06-0.12,1.62-0.58v-1.27h-1.84v-1.21h3.08v3.03c-0.71,0.81-1.6,1.29-2.87,1.29c-2.7,0-3.8-1.78-3.8-3.67
		c0-2.03,1.26-3.9,3.8-3.9c0.97,0,1.93,0.37,2.67,1.1L176.37,111.97z"/>
	<path class="st3" d="M189.54,117.4h-1.61l-2.1-2.41h-1.31v2.41h-1.36v-7.21c1.14,0,2.28,0.01,3.42,0.01
		c1.7,0.01,2.59,1.14,2.59,2.38c0,0.99-0.45,1.98-1.82,2.26l2.18,2.46V117.4z M184.52,111.47v2.3h2.07c0.86,0,1.23-0.58,1.23-1.15
		c0-0.58-0.38-1.15-1.23-1.15H184.52z"/>
	<path class="st3" d="M201.9,113.85c-0.02,1.86-1.16,3.72-3.69,3.72c-2.53,0-3.7-1.82-3.7-3.71c0-1.89,1.21-3.79,3.7-3.79
		C200.69,110.06,201.92,111.97,201.9,113.85z M195.85,113.88c0.03,1.18,0.67,2.45,2.36,2.45c1.7,0,2.33-1.27,2.35-2.46
		c0.02-1.21-0.66-2.57-2.35-2.57C196.51,111.3,195.82,112.66,195.85,113.88z"/>
	<path class="st3" d="M213.94,110.22v4.12c0,2.13-1.31,3.22-3.11,3.22c-1.73,0-3.2-1.05-3.2-3.22v-4.12h1.35v4.12
		c0,1.3,0.74,1.98,1.86,1.98c1.12,0,1.76-0.75,1.76-1.98v-4.12H213.94z"/>
	<path class="st3" d="M223.4,115.29h-2.04v2.12h-1.36v-7.19c1.13,0,2.26-0.01,3.39-0.01C226.91,110.2,226.92,115.29,223.4,115.29z
		 M221.36,114.04h2.04c1.74,0,1.73-2.55,0-2.55h-2.04V114.04z"/>
	<path class="st3" d="M245.58,113.85c-0.02,1.86-1.16,3.72-3.69,3.72c-2.53,0-3.7-1.82-3.7-3.71c0-1.89,1.21-3.79,3.7-3.79
		C244.36,110.06,245.6,111.97,245.58,113.85z M239.52,113.88c0.03,1.18,0.67,2.45,2.36,2.45s2.33-1.27,2.35-2.46
		c0.02-1.21-0.66-2.57-2.35-2.57S239.49,112.66,239.52,113.88z"/>
	<path class="st3" d="M251.31,117.4v-7.18h5.17v1.31h-3.81v1.96h3.61v1.25h-3.61v2.66H251.31z"/>
	<path class="st3" d="M268.97,117.4v-7.19h1.35v7.19H268.97z"/>
	<path class="st3" d="M281.06,110.2h1.36v7.21h-0.84v0.01l-3.78-4.86v4.85h-1.36v-7.19h1.1l3.53,4.46V110.2z"/>
	<path class="st3" d="M292.95,111.95c-0.25-0.41-0.93-0.8-1.71-0.8c-1.01,0-1.49,0.42-1.49,0.96c0,0.63,0.74,0.8,1.6,0.91
		c1.5,0.18,2.9,0.58,2.9,2.29c0,1.6-1.42,2.29-3.02,2.29c-1.47,0-2.6-0.45-3.14-1.77l1.13-0.59c0.32,0.79,1.15,1.14,2.02,1.14
		c0.85,0,1.66-0.3,1.66-1.08c0-0.68-0.71-0.96-1.67-1.06c-1.47-0.18-2.83-0.57-2.83-2.18c0-1.48,1.46-2.09,2.79-2.1
		c1.12,0,2.28,0.32,2.83,1.43L292.95,111.95z"/>
	<path class="st3" d="M301.9,111.44h-2.28v-1.23c2.08,0,3.83,0,5.92,0v1.23h-2.28v5.96h-1.36V111.44z"/>
	<path class="st3" d="M311.11,117.4v-7.19h1.35v7.19H311.11z"/>
	<path class="st3" d="M320.65,111.44h-2.28v-1.23c2.08,0,3.83,0,5.92,0v1.23h-2.28v5.96h-1.36V111.44z"/>
	<path class="st3" d="M336.38,110.22v4.12c0,2.13-1.31,3.22-3.11,3.22c-1.73,0-3.2-1.05-3.2-3.22v-4.12h1.35v4.12
		c0,1.3,0.74,1.98,1.86,1.98c1.12,0,1.76-0.75,1.76-1.98v-4.12H336.38z"/>
	<path class="st3" d="M344.3,111.44h-2.28v-1.23c2.08,0,3.83,0,5.92,0v1.23h-2.28v5.96h-1.36V111.44z"/>
	<path class="st3" d="M353.51,117.4v-7.19h1.35v7.19H353.51z"/>
	<path class="st3" d="M368.15,113.85c-0.02,1.86-1.16,3.72-3.69,3.72c-2.53,0-3.7-1.82-3.7-3.71c0-1.89,1.21-3.79,3.7-3.79
		C366.94,110.06,368.18,111.97,368.15,113.85z M362.1,113.88c0.03,1.18,0.67,2.45,2.36,2.45s2.33-1.27,2.35-2.46
		c0.02-1.21-0.66-2.57-2.35-2.57S362.07,112.66,362.1,113.88z"/>
	<path class="st3" d="M378.62,110.2h1.36v7.21h-0.84v0.01l-3.78-4.86v4.85h-1.36v-7.19h1.1l3.53,4.46V110.2z"/>
	<path class="st3" d="M390.5,111.95c-0.25-0.41-0.93-0.8-1.71-0.8c-1.01,0-1.49,0.42-1.49,0.96c0,0.63,0.74,0.8,1.6,0.91
		c1.5,0.18,2.9,0.58,2.9,2.29c0,1.6-1.42,2.29-3.02,2.29c-1.47,0-2.6-0.45-3.14-1.77l1.13-0.59c0.32,0.79,1.15,1.14,2.02,1.14
		c0.85,0,1.66-0.3,1.66-1.08c0-0.68-0.71-0.96-1.67-1.06c-1.47-0.18-2.83-0.57-2.83-2.18c0-1.48,1.46-2.09,2.79-2.1
		c1.12,0,2.28,0.32,2.83,1.43L390.5,111.95z"/>
</g>
<text transform="matrix(1.0141 0 0 1 104.5807 133.8614)" class="st3 st4 st5 st6">NAAC ACCREDITED I  ISO 9001:2015 CERTIFIED</text>
<rect x="104.58" y="121.27" class="st3" width="286.08" height="1.1"/>
</svg>
