<?xml version="1.0" encoding="utf-8"?>
<!-- Generator: Adobe Illustrator 16.0.0, SVG Export Plug-In . SVG Version: 6.00 Build 0)  -->
<!DOCTYPE svg PUBLIC "-//W3C//DTD SVG 1.1//EN" "http://www.w3.org/Graphics/SVG/1.1/DTD/svg11.dtd">
<svg version="1.1" id="Layer_1" xmlns="http://www.w3.org/2000/svg" xmlns:xlink="http://www.w3.org/1999/xlink" x="0px" y="0px"
	 width="278.873px" height="89.139px" viewBox="0 0 278.873 89.139" enable-background="new 0 0 278.873 89.139"
	 xml:space="preserve">
<g>
	<path fill="#FFFFFF" d="M273.55,22.982c0-0.516-0.139-0.959-0.414-1.333c-0.281-0.373-0.604-0.634-0.973-0.779
		c-0.49-0.197-0.968-0.306-1.438-0.327c-0.465-0.016-1.084-0.029-1.864-0.029h-0.809v5.476h1.35c0.8,0,1.462-0.05,1.981-0.146
		c0.52-0.101,0.955-0.298,1.308-0.59c0.302-0.264,0.523-0.575,0.657-0.939S273.55,23.505,273.55,22.982 M278.423,22.873
		c0,0.817-0.143,1.618-0.428,2.397c-0.289,0.783-0.695,1.441-1.228,1.973c-0.729,0.716-1.542,1.261-2.438,1.629
		c-0.896,0.37-2.011,0.553-3.343,0.553h-2.934v5.954h-4.714V17.104h7.756c1.164,0,2.141,0.101,2.941,0.298
		c0.796,0.201,1.504,0.503,2.115,0.904c0.738,0.482,1.299,1.098,1.688,1.853C278.23,20.913,278.423,21.817,278.423,22.873
		 M258.932,28.764c0,2.258-0.687,3.988-2.062,5.191c-1.374,1.203-3.402,1.806-6.075,1.806c-2.677,0-4.701-0.604-6.071-1.806
		s-2.058-2.928-2.058-5.178V17.104h4.74v11.4c0,1.27,0.264,2.216,0.796,2.836c0.532,0.625,1.395,0.935,2.593,0.935
		c1.177,0,2.036-0.301,2.582-0.896c0.544-0.599,0.816-1.555,0.816-2.875v-11.4h4.738V28.764z M233.081,30.875
		c0.456-0.557,0.796-1.215,1.018-1.969c0.223-0.759,0.331-1.647,0.331-2.673c0-1.093-0.126-2.028-0.382-2.799
		c-0.251-0.767-0.586-1.391-0.992-1.864c-0.419-0.49-0.901-0.846-1.441-1.068c-0.544-0.222-1.114-0.331-1.701-0.331
		c-0.599,0-1.16,0.105-1.688,0.319c-0.527,0.213-1.014,0.565-1.453,1.055c-0.411,0.46-0.742,1.089-1.002,1.898
		c-0.261,0.804-0.386,1.738-0.386,2.802c0,1.089,0.122,2.015,0.373,2.782c0.252,0.767,0.578,1.387,0.988,1.873
		c0.411,0.482,0.889,0.838,1.438,1.069c0.549,0.226,1.122,0.343,1.73,0.343c0.604,0,1.182-0.117,1.73-0.352
		C232.192,31.726,232.67,31.366,233.081,30.875 M239.328,26.246c0,2.917-0.834,5.229-2.506,6.943
		c-1.668,1.713-3.976,2.572-6.921,2.572c-2.938,0-5.242-0.859-6.914-2.572c-1.668-1.714-2.501-4.027-2.501-6.943
		c0-2.937,0.833-5.258,2.501-6.963c1.672-1.709,3.977-2.56,6.914-2.56c2.928,0,5.232,0.851,6.908,2.56
		C238.49,20.988,239.328,23.309,239.328,26.246 M219.493,35.379h-5.757l-4.986-6.703h-2.17v6.703h-4.688V17.104h7.902
		c1.081,0,2.011,0.059,2.786,0.185c0.778,0.122,1.508,0.385,2.187,0.795c0.688,0.411,1.231,0.938,1.639,1.588
		c0.406,0.653,0.607,1.471,0.607,2.452c0,1.349-0.314,2.45-0.938,3.301c-0.629,0.851-1.521,1.558-2.681,2.124L219.493,35.379z
		 M212.14,22.701c0-0.461-0.097-0.854-0.28-1.182c-0.188-0.326-0.516-0.582-0.973-0.771c-0.317-0.13-0.69-0.21-1.114-0.239
		c-0.428-0.029-0.922-0.046-1.487-0.046h-1.705v4.923h1.445c0.754,0,1.387-0.038,1.895-0.109c0.506-0.075,0.93-0.243,1.272-0.502
		c0.327-0.255,0.57-0.537,0.721-0.842C212.064,23.627,212.14,23.217,212.14,22.701 M197.668,34.336
		c-0.816,0.318-1.901,0.637-3.251,0.951c-1.354,0.314-2.698,0.474-4.039,0.474c-3.109,0-5.543-0.847-7.303-2.535
		c-1.76-1.688-2.64-4.027-2.64-7.005c0-2.837,0.889-5.128,2.665-6.868c1.771-1.738,4.248-2.605,7.424-2.605
		c1.203,0,2.351,0.109,3.436,0.323c1.09,0.218,2.301,0.649,3.633,1.295v4.286h-0.527c-0.227-0.171-0.562-0.415-1.006-0.729
		c-0.44-0.319-0.867-0.587-1.273-0.805c-0.479-0.264-1.031-0.49-1.664-0.674c-0.637-0.189-1.307-0.285-2.02-0.285
		c-0.838,0-1.592,0.122-2.271,0.369c-0.679,0.247-1.29,0.624-1.831,1.13c-0.515,0.491-0.922,1.115-1.22,1.869
		c-0.301,0.759-0.448,1.634-0.448,2.623c0,2.02,0.536,3.565,1.604,4.639c1.073,1.072,2.657,1.608,4.752,1.608
		c0.181,0,0.382-0.004,0.595-0.012c0.218-0.009,0.419-0.021,0.595-0.038v-3.583h-3.645v-3.449h8.434V34.336z M168.503,28.764
		c0,2.258-0.687,3.988-2.062,5.191c-1.374,1.203-3.401,1.806-6.074,1.806c-2.678,0-4.702-0.604-6.072-1.806
		c-1.369-1.203-2.057-2.928-2.057-5.178V17.104h4.739v11.4c0,1.27,0.263,2.216,0.796,2.836c0.531,0.625,1.396,0.935,2.594,0.935
		c1.177,0,2.035-0.301,2.58-0.896c0.545-0.599,0.817-1.555,0.817-2.875v-11.4h4.738V28.764z M150.437,35.379h-5.757l-4.986-6.703
		h-2.17v6.703h-4.688V17.104h7.902c1.081,0,2.011,0.059,2.786,0.185c0.779,0.122,1.508,0.385,2.188,0.795
		c0.687,0.411,1.23,0.938,1.638,1.588c0.406,0.653,0.607,1.471,0.607,2.452c0,1.349-0.313,2.45-0.938,3.301
		c-0.629,0.851-1.521,1.558-2.682,2.124L150.437,35.379z M143.084,22.701c0-0.461-0.098-0.854-0.281-1.182
		c-0.188-0.326-0.516-0.582-0.973-0.771c-0.318-0.13-0.691-0.21-1.114-0.239c-0.427-0.029-0.921-0.046-1.487-0.046h-1.705v4.923
		h1.445c0.754,0,1.387-0.038,1.895-0.109c0.507-0.075,0.93-0.243,1.273-0.502c0.327-0.255,0.569-0.537,0.721-0.842
		C143.008,23.627,143.084,23.217,143.084,22.701 M128.172,35.379h-4.713v-8.052h-6.96v8.052h-4.713V17.104h4.713v6.688h6.96v-6.688
		h4.713V35.379z M107.83,35.379H94.611V17.104h13.219v3.533h-8.531v3.155h7.915v3.536h-7.915v4.517h8.531V35.379z M89.944,35.379
		h-4.542l-7.755-12.544v12.544h-4.32V17.104h5.631l6.666,10.471V17.104h4.32V35.379z"/>
	<path fill="#FFFFFF" d="M278.873,50.921c0,1.445-0.612,2.618-1.839,3.519c-1.223,0.904-2.883,1.354-4.984,1.354
		c-1.216,0-2.275-0.108-3.176-0.319c-0.904-0.215-1.748-0.484-2.537-0.813v-3.516h0.413c0.783,0.625,1.657,1.102,2.624,1.439
		c0.969,0.336,1.899,0.5,2.793,0.5c0.229,0,0.531-0.017,0.905-0.057c0.376-0.04,0.679-0.104,0.917-0.198
		c0.289-0.118,0.524-0.266,0.713-0.443c0.188-0.175,0.282-0.437,0.282-0.787c0-0.322-0.138-0.598-0.41-0.833
		c-0.272-0.232-0.672-0.41-1.196-0.535c-0.551-0.131-1.133-0.255-1.748-0.37c-0.615-0.113-1.189-0.262-1.728-0.437
		c-1.233-0.403-2.12-0.943-2.665-1.629c-0.541-0.686-0.81-1.54-0.81-2.558c0-1.364,0.611-2.478,1.834-3.341
		c1.225-0.864,2.8-1.293,4.723-1.293c0.965,0,1.919,0.09,2.86,0.279c0.941,0.188,1.758,0.423,2.447,0.705v3.374h-0.403
		c-0.593-0.469-1.315-0.866-2.172-1.186c-0.857-0.316-1.73-0.478-2.625-0.478c-0.315,0-0.629,0.024-0.941,0.064
		c-0.309,0.044-0.611,0.125-0.9,0.243c-0.256,0.097-0.473,0.249-0.658,0.446c-0.186,0.202-0.275,0.431-0.275,0.686
		c0,0.387,0.147,0.686,0.443,0.89c0.296,0.209,0.854,0.397,1.673,0.569c0.538,0.111,1.057,0.218,1.55,0.322
		c0.498,0.108,1.028,0.252,1.601,0.433c1.122,0.371,1.952,0.872,2.486,1.503C278.604,49.085,278.873,49.909,278.873,50.921
		 M263.393,55.529h-3.644l-6.221-10.062v10.062h-3.466V40.868h4.518l5.348,8.399v-8.399h3.465V55.529z M242.165,51.915
		c0.366-0.446,0.639-0.974,0.817-1.579c0.178-0.608,0.266-1.321,0.266-2.144c0-0.877-0.102-1.627-0.307-2.246
		c-0.201-0.615-0.471-1.116-0.796-1.496c-0.337-0.393-0.724-0.679-1.157-0.857c-0.437-0.177-0.894-0.265-1.364-0.265
		c-0.48,0-0.931,0.084-1.354,0.255c-0.424,0.172-0.814,0.454-1.167,0.847c-0.329,0.371-0.595,0.874-0.804,1.523
		c-0.207,0.645-0.309,1.395-0.309,2.249c0,0.874,0.097,1.617,0.299,2.231c0.201,0.615,0.464,1.113,0.793,1.502
		c0.329,0.387,0.713,0.672,1.152,0.856c0.441,0.182,0.902,0.276,1.389,0.276c0.484,0,0.947-0.094,1.388-0.282
		C241.452,52.598,241.835,52.309,242.165,51.915 M247.176,48.202c0,2.339-0.669,4.194-2.01,5.568
		c-1.337,1.375-3.189,2.064-5.552,2.064c-2.356,0-4.205-0.689-5.546-2.064c-1.338-1.375-2.006-3.229-2.006-5.568
		c0-2.356,0.668-4.218,2.006-5.586c1.341-1.372,3.189-2.054,5.546-2.054c2.35,0,4.197,0.683,5.541,2.054
		C246.504,43.984,247.176,45.846,247.176,48.202 M229.837,55.529h-8.587v-2.598h2.403v-9.464h-2.403v-2.598h8.587v2.598h-2.402
		v9.464h2.402V55.529z M219.637,43.702h-4.58v11.827h-3.781V43.702h-4.577v-2.833h12.938V43.702z M204.631,50.222
		c0,1.812-0.551,3.199-1.654,4.165c-1.102,0.964-2.729,1.448-4.873,1.448c-2.147,0-3.771-0.484-4.87-1.448
		c-1.099-0.965-1.65-2.35-1.65-4.155v-9.364h3.802v9.145c0,1.02,0.212,1.779,0.639,2.275c0.427,0.501,1.12,0.75,2.08,0.75
		c0.944,0,1.634-0.242,2.071-0.72c0.437-0.48,0.654-1.247,0.654-2.306v-9.145h3.802V50.222z M189.517,43.702h-4.581v11.827h-3.78
		V43.702h-4.578v-2.833h12.939V43.702z M174.964,55.529h-8.587v-2.598h2.403v-9.464h-2.403v-2.598h8.587v2.598h-2.402v9.464h2.402
		V55.529z M164.764,43.702h-4.58v11.827h-3.781V43.702h-4.578v-2.833h12.939V43.702z M150.701,50.921
		c0,1.445-0.611,2.618-1.838,3.519c-1.223,0.904-2.883,1.354-4.984,1.354c-1.216,0-2.275-0.108-3.176-0.319
		c-0.904-0.215-1.748-0.484-2.537-0.813v-3.516h0.414c0.782,0.625,1.656,1.102,2.624,1.439c0.968,0.336,1.898,0.5,2.793,0.5
		c0.229,0,0.531-0.017,0.903-0.057c0.377-0.04,0.68-0.104,0.918-0.198c0.289-0.118,0.524-0.266,0.713-0.443
		c0.188-0.175,0.281-0.437,0.281-0.787c0-0.322-0.137-0.598-0.409-0.833c-0.272-0.232-0.672-0.41-1.196-0.535
		c-0.551-0.131-1.133-0.255-1.748-0.37c-0.615-0.113-1.189-0.262-1.727-0.437c-1.234-0.403-2.121-0.943-2.666-1.629
		c-0.541-0.686-0.809-1.54-0.809-2.558c0-1.364,0.61-2.478,1.834-3.341c1.224-0.864,2.799-1.293,4.722-1.293
		c0.965,0,1.919,0.09,2.86,0.279c0.941,0.188,1.758,0.423,2.447,0.705v3.374h-0.404c-0.591-0.469-1.314-0.866-2.171-1.186
		c-0.856-0.316-1.729-0.478-2.625-0.478c-0.315,0-0.628,0.024-0.94,0.064c-0.309,0.044-0.612,0.125-0.901,0.243
		c-0.255,0.097-0.474,0.249-0.658,0.446c-0.186,0.202-0.276,0.431-0.276,0.686c0,0.387,0.148,0.686,0.443,0.89
		c0.297,0.209,0.855,0.397,1.675,0.569c0.538,0.111,1.056,0.218,1.549,0.322c0.498,0.108,1.029,0.252,1.601,0.433
		c1.122,0.371,1.952,0.872,2.486,1.503C150.434,49.085,150.701,49.909,150.701,50.921 M135.222,55.529h-3.643l-6.221-10.062v10.062
		h-3.465V40.868h4.517l5.348,8.399v-8.399h3.465V55.529z M118.811,55.529h-8.587v-2.598h2.404v-9.464h-2.404v-2.598h8.587v2.598
		h-2.403v9.464h2.403V55.529z M101.384,43.702h-6.745v2.729h6.251v2.836h-6.251v6.262h-3.761V40.868h10.506V43.702z M82.98,51.915
		c0.366-0.446,0.638-0.974,0.816-1.579c0.178-0.608,0.266-1.321,0.266-2.144c0-0.877-0.101-1.627-0.306-2.246
		c-0.202-0.615-0.471-1.116-0.797-1.496c-0.336-0.393-0.723-0.679-1.157-0.857c-0.437-0.177-0.894-0.265-1.364-0.265
		c-0.48,0-0.931,0.084-1.354,0.255c-0.424,0.172-0.814,0.454-1.166,0.847c-0.329,0.371-0.595,0.874-0.804,1.523
		c-0.208,0.645-0.309,1.395-0.309,2.249c0,0.874,0.097,1.617,0.299,2.231c0.202,0.615,0.463,1.113,0.793,1.502
		c0.329,0.387,0.712,0.672,1.152,0.856c0.44,0.182,0.901,0.276,1.389,0.276c0.483,0,0.948-0.094,1.388-0.282
		C82.268,52.598,82.651,52.309,82.98,51.915 M87.991,48.202c0,2.339-0.668,4.194-2.01,5.568c-1.337,1.375-3.189,2.064-5.552,2.064
		c-2.356,0-4.205-0.689-5.545-2.064c-1.338-1.375-2.006-3.229-2.006-5.568c0-2.356,0.668-4.218,2.006-5.586
		c1.341-1.372,3.189-2.054,5.545-2.054c2.349,0,4.197,0.683,5.542,2.054C87.319,43.984,87.991,45.846,87.991,48.202"/>
	
		<line fill="#FFFFFF" stroke="#FFFFFF" stroke-width="5.101" stroke-miterlimit="2.613" x1="72.877" y1="72.825" x2="278.647" y2="72.825"/>
	<path fill="#FFFFFF" d="M75.085,67.046v-5.908h-2.208v-0.791h5.31v0.791h-2.216v5.908H75.085z M84.467,67.046l2.574-6.699h0.955
		l2.742,6.699h-1.011l-0.781-2.029h-2.801l-0.735,2.029H84.467z M86.4,64.294h2.272l-0.7-1.854
		c-0.212-0.563-0.371-1.026-0.474-1.391c-0.086,0.431-0.206,0.856-0.362,1.281L86.4,64.294z M98.218,67.046v-6.699h1.335
		l1.585,4.743c0.146,0.44,0.254,0.772,0.32,0.992c0.076-0.243,0.194-0.602,0.356-1.074l1.604-4.661h1.193v6.699h-0.855v-5.607
		l-1.946,5.607h-0.801l-1.937-5.702v5.702H98.218z M112.995,60.347h0.886v6.699h-0.886V60.347z M122.207,67.046v-6.699h0.888v5.908
		h3.298v0.791H122.207z M134.242,67.046v-6.699h0.908l3.519,5.26v-5.26h0.851v6.699h-0.91l-3.518-5.265v5.265H134.242z
		 M147.074,67.046l2.574-6.699h0.953l2.742,6.699h-1.01l-0.781-2.029h-2.802l-0.735,2.029H147.074z M149.006,64.294h2.273
		l-0.701-1.854c-0.212-0.563-0.37-1.026-0.474-1.391c-0.085,0.431-0.206,0.856-0.362,1.281L149.006,64.294z M160.854,67.046v-6.699
		h2.307c0.521,0,0.918,0.032,1.193,0.098c0.384,0.087,0.711,0.247,0.982,0.479c0.353,0.299,0.618,0.679,0.792,1.145
		c0.177,0.465,0.264,0.995,0.264,1.592c0,0.509-0.06,0.96-0.18,1.353c-0.118,0.394-0.27,0.72-0.456,0.977
		c-0.187,0.258-0.389,0.46-0.61,0.606c-0.22,0.148-0.487,0.262-0.799,0.337c-0.313,0.076-0.672,0.114-1.075,0.114H160.854z
		 M161.739,66.255h1.43c0.441,0,0.79-0.04,1.041-0.123c0.25-0.083,0.45-0.198,0.601-0.348c0.211-0.209,0.374-0.493,0.491-0.847
		c0.116-0.356,0.176-0.785,0.176-1.291c0-0.701-0.115-1.239-0.344-1.615c-0.231-0.377-0.511-0.629-0.84-0.756
		c-0.237-0.093-0.621-0.138-1.146-0.138h-1.408V66.255z M178.809,60.347h0.887v3.872c0,0.672-0.076,1.207-0.229,1.603
		c-0.153,0.396-0.428,0.718-0.825,0.966c-0.397,0.25-0.919,0.372-1.564,0.372c-0.627,0-1.142-0.106-1.54-0.324
		c-0.399-0.216-0.685-0.529-0.854-0.938c-0.172-0.41-0.256-0.969-0.256-1.678v-3.872h0.887v3.866c0,0.582,0.054,1.011,0.161,1.285
		c0.108,0.277,0.295,0.489,0.558,0.639c0.264,0.149,0.586,0.225,0.967,0.225c0.652,0,1.117-0.147,1.394-0.444
		c0.277-0.295,0.416-0.862,0.416-1.704V60.347z"/>
	<path fill="#FFFFFF" d="M191.044,63.664c0-0.746,0.264-1.384,0.793-1.913c0.527-0.528,1.166-0.792,1.913-0.792
		c0.745,0,1.384,0.264,1.914,0.792c0.53,0.529,0.795,1.167,0.795,1.913c0,0.747-0.265,1.385-0.795,1.913
		c-0.53,0.529-1.169,0.793-1.914,0.793c-0.747,0-1.386-0.264-1.913-0.793C191.308,65.048,191.044,64.411,191.044,63.664"/>
	<path fill="#FFFFFF" d="M208.606,67.046v-6.699h0.889v3.322l3.325-3.322h1.201l-2.811,2.714l2.935,3.985h-1.171l-2.384-3.391
		l-1.096,1.069v2.321H208.606z M221.706,67.046v-6.699h4.843v0.791h-3.957v2.051h3.706v0.786h-3.706v2.28h4.112v0.791H221.706z
		 M234.744,67.046v-6.699h2.97c0.598,0,1.052,0.062,1.362,0.181c0.31,0.121,0.558,0.333,0.745,0.637
		c0.186,0.307,0.277,0.643,0.277,1.011c0,0.476-0.152,0.875-0.462,1.2c-0.307,0.327-0.783,0.534-1.426,0.623
		c0.235,0.112,0.413,0.223,0.536,0.333c0.259,0.238,0.504,0.536,0.735,0.892l1.165,1.823h-1.115l-0.886-1.395
		c-0.259-0.4-0.473-0.71-0.641-0.922c-0.167-0.214-0.317-0.363-0.449-0.447c-0.133-0.086-0.268-0.146-0.404-0.18
		c-0.102-0.021-0.265-0.031-0.494-0.031h-1.028v2.975H234.744z M235.63,63.304h1.906c0.404,0,0.722-0.042,0.949-0.126
		c0.23-0.084,0.403-0.218,0.521-0.402c0.119-0.185,0.179-0.384,0.179-0.601c0-0.316-0.114-0.577-0.347-0.781
		c-0.229-0.204-0.591-0.306-1.089-0.306h-2.12V63.304z M247.554,67.046l2.573-6.699h0.954l2.743,6.699h-1.011l-0.782-2.029h-2.801
		l-0.735,2.029H247.554z M249.486,64.295h2.272l-0.701-1.854c-0.212-0.563-0.37-1.026-0.474-1.39
		c-0.086,0.43-0.205,0.855-0.361,1.28L249.486,64.295z M261.295,67.046v-6.699h0.888v5.908h3.299v0.791H261.295z M272.603,67.046
		l2.574-6.699h0.954l2.742,6.699h-1.011l-0.782-2.029h-2.801l-0.735,2.029H272.603z M274.535,64.295h2.272l-0.7-1.854
		c-0.212-0.563-0.371-1.026-0.475-1.39c-0.086,0.43-0.205,0.855-0.361,1.28L274.535,64.295z"/>
	<path fill-rule="evenodd" clip-rule="evenodd" fill="#FFFFFF" d="M7.77,17.54c10.248,0,18.558,8.311,18.558,18.559
		c0,0.042-0.001,0.083-0.001,0.124l0.059,14.816h-6.537l0.05-14.816c0-0.042,0.001-0.083,0.001-0.124
		c0-6.698-5.432-12.13-12.129-12.13l-0.016,0v-6.428L7.77,17.54z"/>
	<path fill-rule="evenodd" clip-rule="evenodd" fill="#FFFFFF" d="M6.544,17.54c0.041,0,0.053,31.064,0.057,33.566H0.063
		C0.067,48.604,0.111,17.54,0.116,17.54H6.544z"/>
	<path fill-rule="evenodd" clip-rule="evenodd" fill="#FFFFFF" d="M47.512,17.54c-10.248,0-18.559,8.311-18.559,18.559
		c0,0.042,0.001,0.083,0.002,0.124l-0.059,14.816h6.538l-0.05-14.816c0-0.042-0.002-0.083-0.002-0.124
		c0-6.698,5.432-12.13,12.13-12.13l0.015,0v-6.428L47.512,17.54z"/>
	<path fill-rule="evenodd" clip-rule="evenodd" fill="#FFFFFF" d="M27.647,0c5.481,0,9.926,4.445,9.926,9.926
		s-4.445,9.926-9.926,9.926c-5.48,0-9.925-4.445-9.925-9.926S22.167,0,27.647,0"/>
	<path fill="#FFFFFF" d="M44.487,54.731c0-0.089-0.024-0.166-0.072-0.229c-0.048-0.064-0.104-0.109-0.167-0.134
		c-0.084-0.034-0.167-0.053-0.248-0.057c-0.08-0.002-0.187-0.004-0.321-0.004h-0.14v0.944h0.232c0.138,0,0.252-0.009,0.342-0.025
		c0.09-0.017,0.165-0.051,0.226-0.102c0.052-0.045,0.09-0.099,0.113-0.162C44.476,54.898,44.487,54.822,44.487,54.731
		 M45.327,54.713c0,0.141-0.024,0.279-0.074,0.414c-0.05,0.135-0.12,0.248-0.212,0.34c-0.125,0.124-0.266,0.217-0.42,0.281
		c-0.154,0.064-0.347,0.095-0.577,0.095h-0.505v1.026h-0.813v-3.151h1.337c0.201,0,0.369,0.018,0.507,0.052
		c0.137,0.035,0.259,0.087,0.365,0.156c0.127,0.083,0.224,0.189,0.292,0.319C45.293,54.375,45.327,54.531,45.327,54.713
		 M41.967,55.729c0,0.389-0.119,0.688-0.355,0.895s-0.586,0.312-1.047,0.312c-0.462,0-0.811-0.104-1.047-0.312
		s-0.354-0.505-0.354-0.893v-2.013h0.817v1.966c0,0.219,0.046,0.382,0.138,0.489c0.091,0.108,0.24,0.161,0.447,0.161
		c0.203,0,0.351-0.052,0.445-0.154c0.094-0.104,0.141-0.268,0.141-0.496v-1.966h0.817V55.729z M37.51,56.092
		c0.079-0.096,0.137-0.209,0.176-0.339c0.038-0.131,0.057-0.285,0.057-0.461c0-0.188-0.021-0.35-0.065-0.483
		c-0.043-0.132-0.101-0.239-0.171-0.321c-0.072-0.085-0.155-0.146-0.249-0.184c-0.094-0.039-0.192-0.058-0.293-0.058
		c-0.104,0-0.2,0.019-0.291,0.055s-0.175,0.098-0.251,0.182c-0.071,0.079-0.128,0.188-0.172,0.327
		c-0.045,0.139-0.066,0.3-0.066,0.483c0,0.188,0.021,0.348,0.064,0.48c0.043,0.132,0.1,0.239,0.171,0.323
		c0.071,0.083,0.153,0.145,0.248,0.185c0.095,0.039,0.193,0.059,0.298,0.059c0.104,0,0.204-0.02,0.298-0.06
		C37.357,56.239,37.439,56.177,37.51,56.092 M38.587,55.294c0,0.503-0.144,0.902-0.432,1.197c-0.288,0.295-0.686,0.443-1.193,0.443
		c-0.506,0-0.904-0.148-1.192-0.443c-0.288-0.295-0.432-0.694-0.432-1.197c0-0.506,0.144-0.907,0.432-1.2
		c0.288-0.295,0.686-0.441,1.192-0.441c0.505,0,0.902,0.146,1.191,0.441C38.442,54.387,38.587,54.788,38.587,55.294 M35.167,56.869
		h-0.992l-0.859-1.155h-0.374v1.155h-0.809v-3.151h1.362c0.187,0,0.347,0.011,0.48,0.032c0.134,0.021,0.26,0.066,0.377,0.137
		c0.118,0.07,0.212,0.162,0.282,0.273c0.07,0.113,0.105,0.254,0.105,0.422c0,0.233-0.054,0.423-0.162,0.57
		c-0.108,0.146-0.262,0.269-0.462,0.366L35.167,56.869z M33.899,54.683c0-0.08-0.016-0.147-0.048-0.204s-0.088-0.101-0.167-0.133
		c-0.055-0.022-0.119-0.037-0.192-0.041c-0.074-0.005-0.159-0.008-0.256-0.008h-0.294v0.849h0.249c0.129,0,0.239-0.006,0.327-0.019
		c0.087-0.013,0.16-0.042,0.22-0.086c0.056-0.044,0.098-0.093,0.124-0.146C33.887,54.843,33.899,54.772,33.899,54.683
		 M31.405,56.689c-0.141,0.055-0.328,0.11-0.561,0.164c-0.233,0.055-0.465,0.082-0.696,0.082c-0.536,0-0.956-0.146-1.259-0.437
		c-0.303-0.291-0.456-0.694-0.456-1.208c0-0.489,0.153-0.884,0.46-1.184c0.305-0.3,0.732-0.449,1.28-0.449
		c0.207,0,0.405,0.019,0.592,0.056c0.188,0.038,0.396,0.112,0.626,0.223v0.739H31.3c-0.039-0.03-0.096-0.071-0.173-0.125
		c-0.076-0.055-0.149-0.101-0.219-0.139c-0.083-0.045-0.178-0.084-0.287-0.116c-0.11-0.032-0.226-0.049-0.348-0.049
		c-0.145,0-0.274,0.021-0.391,0.063c-0.118,0.043-0.223,0.108-0.316,0.195c-0.089,0.084-0.159,0.192-0.21,0.322
		c-0.052,0.131-0.077,0.282-0.077,0.453c0,0.348,0.092,0.614,0.276,0.8c0.185,0.185,0.458,0.277,0.819,0.277
		c0.031,0,0.066-0.001,0.103-0.003c0.037-0.001,0.072-0.003,0.103-0.006v-0.618h-0.628v-0.595h1.454V56.689z M26.377,55.729
		c0,0.389-0.119,0.688-0.356,0.895c-0.236,0.207-0.586,0.312-1.047,0.312c-0.461,0-0.811-0.104-1.047-0.312
		s-0.354-0.505-0.354-0.893v-2.013h0.816v1.966c0,0.219,0.046,0.382,0.138,0.489c0.092,0.108,0.241,0.161,0.447,0.161
		c0.203,0,0.351-0.052,0.445-0.154c0.094-0.104,0.141-0.268,0.141-0.496v-1.966h0.817V55.729z M23.262,56.869H22.27l-0.859-1.155
		h-0.375v1.155h-0.808v-3.151h1.362c0.186,0,0.347,0.011,0.48,0.032c0.134,0.021,0.26,0.066,0.377,0.137
		c0.118,0.07,0.212,0.162,0.282,0.273c0.07,0.113,0.105,0.254,0.105,0.422c0,0.233-0.055,0.423-0.162,0.57
		c-0.108,0.146-0.262,0.269-0.462,0.366L23.262,56.869z M21.995,54.683c0-0.08-0.017-0.147-0.049-0.204
		c-0.032-0.056-0.089-0.101-0.167-0.133c-0.055-0.022-0.119-0.037-0.192-0.041c-0.074-0.005-0.159-0.008-0.256-0.008h-0.294v0.849
		h0.249c0.13,0,0.239-0.006,0.327-0.019c0.087-0.013,0.16-0.042,0.219-0.086c0.056-0.044,0.099-0.093,0.124-0.146
		C21.981,54.843,21.995,54.772,21.995,54.683 M19.424,56.869h-0.813v-1.388h-1.2v1.388h-0.813v-3.151h0.813v1.153h1.2v-1.153h0.813
		V56.869z M15.917,56.869h-2.279v-3.151h2.279v0.61h-1.471v0.543h1.364v0.61h-1.364v0.778h1.471V56.869z M12.833,56.869H12.05
		l-1.337-2.162v2.162H9.968v-3.151h0.971l1.149,1.806v-1.806h0.745V56.869z"/>
	<path fill="#FFFFFF" d="M45.404,59.548c0,0.249-0.105,0.451-0.317,0.606c-0.21,0.155-0.497,0.233-0.859,0.233
		c-0.209,0-0.392-0.019-0.547-0.056c-0.156-0.036-0.301-0.082-0.437-0.139v-0.606h0.071c0.135,0.107,0.286,0.189,0.453,0.248
		c0.167,0.059,0.327,0.086,0.481,0.086c0.04,0,0.092-0.002,0.156-0.01c0.065-0.007,0.117-0.018,0.158-0.034
		c0.05-0.021,0.09-0.046,0.123-0.077c0.033-0.03,0.049-0.075,0.049-0.136c0-0.055-0.023-0.103-0.07-0.143
		c-0.047-0.04-0.116-0.07-0.207-0.092c-0.095-0.022-0.195-0.043-0.301-0.063c-0.106-0.02-0.206-0.045-0.297-0.075
		c-0.213-0.07-0.366-0.163-0.46-0.281c-0.093-0.118-0.14-0.265-0.14-0.441c0-0.236,0.106-0.427,0.316-0.576
		c0.211-0.149,0.482-0.223,0.814-0.223c0.166,0,0.331,0.016,0.493,0.048c0.162,0.033,0.303,0.074,0.421,0.122v0.582h-0.069
		c-0.102-0.081-0.227-0.15-0.375-0.205c-0.148-0.055-0.298-0.082-0.453-0.082c-0.054,0-0.108,0.003-0.162,0.01
		c-0.054,0.008-0.105,0.022-0.155,0.042c-0.044,0.017-0.082,0.043-0.114,0.077c-0.031,0.035-0.047,0.074-0.047,0.118
		c0,0.067,0.026,0.118,0.077,0.154s0.147,0.068,0.289,0.097c0.092,0.02,0.182,0.038,0.267,0.057
		c0.086,0.019,0.177,0.043,0.276,0.074c0.194,0.063,0.336,0.15,0.429,0.259C45.358,59.232,45.404,59.374,45.404,59.548
		 M42.736,60.343h-0.628l-1.072-1.735v1.735h-0.597v-2.528h0.778l0.922,1.448v-1.448h0.597V60.343z M39.076,59.72
		c0.063-0.078,0.11-0.168,0.141-0.272c0.031-0.105,0.046-0.228,0.046-0.37c0-0.151-0.018-0.28-0.053-0.387s-0.082-0.193-0.137-0.258
		c-0.058-0.068-0.125-0.117-0.2-0.148c-0.075-0.03-0.154-0.046-0.235-0.046c-0.083,0-0.161,0.015-0.234,0.044
		c-0.073,0.03-0.14,0.079-0.201,0.146c-0.057,0.064-0.103,0.15-0.139,0.262c-0.036,0.111-0.053,0.24-0.053,0.388
		c0,0.151,0.017,0.279,0.051,0.384c0.035,0.106,0.081,0.192,0.137,0.259c0.057,0.066,0.124,0.116,0.199,0.148
		c0.075,0.031,0.155,0.048,0.239,0.048c0.083,0,0.163-0.017,0.239-0.049C38.953,59.837,39.02,59.788,39.076,59.72 M39.94,59.08
		c0,0.403-0.115,0.723-0.346,0.959c-0.231,0.238-0.55,0.356-0.958,0.356c-0.406,0-0.725-0.118-0.956-0.356
		c-0.231-0.236-0.346-0.557-0.346-0.959c0-0.406,0.115-0.727,0.346-0.963c0.231-0.237,0.55-0.354,0.956-0.354
		c0.405,0,0.724,0.118,0.956,0.354C39.824,58.353,39.94,58.673,39.94,59.08 M36.951,60.343h-1.48v-0.448h0.414v-1.632H35.47v-0.448
		h1.48v0.448h-0.414v1.632h0.414V60.343z M35.192,58.304h-0.79v2.04H33.75v-2.04h-0.789v-0.489h2.231V58.304z M32.605,59.428
		c0,0.313-0.096,0.552-0.286,0.718c-0.19,0.167-0.47,0.25-0.84,0.25c-0.371,0-0.65-0.083-0.84-0.25
		c-0.189-0.166-0.284-0.405-0.284-0.716v-1.614h0.655v1.577c0,0.175,0.037,0.306,0.11,0.392c0.073,0.086,0.193,0.129,0.358,0.129
		c0.163,0,0.282-0.042,0.357-0.125s0.113-0.215,0.113-0.397v-1.577h0.656V59.428z M30,58.304h-0.79v2.04h-0.652v-2.04h-0.79v-0.489
		H30V58.304z M27.491,60.343h-1.48v-0.448h0.415v-1.632H26.01v-0.448h1.48v0.448h-0.415v1.632h0.415V60.343z M25.732,58.304h-0.79
		v2.04h-0.652v-2.04h-0.789v-0.489h2.23V58.304z M23.308,59.548c0,0.249-0.105,0.451-0.317,0.606
		c-0.211,0.155-0.497,0.233-0.859,0.233c-0.209,0-0.392-0.019-0.547-0.056c-0.156-0.036-0.302-0.082-0.438-0.139v-0.606h0.071
		c0.135,0.107,0.286,0.189,0.453,0.248c0.167,0.059,0.327,0.086,0.481,0.086c0.04,0,0.091-0.002,0.156-0.01
		c0.064-0.007,0.117-0.018,0.158-0.034c0.05-0.021,0.091-0.046,0.123-0.077c0.033-0.03,0.049-0.075,0.049-0.136
		c0-0.055-0.024-0.103-0.071-0.143c-0.047-0.04-0.116-0.07-0.206-0.092c-0.095-0.022-0.195-0.043-0.301-0.063
		c-0.106-0.02-0.205-0.045-0.298-0.075c-0.212-0.07-0.366-0.163-0.459-0.281c-0.093-0.118-0.14-0.265-0.14-0.441
		c0-0.236,0.105-0.427,0.317-0.576c0.21-0.149,0.482-0.223,0.813-0.223c0.167,0,0.331,0.016,0.493,0.048
		c0.162,0.033,0.303,0.074,0.422,0.122v0.582h-0.069c-0.102-0.081-0.227-0.15-0.375-0.205c-0.147-0.055-0.298-0.082-0.453-0.082
		c-0.054,0-0.108,0.003-0.162,0.01c-0.053,0.008-0.105,0.022-0.156,0.042c-0.043,0.017-0.082,0.043-0.113,0.077
		c-0.032,0.035-0.048,0.074-0.048,0.118c0,0.067,0.025,0.118,0.077,0.154s0.147,0.068,0.288,0.097
		c0.093,0.02,0.182,0.038,0.268,0.057c0.086,0.019,0.177,0.043,0.275,0.074c0.194,0.063,0.337,0.15,0.429,0.259
		C23.261,59.232,23.308,59.374,23.308,59.548 M20.639,60.343h-0.627l-1.073-1.735v1.735h-0.598v-2.528h0.779l0.922,1.448v-1.448
		h0.597V60.343z M17.81,60.343h-1.48v-0.448h0.414v-1.632h-0.414v-0.448h1.48v0.448h-0.414v1.632h0.414V60.343z M14.806,58.304
		h-1.164v0.47h1.078v0.489h-1.078v1.081h-0.647v-2.528h1.811V58.304z M11.632,59.72c0.063-0.078,0.11-0.168,0.141-0.272
		c0.03-0.105,0.046-0.228,0.046-0.37c0-0.151-0.018-0.28-0.053-0.387c-0.035-0.106-0.081-0.193-0.137-0.258
		c-0.058-0.068-0.125-0.117-0.199-0.148c-0.076-0.03-0.154-0.046-0.235-0.046c-0.083,0-0.161,0.015-0.234,0.044
		c-0.073,0.03-0.14,0.079-0.201,0.146c-0.057,0.064-0.103,0.15-0.139,0.262c-0.036,0.111-0.054,0.24-0.054,0.388
		c0,0.151,0.017,0.279,0.052,0.384c0.035,0.106,0.08,0.192,0.137,0.259c0.057,0.066,0.123,0.116,0.199,0.148
		c0.076,0.031,0.155,0.048,0.24,0.048c0.083,0,0.163-0.017,0.239-0.049C11.51,59.837,11.575,59.788,11.632,59.72 M12.497,59.08
		c0,0.403-0.115,0.723-0.347,0.959c-0.23,0.238-0.55,0.356-0.957,0.356c-0.406,0-0.725-0.118-0.957-0.356
		c-0.23-0.236-0.345-0.557-0.345-0.959c0-0.406,0.115-0.727,0.345-0.963c0.231-0.237,0.55-0.354,0.957-0.354
		c0.405,0,0.723,0.118,0.956,0.354C12.381,58.353,12.497,58.673,12.497,59.08"/>
	<path fill-rule="evenodd" clip-rule="evenodd" fill="#FFFFFF" d="M55.256,17.54c0.083,0,0.042,28.262-0.001,39.358
		c0,0.041,0.001,0.083,0.001,0.124C55.256,83.083,0,83.14,0,57.022c0-0.041,0.001-0.083,0.001-0.124l0.054-3.386H6.48l-0.05,3.386
		c0,0.041-0.002,0.083-0.002,0.124c0,17.567,42.399,18.022,42.399,0c0-0.041-0.001-0.083-0.001-0.124
		c-0.02-5.71-0.108-39.358,0.001-39.358H55.256z"/>
	<path fill="#FFFFFF" d="M39.927,84.188c0,0.031-0.001,0.058-0.002,0.081c-0.002,0.023-0.006,0.045-0.01,0.062
		c-0.005,0.019-0.011,0.035-0.02,0.048c-0.008,0.014-0.021,0.031-0.041,0.051c-0.021,0.02-0.062,0.049-0.124,0.089
		c-0.063,0.04-0.14,0.08-0.234,0.118s-0.2,0.07-0.32,0.096c-0.121,0.027-0.253,0.041-0.396,0.041c-0.248,0-0.471-0.042-0.67-0.123
		c-0.199-0.083-0.369-0.204-0.509-0.365c-0.14-0.161-0.248-0.359-0.323-0.597c-0.076-0.235-0.114-0.508-0.114-0.815
		c0-0.315,0.041-0.597,0.123-0.845c0.081-0.247,0.196-0.455,0.342-0.627c0.147-0.172,0.323-0.303,0.528-0.393
		c0.205-0.091,0.432-0.136,0.681-0.136c0.11,0,0.217,0.01,0.321,0.03c0.104,0.021,0.2,0.047,0.288,0.078
		c0.089,0.032,0.167,0.068,0.235,0.109s0.116,0.075,0.143,0.102c0.026,0.025,0.044,0.046,0.051,0.061
		c0.008,0.014,0.015,0.03,0.019,0.048c0.005,0.019,0.009,0.041,0.013,0.066c0.002,0.026,0.005,0.056,0.005,0.091
		c0,0.039-0.002,0.072-0.006,0.101c-0.004,0.027-0.01,0.05-0.018,0.069c-0.008,0.018-0.018,0.032-0.029,0.041
		c-0.011,0.008-0.024,0.014-0.039,0.014c-0.028,0-0.066-0.02-0.116-0.059c-0.048-0.037-0.112-0.079-0.19-0.126
		c-0.077-0.046-0.17-0.088-0.282-0.126c-0.11-0.039-0.243-0.058-0.398-0.058c-0.169,0-0.323,0.033-0.46,0.102
		c-0.139,0.067-0.258,0.166-0.354,0.298c-0.099,0.132-0.175,0.293-0.229,0.481s-0.081,0.405-0.081,0.648
		c0,0.241,0.026,0.455,0.078,0.64c0.051,0.186,0.126,0.34,0.223,0.465s0.216,0.219,0.357,0.282c0.142,0.064,0.301,0.097,0.48,0.097
		c0.151,0,0.283-0.02,0.396-0.058c0.112-0.036,0.208-0.078,0.288-0.125c0.08-0.046,0.145-0.087,0.196-0.124s0.092-0.057,0.121-0.057
		c0.014,0,0.025,0.004,0.035,0.009c0.01,0.007,0.018,0.018,0.024,0.035c0.005,0.016,0.01,0.038,0.013,0.069
		C39.926,84.105,39.927,84.142,39.927,84.188 M34.742,83.07c0.006-0.254-0.05-0.455-0.169-0.601
		c-0.119-0.146-0.294-0.217-0.527-0.217c-0.121,0-0.225,0.022-0.315,0.067s-0.166,0.104-0.226,0.179
		c-0.061,0.075-0.108,0.162-0.141,0.26c-0.033,0.1-0.052,0.203-0.057,0.312H34.742z M35.23,83.213c0,0.076-0.019,0.132-0.057,0.164
		c-0.038,0.032-0.081,0.048-0.13,0.048h-1.736c0,0.147,0.016,0.279,0.044,0.397c0.029,0.118,0.078,0.218,0.147,0.303
		c0.068,0.085,0.158,0.149,0.268,0.195c0.11,0.045,0.243,0.066,0.403,0.066c0.125,0,0.237-0.01,0.335-0.031
		c0.098-0.02,0.183-0.043,0.254-0.068c0.071-0.026,0.131-0.049,0.177-0.068c0.046-0.021,0.081-0.031,0.104-0.031
		c0.013,0,0.026,0.003,0.036,0.01c0.011,0.007,0.019,0.017,0.025,0.031c0.006,0.014,0.011,0.032,0.014,0.057
		c0.002,0.024,0.004,0.055,0.004,0.09c0,0.025-0.001,0.048-0.003,0.066s-0.004,0.035-0.007,0.05
		c-0.003,0.016-0.008,0.028-0.015,0.04s-0.016,0.023-0.026,0.033c-0.011,0.012-0.043,0.029-0.097,0.054
		c-0.052,0.023-0.122,0.048-0.206,0.071c-0.084,0.023-0.182,0.045-0.292,0.063s-0.229,0.028-0.354,0.028
		c-0.218,0-0.409-0.03-0.572-0.092c-0.164-0.061-0.301-0.15-0.413-0.271c-0.112-0.119-0.197-0.269-0.253-0.449
		c-0.056-0.181-0.085-0.392-0.085-0.63c0-0.227,0.03-0.432,0.088-0.613c0.059-0.181,0.144-0.336,0.255-0.462
		c0.11-0.127,0.244-0.223,0.401-0.291c0.157-0.068,0.333-0.102,0.527-0.102c0.207,0,0.384,0.033,0.531,0.101
		c0.146,0.065,0.266,0.156,0.361,0.269c0.094,0.112,0.162,0.245,0.206,0.396c0.044,0.152,0.066,0.314,0.066,0.487V83.213z
		 M32.074,84.653c0,0.015-0.003,0.028-0.01,0.038c-0.006,0.012-0.018,0.021-0.037,0.029c-0.017,0.008-0.041,0.014-0.069,0.018
		c-0.028,0.004-0.063,0.006-0.104,0.006c-0.045,0-0.082-0.002-0.11-0.006c-0.028-0.004-0.05-0.01-0.067-0.018
		c-0.017-0.009-0.028-0.018-0.034-0.029c-0.005-0.01-0.009-0.023-0.009-0.038v-0.351c-0.151,0.166-0.299,0.288-0.447,0.364
		c-0.146,0.077-0.296,0.115-0.447,0.115c-0.177,0-0.325-0.03-0.446-0.088c-0.121-0.06-0.218-0.139-0.292-0.24
		c-0.075-0.102-0.128-0.219-0.161-0.353c-0.032-0.134-0.048-0.298-0.048-0.49v-1.606c0-0.016,0.003-0.029,0.01-0.039
		c0.007-0.011,0.02-0.021,0.039-0.03c0.02-0.009,0.044-0.014,0.077-0.017c0.031-0.003,0.07-0.005,0.117-0.005
		c0.047,0,0.086,0.002,0.117,0.005c0.032,0.003,0.057,0.008,0.076,0.017c0.018,0.01,0.031,0.02,0.039,0.03
		c0.008,0.01,0.012,0.023,0.012,0.039v1.542c0,0.154,0.01,0.279,0.034,0.373c0.022,0.093,0.056,0.171,0.103,0.237
		c0.046,0.065,0.104,0.116,0.174,0.152c0.071,0.037,0.154,0.056,0.248,0.056c0.122,0,0.242-0.043,0.363-0.13
		c0.122-0.086,0.249-0.213,0.384-0.38v-1.851c0-0.016,0.003-0.029,0.01-0.039c0.007-0.011,0.02-0.021,0.04-0.03
		c0.019-0.009,0.044-0.014,0.075-0.017c0.03-0.003,0.07-0.005,0.119-0.005c0.047,0,0.086,0.002,0.118,0.005
		c0.031,0.003,0.056,0.008,0.073,0.017c0.018,0.01,0.031,0.02,0.041,0.03c0.009,0.01,0.013,0.023,0.013,0.039V84.653z
		 M29.253,82.178c0,0.044-0.001,0.08-0.003,0.108c-0.002,0.03-0.005,0.054-0.011,0.069c-0.006,0.018-0.014,0.03-0.022,0.039
		c-0.009,0.008-0.021,0.013-0.037,0.013s-0.035-0.005-0.057-0.013c-0.023-0.009-0.049-0.018-0.077-0.026
		c-0.029-0.01-0.06-0.018-0.095-0.025c-0.036-0.008-0.075-0.012-0.116-0.012c-0.049,0-0.097,0.01-0.144,0.03
		c-0.047,0.019-0.098,0.051-0.149,0.096c-0.052,0.046-0.106,0.105-0.164,0.18c-0.056,0.074-0.12,0.166-0.188,0.273v1.742
		c0,0.015-0.004,0.028-0.012,0.038c-0.008,0.012-0.021,0.021-0.038,0.029c-0.018,0.008-0.042,0.014-0.073,0.018
		c-0.032,0.004-0.073,0.006-0.122,0.006c-0.046,0-0.085-0.002-0.117-0.006c-0.032-0.004-0.057-0.01-0.075-0.018
		c-0.019-0.009-0.032-0.018-0.038-0.029c-0.007-0.01-0.011-0.023-0.011-0.038v-2.648c0-0.016,0.003-0.029,0.009-0.039
		c0.006-0.011,0.019-0.021,0.035-0.03c0.019-0.009,0.04-0.014,0.068-0.017c0.027-0.003,0.063-0.005,0.108-0.005
		c0.043,0,0.08,0.002,0.108,0.005c0.028,0.003,0.05,0.008,0.066,0.017c0.015,0.01,0.027,0.02,0.034,0.03
		c0.006,0.01,0.01,0.023,0.01,0.039v0.386c0.072-0.106,0.14-0.192,0.204-0.259c0.064-0.066,0.124-0.119,0.182-0.157
		c0.056-0.039,0.112-0.064,0.168-0.079s0.113-0.022,0.169-0.022c0.026,0,0.055,0.002,0.087,0.005s0.066,0.008,0.101,0.016
		c0.035,0.009,0.068,0.017,0.095,0.026c0.03,0.01,0.049,0.021,0.061,0.029c0.012,0.01,0.02,0.019,0.024,0.027
		c0.004,0.01,0.007,0.021,0.01,0.035c0.003,0.014,0.005,0.033,0.006,0.06S29.253,82.133,29.253,82.178 M27.585,81.137
		c0,0.037-0.002,0.069-0.006,0.097c-0.004,0.028-0.01,0.05-0.019,0.066c-0.009,0.017-0.02,0.029-0.033,0.037
		s-0.026,0.012-0.043,0.012h-1.07v3.301c0,0.015-0.004,0.029-0.012,0.04c-0.008,0.013-0.021,0.021-0.042,0.029
		c-0.019,0.007-0.045,0.012-0.077,0.017c-0.033,0.005-0.073,0.008-0.123,0.008c-0.047,0-0.087-0.003-0.121-0.008
		s-0.06-0.01-0.079-0.017c-0.02-0.008-0.033-0.017-0.042-0.029c-0.008-0.011-0.012-0.025-0.012-0.04v-3.301h-1.07
		c-0.016,0-0.03-0.004-0.043-0.012c-0.013-0.008-0.023-0.021-0.032-0.037c-0.007-0.017-0.014-0.038-0.019-0.066
		c-0.005-0.027-0.007-0.06-0.007-0.097s0.002-0.07,0.007-0.098c0.005-0.029,0.012-0.053,0.019-0.069
		c0.008-0.019,0.019-0.03,0.032-0.039c0.013-0.008,0.027-0.012,0.043-0.012h2.646c0.017,0,0.03,0.004,0.043,0.012
		c0.013,0.009,0.023,0.021,0.033,0.039c0.009,0.017,0.015,0.04,0.019,0.069C27.583,81.067,27.585,81.1,27.585,81.137 M22.645,84.919
		c0-0.113-0.047-0.2-0.14-0.263c-0.093-0.062-0.22-0.094-0.378-0.099l-0.687-0.023c-0.062,0.049-0.113,0.096-0.153,0.14
		c-0.04,0.045-0.072,0.087-0.096,0.127c-0.023,0.04-0.04,0.079-0.048,0.118c-0.009,0.039-0.013,0.079-0.013,0.12
		c0,0.128,0.064,0.226,0.193,0.291c0.129,0.064,0.311,0.098,0.541,0.098c0.148,0,0.27-0.014,0.37-0.042
		c0.099-0.029,0.178-0.065,0.24-0.113c0.06-0.048,0.104-0.102,0.13-0.162C22.631,85.05,22.645,84.987,22.645,84.919 M22.4,82.822
		c0-0.18-0.05-0.319-0.148-0.421c-0.099-0.102-0.24-0.152-0.423-0.152c-0.094,0-0.175,0.017-0.245,0.048
		c-0.07,0.03-0.127,0.074-0.174,0.129c-0.046,0.056-0.08,0.119-0.104,0.19c-0.022,0.07-0.034,0.146-0.034,0.225
		c0,0.175,0.05,0.313,0.149,0.411c0.099,0.101,0.238,0.151,0.417,0.151c0.097,0,0.18-0.015,0.25-0.047
		c0.071-0.029,0.128-0.072,0.174-0.126c0.046-0.054,0.081-0.115,0.104-0.187C22.389,82.973,22.4,82.899,22.4,82.822 M23.159,82.125
		c0,0.069-0.009,0.118-0.027,0.148c-0.019,0.03-0.043,0.046-0.072,0.046H22.68c0.068,0.07,0.116,0.147,0.143,0.233
		c0.028,0.085,0.041,0.174,0.041,0.267c0,0.153-0.024,0.288-0.073,0.405c-0.049,0.118-0.119,0.218-0.21,0.299
		c-0.091,0.081-0.199,0.144-0.325,0.187c-0.125,0.043-0.265,0.065-0.417,0.065c-0.107,0-0.21-0.014-0.307-0.043
		c-0.098-0.028-0.173-0.064-0.225-0.107c-0.035,0.035-0.064,0.075-0.087,0.12c-0.022,0.046-0.033,0.098-0.033,0.156
		c0,0.068,0.032,0.126,0.096,0.171c0.063,0.046,0.148,0.069,0.254,0.074l0.691,0.028c0.131,0.004,0.252,0.022,0.361,0.055
		s0.205,0.078,0.285,0.139c0.081,0.061,0.144,0.133,0.188,0.221c0.045,0.087,0.067,0.188,0.067,0.305
		c0,0.121-0.024,0.236-0.076,0.347c-0.051,0.109-0.129,0.206-0.234,0.289c-0.105,0.084-0.239,0.149-0.402,0.198
		c-0.163,0.047-0.354,0.071-0.576,0.071c-0.213,0-0.396-0.019-0.546-0.055c-0.149-0.036-0.272-0.085-0.368-0.148
		c-0.097-0.063-0.166-0.138-0.209-0.225c-0.043-0.088-0.065-0.182-0.065-0.284c0-0.064,0.008-0.128,0.024-0.188
		c0.015-0.062,0.039-0.119,0.072-0.174c0.033-0.056,0.073-0.107,0.121-0.157c0.047-0.051,0.104-0.101,0.166-0.149
		c-0.096-0.049-0.166-0.11-0.212-0.185c-0.047-0.074-0.07-0.155-0.07-0.242c0-0.119,0.024-0.226,0.073-0.32
		c0.05-0.095,0.11-0.179,0.183-0.253c-0.062-0.072-0.109-0.154-0.145-0.245s-0.053-0.201-0.053-0.331
		c0-0.15,0.026-0.286,0.077-0.406c0.05-0.119,0.122-0.221,0.212-0.303c0.089-0.082,0.198-0.146,0.324-0.189s0.266-0.066,0.414-0.066
		c0.081,0,0.156,0.004,0.225,0.013c0.069,0.01,0.134,0.021,0.196,0.037h0.8c0.033,0,0.058,0.017,0.074,0.048
		C23.151,82.009,23.159,82.059,23.159,82.125 M20.062,84.653c0,0.015-0.003,0.028-0.012,0.038c-0.008,0.012-0.02,0.021-0.038,0.029
		c-0.019,0.008-0.042,0.014-0.073,0.018c-0.032,0.004-0.071,0.006-0.118,0.006c-0.049,0-0.089-0.002-0.122-0.006
		c-0.031-0.004-0.055-0.01-0.073-0.018c-0.017-0.009-0.03-0.018-0.038-0.029c-0.008-0.01-0.012-0.023-0.012-0.038v-1.551
		c0-0.151-0.011-0.272-0.035-0.364c-0.023-0.093-0.057-0.171-0.102-0.239c-0.045-0.065-0.104-0.117-0.176-0.152
		c-0.071-0.035-0.154-0.054-0.248-0.054c-0.122,0-0.243,0.044-0.365,0.13c-0.122,0.086-0.25,0.213-0.382,0.38v1.851
		c0,0.015-0.004,0.028-0.012,0.038c-0.008,0.012-0.021,0.021-0.038,0.029c-0.019,0.008-0.042,0.014-0.074,0.018
		c-0.032,0.004-0.072,0.006-0.121,0.006c-0.046,0-0.086-0.002-0.118-0.006c-0.031-0.004-0.056-0.01-0.074-0.018
		c-0.019-0.009-0.032-0.018-0.039-0.029c-0.007-0.01-0.011-0.023-0.011-0.038v-2.648c0-0.016,0.003-0.029,0.009-0.039
		c0.006-0.011,0.018-0.021,0.035-0.03c0.018-0.009,0.04-0.014,0.068-0.017c0.026-0.003,0.063-0.005,0.108-0.005
		c0.043,0,0.079,0.002,0.107,0.005c0.028,0.003,0.051,0.008,0.066,0.017c0.015,0.01,0.027,0.02,0.034,0.03
		c0.006,0.01,0.01,0.023,0.01,0.039v0.351c0.148-0.167,0.297-0.289,0.445-0.366c0.148-0.077,0.297-0.116,0.448-0.116
		c0.176,0,0.325,0.03,0.446,0.091c0.12,0.059,0.219,0.139,0.293,0.238c0.074,0.101,0.127,0.218,0.16,0.352
		c0.033,0.134,0.049,0.296,0.049,0.483V84.653z M16.941,81.111c0,0.113-0.021,0.191-0.064,0.232
		c-0.043,0.042-0.122,0.061-0.238,0.061c-0.115,0-0.191-0.019-0.234-0.06c-0.042-0.04-0.063-0.115-0.063-0.228
		c0-0.114,0.021-0.191,0.065-0.232c0.042-0.041,0.122-0.063,0.237-0.063c0.115,0,0.192,0.021,0.234,0.061
		C16.92,80.923,16.941,80.999,16.941,81.111 M16.886,84.653c0,0.015-0.004,0.028-0.012,0.038c-0.008,0.012-0.021,0.021-0.038,0.029
		c-0.018,0.008-0.042,0.014-0.073,0.018c-0.032,0.004-0.072,0.006-0.122,0.006c-0.046,0-0.085-0.002-0.117-0.006
		c-0.031-0.004-0.057-0.01-0.075-0.018c-0.019-0.009-0.032-0.018-0.038-0.029c-0.007-0.01-0.011-0.023-0.011-0.038v-2.648
		c0-0.014,0.004-0.025,0.011-0.038c0.006-0.012,0.02-0.021,0.038-0.029c0.018-0.008,0.043-0.014,0.075-0.018
		c0.032-0.004,0.071-0.006,0.117-0.006c0.049,0,0.089,0.002,0.122,0.006c0.031,0.004,0.055,0.01,0.073,0.018
		c0.017,0.008,0.03,0.018,0.038,0.029c0.008,0.013,0.012,0.024,0.012,0.038V84.653z M15.015,82.79
		c-0.131-0.162-0.259-0.285-0.382-0.371c-0.122-0.085-0.25-0.129-0.383-0.129c-0.124,0-0.229,0.03-0.314,0.089
		c-0.086,0.059-0.157,0.136-0.21,0.232c-0.055,0.096-0.094,0.205-0.118,0.326c-0.025,0.122-0.037,0.246-0.037,0.371
		c0,0.134,0.01,0.264,0.031,0.392c0.02,0.126,0.056,0.24,0.107,0.34c0.052,0.1,0.119,0.179,0.203,0.237
		c0.084,0.061,0.191,0.091,0.317,0.091c0.066,0,0.128-0.01,0.188-0.027c0.059-0.018,0.12-0.048,0.183-0.088
		c0.063-0.042,0.129-0.095,0.197-0.16c0.068-0.066,0.142-0.146,0.218-0.242V82.79z M15.503,84.653c0,0.015-0.003,0.028-0.01,0.041
		c-0.007,0.011-0.02,0.021-0.035,0.028c-0.017,0.006-0.039,0.012-0.066,0.016c-0.028,0.004-0.061,0.006-0.1,0.006
		c-0.042,0-0.076-0.002-0.103-0.006c-0.028-0.004-0.049-0.01-0.068-0.016c-0.017-0.008-0.029-0.018-0.038-0.028
		c-0.008-0.013-0.012-0.026-0.012-0.041v-0.351c-0.139,0.151-0.283,0.269-0.434,0.354c-0.149,0.084-0.314,0.126-0.492,0.126
		c-0.195,0-0.36-0.038-0.498-0.113c-0.137-0.075-0.248-0.178-0.333-0.306c-0.084-0.129-0.147-0.279-0.187-0.453
		c-0.039-0.174-0.059-0.356-0.059-0.548c0-0.229,0.025-0.435,0.073-0.617c0.049-0.184,0.123-0.341,0.218-0.469
		c0.097-0.13,0.216-0.229,0.357-0.3c0.143-0.069,0.307-0.104,0.493-0.104c0.155,0,0.296,0.033,0.424,0.102
		c0.129,0.068,0.257,0.167,0.382,0.299v-1.539c0-0.013,0.003-0.026,0.01-0.039c0.007-0.014,0.02-0.023,0.04-0.029
		c0.019-0.007,0.044-0.013,0.074-0.018c0.03-0.006,0.069-0.008,0.117-0.008c0.049,0,0.089,0.002,0.12,0.008
		c0.031,0.005,0.056,0.011,0.073,0.018c0.019,0.006,0.031,0.016,0.041,0.029c0.009,0.013,0.013,0.026,0.013,0.039V84.653z
		 M12.338,84.653c0,0.015-0.004,0.028-0.012,0.038c-0.008,0.012-0.021,0.021-0.039,0.029c-0.018,0.008-0.042,0.014-0.073,0.018
		c-0.033,0.004-0.073,0.006-0.122,0.006c-0.046,0-0.085-0.002-0.118-0.006c-0.031-0.004-0.057-0.01-0.074-0.018
		c-0.019-0.009-0.032-0.018-0.038-0.029c-0.008-0.01-0.011-0.023-0.011-0.038v-3.93c0-0.017,0.003-0.031,0.011-0.042
		c0.006-0.012,0.019-0.021,0.038-0.029c0.018-0.008,0.043-0.014,0.074-0.018c0.032-0.004,0.071-0.006,0.118-0.006
		c0.049,0,0.089,0.002,0.122,0.006c0.031,0.004,0.055,0.01,0.073,0.018c0.017,0.008,0.03,0.018,0.039,0.029
		c0.008,0.011,0.012,0.025,0.012,0.042V84.653z M10.956,84.653c0,0.015-0.003,0.028-0.009,0.038
		c-0.007,0.012-0.02,0.021-0.038,0.029c-0.017,0.008-0.04,0.014-0.069,0.018c-0.028,0.004-0.063,0.006-0.104,0.006
		c-0.045,0-0.082-0.002-0.111-0.006c-0.028-0.004-0.05-0.01-0.067-0.018c-0.017-0.009-0.028-0.018-0.034-0.029
		c-0.005-0.01-0.008-0.023-0.008-0.038v-0.351c-0.151,0.166-0.3,0.288-0.448,0.364c-0.146,0.077-0.296,0.115-0.447,0.115
		c-0.177,0-0.325-0.03-0.446-0.088c-0.12-0.06-0.218-0.139-0.292-0.24c-0.075-0.102-0.128-0.219-0.161-0.353
		c-0.032-0.134-0.048-0.298-0.048-0.49v-1.606c0-0.016,0.003-0.029,0.01-0.039c0.007-0.011,0.02-0.021,0.039-0.03
		c0.021-0.009,0.045-0.014,0.077-0.017s0.071-0.005,0.118-0.005c0.047,0,0.086,0.002,0.117,0.005
		c0.031,0.003,0.057,0.008,0.075,0.017c0.018,0.01,0.031,0.02,0.04,0.03c0.008,0.01,0.012,0.023,0.012,0.039v1.542
		c0,0.154,0.011,0.279,0.034,0.373c0.022,0.093,0.057,0.171,0.102,0.237c0.046,0.065,0.105,0.116,0.175,0.152
		c0.071,0.037,0.153,0.056,0.248,0.056c0.122,0,0.242-0.043,0.362-0.13c0.122-0.086,0.249-0.213,0.384-0.38v-1.851
		c0-0.016,0.003-0.029,0.01-0.039c0.008-0.011,0.021-0.021,0.041-0.03c0.019-0.009,0.044-0.014,0.074-0.017
		c0.03-0.003,0.07-0.005,0.12-0.005c0.047,0,0.086,0.002,0.118,0.005s0.056,0.008,0.073,0.017c0.018,0.01,0.031,0.02,0.04,0.03
		c0.009,0.01,0.013,0.023,0.013,0.039V84.653z M7.462,83.331c0-0.142-0.014-0.277-0.041-0.405c-0.026-0.127-0.07-0.239-0.13-0.335
		c-0.062-0.096-0.144-0.172-0.247-0.228c-0.104-0.057-0.234-0.085-0.389-0.085c-0.144,0-0.266,0.026-0.37,0.077
		c-0.102,0.051-0.188,0.123-0.254,0.216c-0.067,0.094-0.117,0.204-0.148,0.332c-0.032,0.127-0.048,0.266-0.048,0.417
		c0,0.146,0.013,0.281,0.039,0.409s0.07,0.239,0.133,0.333c0.061,0.096,0.145,0.171,0.248,0.227
		c0.104,0.057,0.233,0.083,0.388,0.083c0.142,0,0.264-0.024,0.367-0.075c0.105-0.052,0.19-0.123,0.256-0.216
		c0.068-0.091,0.117-0.201,0.148-0.329C7.446,83.625,7.462,83.485,7.462,83.331 M7.973,83.299c0,0.216-0.028,0.414-0.085,0.595
		c-0.056,0.183-0.142,0.339-0.254,0.471c-0.113,0.131-0.254,0.233-0.424,0.308c-0.169,0.072-0.367,0.109-0.589,0.109
		c-0.218,0-0.407-0.032-0.569-0.098c-0.162-0.063-0.297-0.158-0.404-0.282c-0.108-0.123-0.188-0.273-0.241-0.45
		c-0.053-0.176-0.079-0.376-0.079-0.6c0-0.216,0.028-0.415,0.083-0.596c0.056-0.182,0.141-0.338,0.253-0.47
		c0.112-0.132,0.254-0.232,0.423-0.305c0.168-0.073,0.365-0.109,0.589-0.109c0.218,0,0.408,0.032,0.57,0.097
		c0.162,0.065,0.297,0.159,0.405,0.283c0.108,0.123,0.189,0.273,0.243,0.449C7.947,82.878,7.973,83.078,7.973,83.299 M4.555,84.65
		c0,0.015-0.003,0.029-0.012,0.04c-0.008,0.013-0.021,0.021-0.041,0.029c-0.019,0.007-0.044,0.012-0.074,0.017
		c-0.031,0.005-0.07,0.008-0.119,0.008c-0.045,0-0.084-0.003-0.116-0.008c-0.033-0.005-0.058-0.01-0.077-0.017
		c-0.019-0.008-0.032-0.017-0.04-0.029c-0.007-0.011-0.011-0.025-0.011-0.04v-3.316H4.059l-1.357,3.33
		C2.696,84.677,2.688,84.69,2.677,84.7c-0.01,0.009-0.026,0.019-0.046,0.024c-0.021,0.007-0.045,0.012-0.075,0.015
		c-0.028,0.003-0.062,0.005-0.102,0.005c-0.041,0-0.076-0.002-0.105-0.006c-0.03-0.004-0.054-0.01-0.075-0.016
		c-0.019-0.008-0.034-0.017-0.045-0.025c-0.01-0.01-0.018-0.021-0.021-0.033l-1.298-3.33H0.908v3.316
		c0,0.015-0.004,0.029-0.012,0.04c-0.007,0.013-0.021,0.021-0.041,0.029c-0.02,0.007-0.044,0.012-0.076,0.017
		c-0.031,0.005-0.072,0.008-0.121,0.008c-0.047,0-0.086-0.003-0.117-0.008c-0.032-0.005-0.057-0.01-0.076-0.017
		c-0.018-0.008-0.031-0.017-0.038-0.029c-0.007-0.011-0.01-0.025-0.01-0.04v-3.501c0-0.083,0.021-0.141,0.065-0.176
		c0.043-0.035,0.091-0.054,0.145-0.054h0.306c0.063,0,0.118,0.006,0.165,0.019c0.047,0.011,0.088,0.029,0.123,0.055
		c0.035,0.026,0.064,0.059,0.088,0.098c0.023,0.039,0.044,0.085,0.062,0.139l1.104,2.756h0.014l1.147-2.748
		c0.021-0.059,0.045-0.108,0.07-0.149c0.026-0.042,0.055-0.074,0.084-0.099c0.03-0.025,0.064-0.042,0.102-0.054
		c0.037-0.011,0.08-0.016,0.13-0.016h0.32c0.029,0,0.057,0.004,0.084,0.013c0.026,0.01,0.048,0.023,0.067,0.041
		c0.019,0.02,0.034,0.043,0.045,0.07c0.012,0.03,0.018,0.063,0.018,0.105V84.65z"/>
	<path fill="#FFFFFF" d="M55.393,83.931c0,0.136-0.025,0.256-0.075,0.361c-0.05,0.107-0.122,0.196-0.214,0.269
		c-0.092,0.072-0.202,0.128-0.33,0.165c-0.128,0.036-0.267,0.056-0.421,0.056c-0.093,0-0.183-0.008-0.269-0.021
		c-0.085-0.016-0.163-0.034-0.229-0.057c-0.069-0.021-0.126-0.046-0.173-0.07c-0.046-0.025-0.082-0.047-0.102-0.066
		c-0.022-0.02-0.038-0.047-0.048-0.082s-0.015-0.084-0.015-0.145c0-0.037,0.002-0.068,0.006-0.095
		c0.004-0.025,0.009-0.045,0.015-0.062c0.006-0.016,0.014-0.026,0.025-0.033c0.009-0.008,0.023-0.011,0.036-0.011
		c0.022,0,0.054,0.013,0.097,0.04c0.042,0.026,0.093,0.056,0.156,0.087c0.061,0.031,0.134,0.061,0.219,0.086
		c0.084,0.027,0.182,0.04,0.291,0.04c0.083,0,0.157-0.009,0.224-0.025c0.066-0.018,0.125-0.044,0.174-0.078
		c0.048-0.035,0.086-0.079,0.112-0.131c0.026-0.054,0.04-0.117,0.04-0.188c0-0.075-0.019-0.139-0.057-0.188
		c-0.039-0.051-0.09-0.096-0.152-0.135c-0.063-0.04-0.133-0.075-0.212-0.105c-0.078-0.029-0.16-0.062-0.243-0.095
		c-0.083-0.034-0.164-0.071-0.244-0.113c-0.08-0.043-0.15-0.094-0.213-0.155c-0.063-0.062-0.114-0.133-0.151-0.218
		c-0.039-0.084-0.058-0.185-0.058-0.303c0-0.104,0.021-0.203,0.06-0.299c0.04-0.095,0.101-0.179,0.181-0.25
		c0.081-0.071,0.181-0.128,0.302-0.172c0.12-0.043,0.262-0.064,0.423-0.064c0.07,0,0.14,0.006,0.212,0.018
		c0.07,0.012,0.133,0.026,0.19,0.045c0.057,0.017,0.105,0.036,0.146,0.057c0.04,0.02,0.069,0.038,0.091,0.054
		c0.02,0.017,0.034,0.029,0.041,0.042c0.007,0.012,0.012,0.025,0.015,0.04c0.003,0.014,0.005,0.032,0.008,0.055
		c0.003,0.021,0.005,0.048,0.005,0.079c0,0.032-0.002,0.063-0.005,0.086c-0.002,0.025-0.007,0.046-0.014,0.06
		c-0.007,0.017-0.015,0.028-0.025,0.035c-0.01,0.007-0.021,0.01-0.032,0.01c-0.018,0-0.043-0.01-0.077-0.032
		c-0.033-0.021-0.076-0.044-0.129-0.069c-0.053-0.023-0.115-0.047-0.188-0.069c-0.071-0.021-0.153-0.032-0.245-0.032
		c-0.082,0-0.155,0.01-0.218,0.028c-0.063,0.019-0.115,0.045-0.154,0.079c-0.041,0.034-0.071,0.075-0.092,0.123
		c-0.02,0.047-0.029,0.098-0.029,0.152c0,0.076,0.019,0.141,0.058,0.192c0.039,0.053,0.091,0.098,0.154,0.137
		c0.063,0.039,0.134,0.075,0.214,0.106c0.082,0.031,0.163,0.063,0.246,0.097c0.083,0.034,0.166,0.071,0.247,0.112
		c0.081,0.041,0.154,0.09,0.217,0.149c0.062,0.06,0.112,0.13,0.15,0.213C55.373,83.719,55.393,83.819,55.393,83.931 M52.845,84.652
		c0,0.016-0.003,0.03-0.012,0.04c-0.008,0.011-0.02,0.02-0.038,0.027c-0.018,0.009-0.042,0.015-0.073,0.019
		c-0.033,0.004-0.071,0.006-0.117,0.006c-0.05,0-0.089-0.002-0.122-0.006c-0.031-0.004-0.055-0.01-0.074-0.019
		c-0.017-0.008-0.03-0.017-0.038-0.027c-0.008-0.01-0.012-0.024-0.012-0.04v-1.55c0-0.151-0.011-0.273-0.036-0.364
		c-0.023-0.093-0.057-0.172-0.102-0.239c-0.045-0.066-0.104-0.117-0.176-0.152c-0.071-0.035-0.153-0.054-0.248-0.054
		c-0.122,0-0.243,0.044-0.365,0.13c-0.123,0.086-0.25,0.213-0.382,0.38v1.85c0,0.016-0.004,0.03-0.012,0.04
		c-0.008,0.011-0.021,0.02-0.038,0.027c-0.018,0.009-0.042,0.015-0.074,0.019s-0.072,0.006-0.121,0.006
		c-0.046,0-0.086-0.002-0.118-0.006c-0.031-0.004-0.056-0.01-0.074-0.019c-0.019-0.008-0.032-0.017-0.039-0.027
		c-0.007-0.01-0.01-0.024-0.01-0.04v-2.647c0-0.016,0.002-0.028,0.008-0.04c0.006-0.01,0.019-0.021,0.035-0.029
		c0.019-0.009,0.041-0.014,0.069-0.017c0.027-0.003,0.063-0.005,0.108-0.005c0.043,0,0.079,0.002,0.107,0.005
		c0.028,0.003,0.05,0.008,0.066,0.017c0.015,0.009,0.028,0.02,0.034,0.029c0.006,0.012,0.011,0.024,0.011,0.04v0.351
		c0.148-0.167,0.297-0.289,0.445-0.366c0.147-0.077,0.297-0.116,0.448-0.116c0.176,0,0.325,0.03,0.446,0.09s0.219,0.14,0.293,0.239
		c0.074,0.101,0.127,0.218,0.159,0.352c0.033,0.134,0.049,0.296,0.049,0.484V84.652z M49.34,83.07
		c0.006-0.254-0.051-0.455-0.17-0.601c-0.118-0.145-0.293-0.218-0.527-0.218c-0.12,0-0.225,0.023-0.315,0.068
		c-0.09,0.044-0.166,0.104-0.226,0.179c-0.062,0.075-0.108,0.162-0.141,0.26c-0.034,0.101-0.052,0.203-0.057,0.312H49.34z
		 M49.828,83.213c0,0.076-0.019,0.132-0.057,0.164c-0.038,0.031-0.082,0.048-0.13,0.048h-1.736c0,0.147,0.015,0.279,0.044,0.397
		c0.029,0.117,0.078,0.219,0.147,0.303c0.068,0.084,0.157,0.149,0.267,0.194c0.11,0.046,0.244,0.067,0.404,0.067
		c0.125,0,0.236-0.01,0.335-0.031c0.098-0.02,0.183-0.043,0.254-0.068c0.071-0.026,0.13-0.049,0.176-0.068
		c0.046-0.021,0.081-0.032,0.104-0.032c0.013,0,0.026,0.004,0.037,0.011c0.011,0.007,0.019,0.017,0.025,0.031
		c0.006,0.014,0.011,0.032,0.014,0.057c0.002,0.024,0.004,0.055,0.004,0.09c0,0.025-0.001,0.048-0.003,0.066
		c-0.002,0.02-0.003,0.035-0.007,0.05c-0.003,0.016-0.008,0.028-0.015,0.04c-0.006,0.011-0.016,0.023-0.026,0.033
		c-0.011,0.012-0.043,0.029-0.097,0.054c-0.052,0.023-0.122,0.048-0.206,0.072c-0.084,0.022-0.182,0.044-0.292,0.063
		c-0.11,0.019-0.229,0.028-0.354,0.028c-0.218,0-0.409-0.03-0.573-0.091c-0.164-0.062-0.301-0.152-0.414-0.271
		c-0.111-0.12-0.195-0.269-0.253-0.449c-0.056-0.182-0.085-0.392-0.085-0.63c0-0.227,0.03-0.432,0.088-0.613
		c0.06-0.181,0.144-0.336,0.255-0.462c0.11-0.127,0.244-0.223,0.401-0.291c0.157-0.067,0.332-0.102,0.526-0.102
		c0.208,0,0.384,0.033,0.531,0.101c0.146,0.065,0.266,0.156,0.36,0.269c0.094,0.112,0.163,0.245,0.207,0.396
		c0.044,0.152,0.066,0.314,0.066,0.487V83.213z M47.013,84.52c0,0.037-0.003,0.069-0.009,0.096c-0.006,0.026-0.013,0.048-0.02,0.065
		c-0.008,0.016-0.019,0.027-0.033,0.034c-0.013,0.008-0.028,0.011-0.044,0.011h-1.63c-0.041,0-0.074-0.015-0.101-0.042
		c-0.026-0.026-0.04-0.073-0.04-0.138v-0.1c0-0.028,0.002-0.053,0.006-0.074c0.003-0.021,0.008-0.043,0.017-0.064
		c0.007-0.022,0.019-0.044,0.032-0.069c0.014-0.024,0.031-0.053,0.05-0.083l1.168-1.819h-1.133c-0.032,0-0.056-0.016-0.074-0.048
		c-0.019-0.031-0.028-0.085-0.028-0.157c0-0.035,0.002-0.066,0.006-0.093c0.004-0.027,0.01-0.048,0.02-0.064
		c0.009-0.017,0.019-0.028,0.032-0.036c0.013-0.006,0.028-0.01,0.045-0.01h1.518c0.022,0,0.042,0.004,0.058,0.009
		c0.017,0.006,0.031,0.016,0.043,0.029c0.011,0.015,0.021,0.031,0.028,0.054c0.006,0.021,0.01,0.049,0.01,0.082v0.094
		c0,0.028-0.001,0.053-0.006,0.077c-0.004,0.022-0.01,0.046-0.018,0.068c-0.007,0.022-0.018,0.047-0.032,0.072
		c-0.014,0.026-0.03,0.054-0.05,0.085l-1.162,1.818h1.242c0.016,0,0.03,0.003,0.042,0.011c0.013,0.007,0.023,0.018,0.033,0.033
		c0.009,0.016,0.016,0.037,0.022,0.063C47.01,84.451,47.013,84.483,47.013,84.52 M44.483,81.111c0,0.113-0.021,0.191-0.064,0.232
		c-0.043,0.041-0.123,0.062-0.238,0.062c-0.114,0-0.192-0.021-0.234-0.061s-0.063-0.115-0.063-0.229s0.021-0.19,0.063-0.231
		c0.043-0.041,0.123-0.063,0.238-0.063c0.114,0,0.192,0.021,0.234,0.061S44.483,80.999,44.483,81.111 M44.428,84.652
		c0,0.016-0.004,0.03-0.012,0.04c-0.008,0.011-0.021,0.02-0.038,0.027c-0.019,0.009-0.042,0.015-0.073,0.019
		c-0.032,0.004-0.073,0.006-0.122,0.006c-0.046,0-0.086-0.002-0.118-0.006c-0.031-0.004-0.056-0.01-0.074-0.019
		c-0.019-0.008-0.032-0.017-0.039-0.027c-0.007-0.01-0.011-0.024-0.011-0.04v-2.647c0-0.014,0.004-0.025,0.011-0.038
		c0.006-0.012,0.02-0.022,0.039-0.029c0.018-0.008,0.043-0.013,0.074-0.018c0.032-0.004,0.071-0.006,0.118-0.006
		c0.049,0,0.089,0.002,0.122,0.006c0.031,0.005,0.055,0.01,0.073,0.018c0.017,0.007,0.03,0.018,0.038,0.029
		c0.008,0.013,0.012,0.024,0.012,0.038V84.652z M43.3,84.458c0,0.058-0.004,0.103-0.011,0.136c-0.008,0.033-0.021,0.058-0.037,0.073
		c-0.015,0.017-0.039,0.031-0.07,0.044c-0.031,0.015-0.067,0.025-0.107,0.034s-0.083,0.016-0.128,0.022
		c-0.045,0.006-0.09,0.009-0.135,0.009c-0.138,0-0.255-0.018-0.354-0.055c-0.097-0.037-0.178-0.091-0.241-0.164
		c-0.063-0.074-0.108-0.166-0.137-0.28c-0.028-0.112-0.042-0.245-0.042-0.399v-1.546h-0.372c-0.028,0-0.052-0.016-0.07-0.047
		c-0.019-0.032-0.026-0.083-0.026-0.153c0-0.037,0.002-0.068,0.007-0.095c0.005-0.025,0.011-0.046,0.019-0.063
		s0.018-0.028,0.031-0.036c0.013-0.006,0.027-0.01,0.042-0.01h0.369v-0.629c0-0.015,0.003-0.026,0.01-0.038
		c0.007-0.013,0.019-0.022,0.038-0.031c0.018-0.009,0.043-0.016,0.075-0.02s0.07-0.006,0.118-0.006c0.049,0,0.089,0.002,0.121,0.006
		c0.031,0.004,0.056,0.011,0.073,0.02c0.018,0.009,0.03,0.019,0.038,0.031c0.008,0.012,0.012,0.023,0.012,0.038v0.629h0.68
		c0.015,0,0.029,0.004,0.041,0.01c0.011,0.008,0.022,0.02,0.03,0.036c0.009,0.017,0.017,0.037,0.02,0.063
		c0.004,0.026,0.006,0.058,0.006,0.095c0,0.07-0.008,0.121-0.026,0.153c-0.018,0.031-0.042,0.047-0.07,0.047h-0.68v1.477
		c0,0.184,0.027,0.32,0.081,0.413c0.053,0.093,0.15,0.14,0.29,0.14c0.045,0,0.085-0.005,0.121-0.013
		c0.035-0.009,0.067-0.019,0.094-0.028c0.027-0.01,0.051-0.019,0.07-0.028c0.02-0.009,0.037-0.012,0.053-0.012
		c0.01,0,0.019,0.001,0.028,0.006c0.009,0.005,0.015,0.014,0.02,0.028c0.005,0.015,0.01,0.032,0.013,0.056
		C43.298,84.393,43.3,84.422,43.3,84.458 M41.083,81.111c0,0.113-0.021,0.191-0.065,0.232c-0.043,0.041-0.123,0.062-0.238,0.062
		c-0.115,0-0.192-0.021-0.234-0.061c-0.042-0.04-0.063-0.115-0.063-0.229s0.021-0.19,0.064-0.231
		c0.043-0.041,0.123-0.063,0.238-0.063c0.115,0,0.192,0.021,0.234,0.061C41.062,80.922,41.083,80.999,41.083,81.111 M41.027,84.652
		c0,0.016-0.004,0.03-0.013,0.04c-0.007,0.011-0.021,0.02-0.038,0.027c-0.018,0.009-0.042,0.015-0.074,0.019
		s-0.072,0.006-0.121,0.006c-0.047,0-0.085-0.002-0.118-0.006c-0.031-0.004-0.056-0.01-0.075-0.019
		c-0.019-0.008-0.032-0.017-0.038-0.027c-0.007-0.01-0.011-0.024-0.011-0.04v-2.647c0-0.014,0.003-0.025,0.011-0.038
		c0.006-0.012,0.019-0.022,0.038-0.029c0.019-0.008,0.043-0.013,0.075-0.018c0.032-0.004,0.071-0.006,0.118-0.006
		c0.049,0,0.089,0.002,0.121,0.006c0.032,0.005,0.056,0.01,0.074,0.018c0.017,0.007,0.031,0.018,0.038,0.029
		c0.009,0.013,0.013,0.024,0.013,0.038V84.652z"/>
	<path fill="#FFFFFF" d="M269.431,86.408v-6.752h1.034v0.954c0.212-0.33,0.495-0.597,0.85-0.796
		c0.353-0.202,0.755-0.302,1.205-0.302c0.503,0,0.915,0.104,1.235,0.311c0.321,0.208,0.548,0.497,0.679,0.869
		c0.541-0.787,1.241-1.18,2.105-1.18c0.676,0,1.198,0.185,1.561,0.555c0.364,0.372,0.548,0.942,0.548,1.711v4.63h-1.152v-4.251
		c0-0.454-0.04-0.784-0.114-0.986c-0.074-0.201-0.209-0.361-0.407-0.485c-0.196-0.123-0.428-0.184-0.692-0.184
		c-0.479,0-0.877,0.158-1.192,0.472c-0.317,0.317-0.475,0.822-0.475,1.517v3.918h-1.151v-4.383c0-0.507-0.094-0.889-0.281-1.142
		c-0.188-0.254-0.495-0.382-0.921-0.382c-0.322,0-0.622,0.085-0.896,0.253c-0.275,0.17-0.474,0.416-0.599,0.744
		c-0.122,0.325-0.183,0.796-0.183,1.409v3.5H269.431z M259.624,83.034c0,0.863,0.188,1.509,0.567,1.937
		c0.383,0.43,0.86,0.644,1.438,0.644c0.572,0,1.048-0.214,1.43-0.646c0.379-0.433,0.569-1.088,0.569-1.971
		c0-0.833-0.192-1.465-0.574-1.892c-0.382-0.429-0.857-0.644-1.425-0.644c-0.578,0-1.056,0.212-1.438,0.64
		C259.813,81.529,259.624,82.172,259.624,83.034 M258.445,83.032c0-1.246,0.349-2.171,1.049-2.771
		c0.583-0.498,1.296-0.748,2.136-0.748c0.933,0,1.695,0.304,2.289,0.911c0.592,0.604,0.889,1.443,0.889,2.513
		c0,0.867-0.132,1.549-0.394,2.045c-0.263,0.497-0.644,0.883-1.146,1.158c-0.499,0.275-1.047,0.412-1.639,0.412
		c-0.951,0-1.719-0.302-2.307-0.907C258.737,85.04,258.445,84.167,258.445,83.032 M253.496,83.936l1.126,0.155
		c-0.125,0.771-0.438,1.371-0.947,1.807s-1.135,0.653-1.874,0.653c-0.928,0-1.674-0.302-2.236-0.905
		c-0.565-0.603-0.847-1.466-0.847-2.589c0-0.729,0.121-1.364,0.364-1.91c0.242-0.544,0.611-0.954,1.108-1.225
		c0.495-0.273,1.034-0.41,1.619-0.41c0.734,0,1.34,0.185,1.807,0.555c0.469,0.372,0.77,0.898,0.9,1.579l-1.112,0.169
		c-0.106-0.452-0.294-0.794-0.567-1.023c-0.271-0.228-0.598-0.343-0.981-0.343c-0.581,0-1.052,0.207-1.417,0.618
		c-0.361,0.414-0.542,1.064-0.542,1.958c0,0.906,0.174,1.563,0.522,1.973c0.352,0.411,0.808,0.616,1.368,0.616
		c0.454,0,0.831-0.136,1.133-0.412C253.224,84.929,253.415,84.506,253.496,83.936 M242.475,85.106h1.309v1.302h-1.309V85.106z
		 M231.87,84.391l1.14-0.182c0.063,0.452,0.241,0.8,0.534,1.043c0.292,0.24,0.702,0.361,1.227,0.361c0.529,0,0.922-0.105,1.18-0.32
		c0.256-0.213,0.384-0.464,0.384-0.752c0-0.259-0.115-0.463-0.345-0.61c-0.161-0.102-0.554-0.229-1.178-0.388
		c-0.843-0.21-1.425-0.393-1.752-0.546c-0.325-0.156-0.572-0.369-0.739-0.643c-0.169-0.271-0.254-0.572-0.254-0.901
		c0-0.302,0.07-0.579,0.208-0.835c0.14-0.257,0.326-0.469,0.564-0.638c0.179-0.13,0.423-0.24,0.73-0.332
		c0.311-0.091,0.64-0.137,0.993-0.137c0.532,0,0.999,0.076,1.4,0.23c0.404,0.15,0.7,0.359,0.893,0.619
		c0.19,0.263,0.323,0.611,0.396,1.05l-1.126,0.156c-0.051-0.352-0.199-0.627-0.443-0.824s-0.589-0.295-1.035-0.295
		c-0.527,0-0.904,0.087-1.129,0.261s-0.338,0.377-0.338,0.609c0,0.147,0.046,0.281,0.14,0.401c0.093,0.121,0.24,0.223,0.44,0.303
		c0.115,0.043,0.452,0.142,1.015,0.293c0.812,0.215,1.378,0.393,1.702,0.529c0.322,0.137,0.576,0.339,0.759,0.598
		c0.186,0.263,0.277,0.588,0.277,0.979c0,0.379-0.111,0.737-0.337,1.073c-0.225,0.337-0.547,0.596-0.968,0.781
		c-0.424,0.184-0.901,0.275-1.434,0.275c-0.882,0-1.557-0.184-2.019-0.545C232.294,85.642,231.999,85.105,231.87,84.391
		 M222.639,82.387h3.782c-0.05-0.568-0.195-0.992-0.434-1.276c-0.364-0.441-0.84-0.662-1.423-0.662c-0.528,0-0.971,0.176-1.33,0.527
		C222.876,81.327,222.678,81.798,222.639,82.387 M226.408,84.222l1.191,0.156c-0.186,0.687-0.532,1.223-1.038,1.602
		c-0.507,0.379-1.152,0.571-1.94,0.571c-0.99,0-1.776-0.305-2.356-0.911c-0.58-0.605-0.87-1.457-0.87-2.553
		c0-1.132,0.292-2.012,0.88-2.636c0.586-0.628,1.348-0.939,2.284-0.939c0.905,0,1.646,0.307,2.218,0.92
		c0.574,0.613,0.863,1.477,0.863,2.589c0,0.066-0.003,0.169-0.007,0.304h-5.061c0.044,0.738,0.254,1.308,0.633,1.699
		c0.378,0.393,0.852,0.59,1.416,0.59c0.422,0,0.782-0.11,1.079-0.331C225.998,85.061,226.234,84.708,226.408,84.222 M211.951,82.917
		c0,0.883,0.177,1.527,0.53,1.932c0.355,0.406,0.798,0.609,1.331,0.609c0.53,0,0.973-0.201,1.333-0.604
		c0.357-0.403,0.536-1.037,0.536-1.899c0-0.824-0.185-1.446-0.554-1.865s-0.814-0.626-1.333-0.626c-0.513,0-0.946,0.205-1.307,0.618
		C212.13,81.492,211.951,82.104,211.951,82.917 M211.009,86.967l1.112,0.156c0.046,0.343,0.178,0.591,0.391,0.75
		c0.286,0.21,0.676,0.316,1.172,0.316c0.532,0,0.944-0.106,1.234-0.316s0.487-0.508,0.59-0.887c0.059-0.232,0.087-0.721,0.082-1.463
		c-0.504,0.589-1.13,0.884-1.881,0.884c-0.934,0-1.657-0.334-2.168-1.004c-0.512-0.668-0.769-1.471-0.769-2.405
		c0-0.644,0.118-1.237,0.352-1.782c0.233-0.543,0.574-0.962,1.02-1.26c0.445-0.297,0.969-0.444,1.57-0.444
		c0.801,0,1.462,0.325,1.981,0.976v-0.832h1.06v5.83c0,1.052-0.106,1.796-0.322,2.233c-0.215,0.438-0.557,0.784-1.021,1.039
		c-0.467,0.253-1.041,0.381-1.721,0.381c-0.81,0-1.462-0.179-1.96-0.542C211.231,88.237,210.991,87.694,211.009,86.967
		 M201.53,82.387h3.782c-0.05-0.568-0.195-0.992-0.434-1.276c-0.364-0.441-0.84-0.662-1.422-0.662c-0.528,0-0.972,0.176-1.331,0.527
		C201.768,81.327,201.569,81.798,201.53,82.387 M205.301,84.222l1.19,0.156c-0.186,0.687-0.532,1.223-1.038,1.602
		c-0.507,0.379-1.152,0.571-1.94,0.571c-0.99,0-1.776-0.305-2.356-0.911c-0.58-0.605-0.87-1.457-0.87-2.553
		c0-1.132,0.292-2.012,0.88-2.636c0.586-0.628,1.348-0.939,2.284-0.939c0.905,0,1.646,0.307,2.219,0.92s0.862,1.477,0.862,2.589
		c0,0.066-0.003,0.169-0.007,0.304h-5.06c0.043,0.738,0.253,1.308,0.632,1.699c0.379,0.393,0.852,0.59,1.416,0.59
		c0.422,0,0.782-0.11,1.078-0.331C204.89,85.061,205.125,84.708,205.301,84.222 M194.458,77.092h1.152v9.315h-1.152V77.092z
		 M188.276,77.092h1.15v9.315h-1.15V77.092z M178.494,83.034c0,0.863,0.189,1.509,0.569,1.937c0.381,0.43,0.859,0.644,1.438,0.644
		c0.571,0,1.048-0.214,1.429-0.646c0.381-0.433,0.57-1.088,0.57-1.971c0-0.833-0.192-1.465-0.574-1.892
		c-0.382-0.429-0.858-0.644-1.425-0.644c-0.578,0-1.057,0.212-1.438,0.64C178.684,81.529,178.494,82.172,178.494,83.034
		 M177.315,83.032c0-1.246,0.349-2.171,1.05-2.771c0.582-0.498,1.296-0.748,2.136-0.748c0.933,0,1.695,0.304,2.289,0.911
		c0.591,0.604,0.888,1.443,0.888,2.513c0,0.867-0.131,1.549-0.393,2.045c-0.262,0.497-0.644,0.883-1.146,1.158
		c-0.5,0.275-1.048,0.412-1.639,0.412c-0.951,0-1.72-0.302-2.307-0.907C177.608,85.04,177.315,84.167,177.315,83.032
		 M172.367,83.936l1.125,0.155c-0.124,0.771-0.438,1.371-0.946,1.807c-0.509,0.436-1.135,0.653-1.874,0.653
		c-0.928,0-1.674-0.302-2.237-0.905c-0.564-0.603-0.846-1.466-0.846-2.589c0-0.729,0.121-1.364,0.363-1.91
		c0.242-0.544,0.611-0.954,1.109-1.225c0.495-0.273,1.033-0.41,1.619-0.41c0.734,0,1.339,0.185,1.807,0.555
		c0.469,0.372,0.77,0.898,0.901,1.579l-1.114,0.169c-0.106-0.452-0.294-0.794-0.567-1.023c-0.271-0.228-0.597-0.343-0.98-0.343
		c-0.581,0-1.053,0.207-1.417,0.618c-0.362,0.414-0.543,1.064-0.543,1.958c0,0.906,0.175,1.563,0.523,1.973
		c0.352,0.411,0.807,0.616,1.368,0.616c0.453,0,0.831-0.136,1.133-0.412C172.094,84.929,172.286,84.506,172.367,83.936
		 M161.813,86.408v-1.004c-0.528,0.766-1.243,1.147-2.148,1.147c-0.4,0-0.773-0.076-1.119-0.229
		c-0.348-0.153-0.605-0.346-0.773-0.574c-0.168-0.231-0.285-0.514-0.354-0.848c-0.046-0.226-0.069-0.581-0.069-1.067v-4.178h1.151
		v3.736c0,0.596,0.024,0.999,0.07,1.205c0.072,0.302,0.225,0.536,0.46,0.706c0.233,0.172,0.522,0.259,0.866,0.259
		c0.345,0,0.668-0.087,0.97-0.263c0.3-0.175,0.515-0.416,0.641-0.718c0.124-0.301,0.188-0.741,0.188-1.316v-3.609h1.152v6.752
		H161.813z M149.729,86.408v-6.752h1.033v1.034c0.265-0.479,0.51-0.797,0.733-0.947c0.226-0.154,0.472-0.23,0.74-0.23
		c0.388,0,0.783,0.122,1.185,0.362l-0.41,1.057c-0.279-0.156-0.559-0.234-0.838-0.234c-0.251,0-0.476,0.075-0.674,0.226
		c-0.199,0.149-0.34,0.357-0.426,0.625c-0.129,0.404-0.191,0.85-0.191,1.333v3.527H149.729z M139.188,86.408v-9.315h1.152v3.353
		c0.533-0.622,1.209-0.933,2.024-0.933c0.499,0,0.933,0.098,1.304,0.295c0.369,0.197,0.633,0.469,0.793,0.815
		c0.159,0.347,0.237,0.853,0.237,1.511v4.274h-1.151v-4.27c0-0.57-0.125-0.986-0.371-1.247c-0.248-0.26-0.598-0.39-1.052-0.39
		c-0.339,0-0.657,0.087-0.956,0.262c-0.299,0.177-0.51,0.414-0.639,0.716c-0.127,0.299-0.189,0.714-0.189,1.243v3.686H139.188z
		 M129.497,82.387h3.783c-0.05-0.568-0.196-0.992-0.434-1.276c-0.364-0.441-0.84-0.662-1.423-0.662
		c-0.528,0-0.971,0.176-1.331,0.527C129.735,81.327,129.537,81.798,129.497,82.387 M133.268,84.222l1.19,0.156
		c-0.185,0.687-0.532,1.223-1.038,1.602c-0.505,0.379-1.152,0.571-1.939,0.571c-0.991,0-1.776-0.305-2.356-0.911
		c-0.581-0.605-0.87-1.457-0.87-2.553c0-1.132,0.292-2.012,0.879-2.636c0.586-0.628,1.348-0.939,2.285-0.939
		c0.906,0,1.645,0.307,2.218,0.92c0.574,0.613,0.862,1.477,0.862,2.589c0,0.066-0.002,0.169-0.007,0.304h-5.06
		c0.044,0.738,0.252,1.308,0.632,1.699c0.378,0.393,0.851,0.59,1.417,0.59c0.421,0,0.781-0.11,1.078-0.331
		C132.857,85.061,133.093,84.708,133.268,84.222 M118.079,86.408v-6.752h1.034v0.958c0.498-0.734,1.218-1.102,2.158-1.102
		c0.41,0,0.786,0.074,1.128,0.22c0.343,0.145,0.6,0.338,0.77,0.574c0.17,0.236,0.291,0.518,0.358,0.844
		c0.042,0.213,0.063,0.583,0.063,1.112v4.146h-1.152v-4.103c0-0.466-0.044-0.815-0.133-1.045c-0.089-0.23-0.249-0.415-0.476-0.554
		c-0.227-0.136-0.495-0.205-0.8-0.205c-0.489,0-0.91,0.154-1.266,0.464c-0.356,0.309-0.532,0.896-0.532,1.759v3.684H118.079z
		 M111.495,85.106h1.309v1.302h-1.309V85.106z M100.385,86.408l-2.053-6.752h1.204l1.084,3.896l0.384,1.45
		c0.015-0.071,0.133-0.535,0.351-1.392l1.076-3.955h1.18l1.023,3.92l0.334,1.286l0.39-1.304l1.174-3.902h1.119l-2.131,6.752h-1.191
		l-1.078-4.039l-0.273-1.156l-1.374,5.195H100.385z M87.658,86.408l-2.053-6.752h1.204l1.085,3.896l0.384,1.45
		c0.015-0.071,0.133-0.535,0.351-1.392l1.076-3.955h1.18l1.023,3.92l0.334,1.286l0.39-1.304l1.174-3.902h1.12l-2.132,6.752h-1.191
		l-1.079-4.039l-0.272-1.156l-1.374,5.195H87.658z M74.93,86.408l-2.053-6.752h1.204l1.085,3.896l0.384,1.45
		c0.015-0.071,0.133-0.535,0.351-1.392l1.076-3.955h1.18l1.023,3.92l0.334,1.286l0.391-1.304l1.173-3.902h1.12l-2.132,6.752h-1.191
		l-1.078-4.039l-0.273-1.156l-1.374,5.195H74.93z"/>
</g>
</svg>
